<svg xmlns="http://www.w3.org/2000/svg" viewBox="0 0 336.14 95.81"><defs><style>.cls-1{fill:#b7b7b7;}</style></defs><g id="Layer_2" data-name="Layer 2"><g id="Layer_1-2" data-name="Layer 1"><path class="cls-1" d="M40.07,95.81c0-25-.13-50.11,0-75.17C40.13,11.37,48,3.17,58.36.69,59.19.49,60,.23,60.82,0h4.61V15c-.76.14-1.41.28-2.06.38-6.24.93-8.16,3.18-8.16,9.54v11H65.33V51.25H55.06V95.81Z"/><path class="cls-1" d="M85.22,61.29c0,1.45,0,2.48,0,3.52,0,2.6,1.37,3.85,4,3.83,3.92,0,7.84,0,12,0v15.6c-6.2-.41-12.51-.1-18.47-1.41-7.46-1.64-12.53-9-12.65-16.73-.12-8.46-.14-16.93,0-25.39a18.41,18.41,0,0,1,36.78-.26c.17,4.32.13,8.66,0,13a7.76,7.76,0,0,1-7.9,7.85C94.52,61.37,90.12,61.29,85.22,61.29ZM85.37,46h6c-.21-2.59,1.22-5.36-1.43-7.22a3.44,3.44,0,0,0-3.14,0C84.19,40.55,85.4,43.31,85.37,46Z"/><path class="cls-1" d="M243.84,58.23V81.66H233.48V2.28h10.26V46.66c1-1.24,1.43-1.73,1.78-2.3,3.53-5.72,7.09-11.42,10.51-17.21a3.38,3.38,0,0,1,3.44-1.92c3.16.12,6.32,0,9.9,0-.53,1-.86,1.76-1.28,2.45-4.55,7.45-9.07,14.93-13.72,22.33a3.41,3.41,0,0,0-.05,4.12c4.83,8.19,9.53,16.45,14.26,24.69.47.82.91,1.66,1.62,3-4,0-7.72.1-11.38-.09-.65,0-1.4-1.16-1.85-1.93-4.2-7.22-8.34-14.46-12.5-21.7Z"/><path class="cls-1" d="M123.81,36.43V81H113.45V2.71h10.28V25.93c2.65,0,4.93,0,7.2,0,8.29.07,14.73,5.78,14.91,14,.29,13.35.08,26.72.07,40.08a4.87,4.87,0,0,1-.28,1H135.34V77.86q0-17.86,0-35.75c0-4.4-1.27-5.66-5.63-5.68Z"/><path class="cls-1" d="M174.36,45c1.14-5.92-.44-8-5.82-8H156.65V26.69c5.9,0,11.75-.44,17.51.12,5.49.54,10,6.28,10.56,12.86.47,5.82.28,11.7.34,17.56,0,3.84,0,7.69,0,11.53,0,7.71-3.85,12.62-11.38,14.43a18.84,18.84,0,0,1-14.46-1.91c-4.28-2.52-6.66-6.25-6.62-11.35,0-3.08,0-6.15,0-9.23,0-9.43,5.5-15.2,15-15.66C169.87,44.94,172.15,45,174.36,45Zm.42,10.65a64.59,64.59,0,0,0-7.91.07c-2.64.34-4.26,1.89-4,4.93.18,2,0,4,0,6,0,5.66,4.52,8.46,9.55,5.78,1-.52,2.17-1.74,2.22-2.69C174.9,65.15,174.78,60.49,174.78,55.68Z"/><path class="cls-1" d="M282.26,59c0,3-.16,5.6,0,8.16.25,3,2.5,5,5.65,5,3.34.08,6.68,0,10.21,0V82.44c-4.67,0-9.32.53-13.79-.13-7.28-1.07-12.54-7.86-12.61-15.43q-.12-12.69,0-25.38a16,16,0,0,1,32.08-.57c.16,4,.1,8.08,0,12.12-.08,3.78-2.18,5.89-5.94,6C292.83,59.07,287.76,59,282.26,59Zm10.83-10.65c.07-.69.17-1.25.17-1.8,0-1.91.09-3.84-.07-5.75a5.45,5.45,0,0,0-5.1-5c-2.49-.15-5.15,1.5-5.51,4.09a60.59,60.59,0,0,0-.09,8.42Z"/><path class="cls-1" d="M214.51,66.07h10.36a41.26,41.26,0,0,1-.49,4.54,15.76,15.76,0,0,1-16.11,12.11c-7.6-.27-14.42-5.88-14.87-13.44a290.52,290.52,0,0,1-.2-29.66A15.42,15.42,0,0,1,209,24.85c8.36,0,15,6.23,15.8,14.86.13,1.41,0,2.85,0,4.5H214.24c0-1.1,0-2.3,0-3.49a5.35,5.35,0,0,0-5.29-5.35,5.25,5.25,0,0,0-5.27,5.34c-.08,8.55-.06,17.1,0,25.65,0,3.34,1.89,5.54,4.76,5.82s5.21-1.59,5.85-5C214.3,66.88,214.38,66.6,214.51,66.07Z"/><path class="cls-1" d="M336.14,24.73v10.5c-2.32,0-4.67,0-7,0-4.93.06-7.67,2.76-7.68,7.69,0,11.83,0,23.66,0,35.48v3.29H311.09c-.06-.76-.16-1.41-.16-2,0-12.5-.07-25,0-37.5A17.18,17.18,0,0,1,328.3,24.73C330.86,24.7,333.43,24.73,336.14,24.73Z"/><path class="cls-1" d="M14.75,82.86H0V2.59H14.75Z"/><path class="cls-1" d="M20.72,24.63H35.57V82.82H20.72Z"/><path class="cls-1" d="M36,15.73a8,8,0,0,1-7.92,7.84A7.88,7.88,0,1,1,36,15.73Z"/></g></g></svg>