<svg xmlns="http://www.w3.org/2000/svg" xmlns:xlink="http://www.w3.org/1999/xlink" width="380" zoomAndPan="magnify" viewBox="0 0 285 67.499998" height="90" preserveAspectRatio="xMidYMid meet" version="1.0"><defs><g/><clipPath id="948dbe25b9"><path d="M 156 27.90625 L 164 27.90625 L 164 50.238281 L 156 50.238281 Z M 156 27.90625 " clip-rule="nonzero"/></clipPath></defs><path fill="#f15107" d="M 169.757812 38.292969 C 170.480469 37.582031 168.871094 36.816406 167.816406 35.929688 C 166.914062 35.175781 166.414062 34.730469 166.40625 34.160156 C 166.363281 31.128906 164.976562 29.417969 163.609375 28.601562 C 163.667969 28.714844 163.722656 28.835938 163.769531 28.960938 C 164.410156 30.667969 163.773438 32.753906 161.875 35.164062 C 161.929688 35.777344 161.992188 36.441406 162.058594 37.152344 C 163.375 37.191406 164.597656 37.679688 165.519531 38.535156 C 166.511719 39.460938 167.058594 40.734375 167.058594 42.117188 C 167.058594 44.074219 165.96875 45.777344 164.367188 46.660156 C 165.4375 46.933594 166.121094 47.269531 166.746094 47.152344 C 168.144531 46.894531 167.921875 45.675781 167.824219 45.015625 C 167.722656 44.355469 168.101562 43.832031 168.738281 43.507812 C 169.371094 43.183594 169.304688 42.488281 168.890625 42.3125 C 168.472656 42.140625 167.710938 41.914062 168.011719 41.53125 C 168.335938 41.121094 169.253906 40.996094 169.382812 40.546875 C 169.515625 40.097656 168.535156 39.875 168.628906 39.472656 C 168.75 38.96875 169.308594 38.738281 169.757812 38.292969 Z M 169.757812 38.292969 " fill-opacity="1" fill-rule="nonzero"/><path fill="#f15107" d="M 165.082031 39.003906 C 164.238281 38.21875 163.101562 37.785156 161.878906 37.785156 C 160.738281 37.785156 158.941406 38.804688 158.535156 40.71875 C 159.066406 39.621094 160.203125 38.425781 161.878906 38.425781 C 164.105469 38.425781 165.78125 40.011719 165.78125 42.117188 C 165.78125 44.269531 164.03125 46.023438 161.878906 46.023438 L 161.878906 46.660156 C 164.382812 46.660156 166.421875 44.621094 166.421875 42.117188 C 166.421875 40.914062 165.945312 39.808594 165.082031 39.003906 Z M 165.082031 39.003906 " fill-opacity="1" fill-rule="nonzero"/><g clip-path="url(#948dbe25b9)"><path fill="#f15107" d="M 161.21875 34.964844 C 163.085938 32.65625 163.746094 30.710938 163.171875 29.183594 C 162.871094 28.378906 162.210938 27.90625 161.53125 28.007812 C 160.96875 28.09375 160.347656 28.605469 160.28125 29.785156 C 160.242188 30.480469 160.335938 32.144531 160.558594 34.757812 C 160.371094 34.992188 160.175781 35.222656 159.984375 35.445312 C 158.28125 37.472656 156.675781 39.382812 156.675781 41.910156 C 156.675781 43.679688 157.984375 46.445312 161.464844 46.648438 C 161.371094 48.800781 160.9375 49.46875 160.753906 49.65625 C 160.46875 49.941406 160.007812 49.941406 159.722656 49.65625 C 159.582031 49.515625 159.507812 49.332031 159.507812 49.136719 C 159.507812 48.507812 160.132812 47.761719 161.207031 48.167969 C 160.949219 47.910156 160.605469 47.769531 160.238281 47.769531 C 159.871094 47.769531 159.527344 47.910156 159.269531 48.167969 C 159.011719 48.429688 158.867188 48.773438 158.867188 49.136719 C 158.867188 49.503906 159.011719 49.847656 159.269531 50.105469 C 159.535156 50.371094 159.886719 50.507812 160.238281 50.507812 C 160.589844 50.507812 160.941406 50.371094 161.207031 50.105469 C 162.097656 49.195312 162.347656 46.347656 161.90625 42.085938 C 161.613281 39.234375 161.382812 36.855469 161.21875 34.964844 Z M 160.917969 29.820312 C 160.960938 29.023438 161.3125 28.6875 161.628906 28.640625 C 161.660156 28.636719 161.6875 28.632812 161.71875 28.632812 C 162.058594 28.632812 162.394531 28.933594 162.574219 29.410156 C 163.019531 30.597656 162.539062 32.148438 161.140625 34.027344 C 160.960938 31.839844 160.886719 30.429688 160.917969 29.820312 Z M 161.484375 46.011719 C 158.453125 45.820312 157.3125 43.433594 157.3125 41.910156 C 157.3125 39.617188 158.847656 37.789062 160.476562 35.855469 C 160.527344 35.792969 160.585938 35.726562 160.640625 35.660156 C 160.796875 37.449219 161.007812 39.613281 161.269531 42.152344 C 161.4375 43.75 161.492188 45.011719 161.484375 46.011719 Z M 161.484375 46.011719 " fill-opacity="1" fill-rule="nonzero"/></g><path fill="#f15107" d="M 158.851562 34.515625 C 157.3125 36.605469 156.074219 38.589844 155.660156 40.546875 C 155.242188 42.515625 155.828125 44.714844 156.785156 45.984375 C 155.046875 44.535156 154.671875 41.957031 155.066406 40.265625 C 155.546875 38.21875 157.039062 36 158.851562 34.515625 Z M 158.851562 34.515625 " fill-opacity="1" fill-rule="nonzero"/><path fill="#f15107" d="M 157.210938 33.816406 C 155.550781 36.171875 154.1875 38.40625 153.785156 40.609375 C 153.34375 43.003906 154.378906 45.539062 155.429688 46.957031 C 153.40625 45.4375 152.71875 42.199219 153.136719 40.300781 C 153.644531 37.996094 155.246094 35.496094 157.210938 33.816406 Z M 157.210938 33.816406 " fill-opacity="1" fill-rule="nonzero"/><g fill="#070a0e" fill-opacity="1"><g transform="translate(66.1291, 45.483926)"><g><path d="M 3.40625 0 L 3.40625 -7.453125 L 0.40625 -7.453125 L 0.40625 -9.46875 L 8.5625 -9.46875 L 8.5625 -7.453125 L 5.5625 -7.453125 L 5.5625 0 Z M 3.40625 0 "/></g></g></g><g fill="#070a0e" fill-opacity="1"><g transform="translate(74.530436, 45.483926)"><g><path d="M 3.859375 0.1875 C 2.929688 0.1875 2.203125 -0.101562 1.671875 -0.6875 C 1.148438 -1.269531 0.890625 -2.050781 0.890625 -3.03125 L 0.890625 -7.109375 L 2.953125 -7.109375 L 2.953125 -3.234375 C 2.953125 -2.710938 3.070312 -2.304688 3.3125 -2.015625 C 3.5625 -1.722656 3.90625 -1.578125 4.34375 -1.578125 C 4.8125 -1.578125 5.1875 -1.738281 5.46875 -2.0625 C 5.75 -2.394531 5.890625 -2.835938 5.890625 -3.390625 L 5.890625 -7.109375 L 7.9375 -7.109375 L 7.9375 0 L 6.40625 0 L 6.203125 -0.796875 C 5.921875 -0.460938 5.578125 -0.210938 5.171875 -0.046875 C 4.765625 0.109375 4.328125 0.1875 3.859375 0.1875 Z M 3.859375 0.1875 "/></g></g></g><g fill="#070a0e" fill-opacity="1"><g transform="translate(82.931772, 45.483926)"><g><path d="M 1.03125 0 L 1.03125 -7.109375 L 2.5625 -7.109375 L 2.78125 -6.3125 C 3.0625 -6.644531 3.40625 -6.890625 3.8125 -7.046875 C 4.226562 -7.210938 4.671875 -7.296875 5.140625 -7.296875 C 6.066406 -7.296875 6.796875 -7.003906 7.328125 -6.421875 C 7.859375 -5.847656 8.125 -5.070312 8.125 -4.09375 L 8.125 0 L 6.0625 0 L 6.0625 -3.875 C 6.0625 -4.394531 5.9375 -4.800781 5.6875 -5.09375 C 5.4375 -5.382812 5.09375 -5.53125 4.65625 -5.53125 C 4.1875 -5.53125 3.804688 -5.367188 3.515625 -5.046875 C 3.222656 -4.722656 3.078125 -4.28125 3.078125 -3.71875 L 3.078125 0 Z M 1.03125 0 "/></g></g></g><g fill="#070a0e" fill-opacity="1"><g transform="translate(91.373693, 45.483926)"><g><path d="M 4.390625 0.1875 C 3.628906 0.1875 2.957031 0.03125 2.375 -0.28125 C 1.789062 -0.59375 1.335938 -1.03125 1.015625 -1.59375 C 0.691406 -2.164062 0.53125 -2.820312 0.53125 -3.5625 C 0.53125 -4.300781 0.691406 -4.945312 1.015625 -5.5 C 1.347656 -6.0625 1.804688 -6.5 2.390625 -6.8125 C 2.972656 -7.132812 3.644531 -7.296875 4.40625 -7.296875 C 5.21875 -7.296875 5.921875 -7.113281 6.515625 -6.75 C 7.109375 -6.382812 7.554688 -5.878906 7.859375 -5.234375 C 8.171875 -4.585938 8.304688 -3.832031 8.265625 -2.96875 L 2.578125 -2.96875 C 2.671875 -2.476562 2.882812 -2.101562 3.21875 -1.84375 C 3.550781 -1.59375 3.953125 -1.46875 4.421875 -1.46875 C 4.765625 -1.46875 5.078125 -1.53125 5.359375 -1.65625 C 5.648438 -1.789062 5.878906 -1.972656 6.046875 -2.203125 L 8.125 -2.203125 C 7.820312 -1.453125 7.34375 -0.863281 6.6875 -0.4375 C 6.03125 -0.0195312 5.265625 0.1875 4.390625 0.1875 Z M 2.578125 -4.265625 L 6.28125 -4.265625 C 6.164062 -4.691406 5.945312 -5.03125 5.625 -5.28125 C 5.300781 -5.53125 4.898438 -5.65625 4.421875 -5.65625 C 3.972656 -5.65625 3.582031 -5.53125 3.25 -5.28125 C 2.925781 -5.03125 2.703125 -4.691406 2.578125 -4.265625 Z M 2.578125 -4.265625 "/></g></g></g><g fill="#070a0e" fill-opacity="1"><g transform="translate(99.585624, 45.483926)"><g><path d="M 5.484375 0.1875 C 4.523438 0.1875 3.675781 -0.0195312 2.9375 -0.4375 C 2.195312 -0.851562 1.617188 -1.429688 1.203125 -2.171875 C 0.785156 -2.910156 0.578125 -3.765625 0.578125 -4.734375 C 0.578125 -5.703125 0.785156 -6.554688 1.203125 -7.296875 C 1.617188 -8.035156 2.191406 -8.613281 2.921875 -9.03125 C 3.660156 -9.445312 4.507812 -9.65625 5.46875 -9.65625 C 6.269531 -9.65625 7.003906 -9.5 7.671875 -9.1875 C 8.335938 -8.882812 8.898438 -8.453125 9.359375 -7.890625 C 9.816406 -7.335938 10.132812 -6.679688 10.3125 -5.921875 L 8.09375 -5.921875 C 7.914062 -6.453125 7.59375 -6.867188 7.125 -7.171875 C 6.664062 -7.472656 6.132812 -7.625 5.53125 -7.625 C 5 -7.625 4.523438 -7.5 4.109375 -7.25 C 3.691406 -7.007812 3.363281 -6.671875 3.125 -6.234375 C 2.894531 -5.804688 2.78125 -5.304688 2.78125 -4.734375 C 2.78125 -4.171875 2.894531 -3.671875 3.125 -3.234375 C 3.363281 -2.796875 3.6875 -2.457031 4.09375 -2.21875 C 4.507812 -1.976562 4.984375 -1.859375 5.515625 -1.859375 C 6.140625 -1.859375 6.6875 -2.015625 7.15625 -2.328125 C 7.625 -2.648438 7.957031 -3.082031 8.15625 -3.625 L 10.375 -3.625 C 10.21875 -2.851562 9.910156 -2.179688 9.453125 -1.609375 C 8.992188 -1.035156 8.421875 -0.59375 7.734375 -0.28125 C 7.054688 0.03125 6.304688 0.1875 5.484375 0.1875 Z M 5.484375 0.1875 "/></g></g></g><g fill="#070a0e" fill-opacity="1"><g transform="translate(109.935126, 45.483926)"><g><path d="M 1.03125 0 L 1.03125 -7.109375 L 2.5625 -7.109375 L 2.828125 -6.15625 C 3.066406 -6.488281 3.351562 -6.726562 3.6875 -6.875 C 4.03125 -7.03125 4.46875 -7.109375 5 -7.109375 L 5.765625 -7.109375 L 5.765625 -5.234375 L 4.984375 -5.234375 C 4.390625 -5.234375 3.921875 -5.078125 3.578125 -4.765625 C 3.242188 -4.453125 3.078125 -3.910156 3.078125 -3.140625 L 3.078125 0 Z M 1.03125 0 "/></g></g></g><g fill="#070a0e" fill-opacity="1"><g transform="translate(115.59009, 45.483926)"><g><path d="M 4.390625 0.1875 C 3.628906 0.1875 2.957031 0.03125 2.375 -0.28125 C 1.789062 -0.59375 1.335938 -1.03125 1.015625 -1.59375 C 0.691406 -2.164062 0.53125 -2.820312 0.53125 -3.5625 C 0.53125 -4.300781 0.691406 -4.945312 1.015625 -5.5 C 1.347656 -6.0625 1.804688 -6.5 2.390625 -6.8125 C 2.972656 -7.132812 3.644531 -7.296875 4.40625 -7.296875 C 5.21875 -7.296875 5.921875 -7.113281 6.515625 -6.75 C 7.109375 -6.382812 7.554688 -5.878906 7.859375 -5.234375 C 8.171875 -4.585938 8.304688 -3.832031 8.265625 -2.96875 L 2.578125 -2.96875 C 2.671875 -2.476562 2.882812 -2.101562 3.21875 -1.84375 C 3.550781 -1.59375 3.953125 -1.46875 4.421875 -1.46875 C 4.765625 -1.46875 5.078125 -1.53125 5.359375 -1.65625 C 5.648438 -1.789062 5.878906 -1.972656 6.046875 -2.203125 L 8.125 -2.203125 C 7.820312 -1.453125 7.34375 -0.863281 6.6875 -0.4375 C 6.03125 -0.0195312 5.265625 0.1875 4.390625 0.1875 Z M 2.578125 -4.265625 L 6.28125 -4.265625 C 6.164062 -4.691406 5.945312 -5.03125 5.625 -5.28125 C 5.300781 -5.53125 4.898438 -5.65625 4.421875 -5.65625 C 3.972656 -5.65625 3.582031 -5.53125 3.25 -5.28125 C 2.925781 -5.03125 2.703125 -4.691406 2.578125 -4.265625 Z M 2.578125 -4.265625 "/></g></g></g><g fill="#070a0e" fill-opacity="1"><g transform="translate(123.802021, 45.483926)"><g><path d="M 2.75 0 L 0.125 -7.109375 L 2.296875 -7.109375 L 3.125 -4.75 L 3.828125 -2.765625 L 4.5625 -4.75 L 5.4375 -7.109375 L 7.109375 -7.109375 L 7.984375 -4.75 L 8.71875 -2.75 L 9.421875 -4.75 L 10.25 -7.109375 L 12.421875 -7.109375 L 9.796875 0 L 7.890625 0 L 6.28125 -4.328125 L 4.65625 0 Z M 2.75 0 "/></g></g></g><g fill="#070a0e" fill-opacity="1"><g transform="translate(135.774999, 45.483926)"><g/></g></g><g fill="#070a0e" fill-opacity="1"><g transform="translate(138.385946, 45.483926)"><g><path d="M 0.125 0 L 3.890625 -9.46875 L 6 -9.46875 L 9.75 0 L 7.453125 0 L 6.8125 -1.640625 L 3.0625 -1.640625 L 2.421875 0 Z M 3.609375 -3.328125 L 6.28125 -3.328125 L 4.9375 -6.796875 Z M 3.609375 -3.328125 "/></g></g></g><g fill="#070a0e" fill-opacity="1"><g transform="translate(147.693721, 45.483926)"><g><path d="M 1.140625 0 L 1.140625 -9.46875 L 3.28125 -9.46875 L 3.28125 0 Z M 1.140625 0 "/></g></g></g></svg>