<svg xmlns="http://www.w3.org/2000/svg" xmlns:xlink="http://www.w3.org/1999/xlink" width="600" zoomAndPan="magnify" viewBox="0 0 450 141.000003" height="188" preserveAspectRatio="xMidYMid meet" version="1.0"><defs><g/><clipPath id="6b058d371b"><path d="M 269 48 L 287 48 L 287 103.679688 L 269 103.679688 Z M 269 48 " clip-rule="nonzero"/></clipPath></defs><path fill="#f15107" d="M 302.269531 73.609375 C 304.0625 71.835938 300.0625 69.941406 297.449219 67.742188 C 295.210938 65.867188 293.972656 64.757812 293.953125 63.347656 C 293.84375 55.824219 290.402344 51.578125 287.007812 49.554688 C 287.15625 49.835938 287.292969 50.136719 287.410156 50.445312 C 288.996094 54.679688 287.414062 59.855469 282.710938 65.835938 C 282.84375 67.355469 282.992188 69.003906 283.160156 70.773438 C 286.429688 70.875 289.464844 72.082031 291.746094 74.207031 C 294.214844 76.507812 295.574219 79.664062 295.574219 83.097656 C 295.574219 87.949219 292.871094 92.179688 288.890625 94.363281 C 291.546875 95.046875 293.246094 95.875 294.789062 95.589844 C 298.265625 94.945312 297.714844 91.921875 297.46875 90.285156 C 297.222656 88.652344 298.164062 87.351562 299.738281 86.546875 C 301.308594 85.738281 301.148438 84.011719 300.113281 83.582031 C 299.082031 83.152344 297.191406 82.589844 297.9375 81.640625 C 298.738281 80.625 301.015625 80.3125 301.339844 79.199219 C 301.667969 78.085938 299.234375 77.53125 299.472656 76.53125 C 299.765625 75.28125 301.15625 74.710938 302.269531 73.609375 Z M 302.269531 73.609375 " fill-opacity="1" fill-rule="nonzero"/><path fill="#f15107" d="M 290.667969 75.367188 C 288.574219 73.417969 285.753906 72.347656 282.71875 72.347656 C 279.890625 72.347656 275.433594 74.875 274.417969 79.625 C 275.734375 76.894531 278.558594 73.929688 282.71875 73.929688 C 288.242188 73.929688 292.40625 77.871094 292.40625 83.097656 C 292.40625 88.4375 288.058594 92.785156 282.71875 92.785156 L 282.71875 94.367188 C 288.933594 94.367188 293.988281 89.3125 293.988281 83.097656 C 293.988281 80.109375 292.808594 77.363281 290.667969 75.367188 Z M 290.667969 75.367188 " fill-opacity="1" fill-rule="nonzero"/><g clip-path="url(#6b058d371b)"><path fill="#f15107" d="M 281.078125 65.34375 C 285.714844 59.617188 287.347656 54.792969 285.925781 51.003906 C 285.175781 49 283.539062 47.824219 281.855469 48.082031 C 280.460938 48.296875 278.914062 49.570312 278.753906 52.496094 C 278.660156 54.214844 278.890625 58.347656 279.445312 64.835938 C 278.972656 65.410156 278.488281 65.984375 278.019531 66.539062 C 273.792969 71.5625 269.800781 76.308594 269.800781 82.582031 C 269.800781 86.96875 273.050781 93.835938 281.695312 94.339844 C 281.460938 99.683594 280.378906 101.339844 279.929688 101.796875 C 279.222656 102.503906 278.070312 102.503906 277.363281 101.796875 C 277.019531 101.453125 276.832031 101 276.832031 100.515625 C 276.832031 98.957031 278.386719 97.097656 281.046875 98.113281 C 280.40625 97.46875 279.554688 97.117188 278.644531 97.117188 C 277.738281 97.117188 276.882812 97.46875 276.242188 98.113281 C 275.601562 98.753906 275.246094 99.605469 275.246094 100.515625 C 275.246094 101.421875 275.601562 102.277344 276.242188 102.917969 C 276.90625 103.578125 277.773438 103.910156 278.644531 103.910156 C 279.515625 103.910156 280.386719 103.578125 281.054688 102.914062 C 283.261719 100.664062 283.878906 93.597656 282.785156 83.015625 C 282.054688 75.9375 281.484375 70.039062 281.078125 65.34375 Z M 280.335938 52.582031 C 280.441406 50.601562 281.316406 49.769531 282.097656 49.648438 C 282.171875 49.636719 282.242188 49.632812 282.316406 49.632812 C 283.164062 49.632812 284 50.375 284.445312 51.558594 C 285.550781 54.511719 284.351562 58.359375 280.882812 63.019531 C 280.4375 57.589844 280.253906 54.097656 280.335938 52.582031 Z M 281.734375 92.753906 C 274.214844 92.277344 271.386719 86.363281 271.386719 82.582031 C 271.386719 76.886719 275.195312 72.355469 279.234375 67.558594 C 279.367188 67.398438 279.503906 67.238281 279.640625 67.074219 C 280.035156 71.507812 280.558594 76.878906 281.210938 83.179688 C 281.617188 87.140625 281.757812 90.277344 281.734375 92.753906 Z M 281.734375 92.753906 " fill-opacity="1" fill-rule="nonzero"/></g><path fill="#f15107" d="M 275.210938 64.230469 C 271.386719 69.414062 268.308594 74.339844 267.28125 79.195312 C 266.246094 84.085938 267.707031 89.535156 270.078125 92.6875 C 265.765625 89.097656 264.832031 82.691406 265.816406 78.5 C 267.007812 73.417969 270.703125 67.917969 275.210938 64.230469 Z M 275.210938 64.230469 " fill-opacity="1" fill-rule="nonzero"/><path fill="#f15107" d="M 271.136719 62.496094 C 267.015625 68.34375 263.636719 73.882812 262.628906 79.351562 C 261.535156 85.296875 264.105469 91.589844 266.714844 95.105469 C 261.6875 91.335938 259.992188 83.292969 261.023438 78.585938 C 262.28125 72.871094 266.261719 66.667969 271.136719 62.496094 Z M 271.136719 62.496094 " fill-opacity="1" fill-rule="nonzero"/><g fill="#ffffff" fill-opacity="1"><g transform="translate(102.584782, 88.113542)"><g><path d="M 6.21875 0 L 6.21875 -13.609375 L 0.734375 -13.609375 L 0.734375 -17.296875 L 15.640625 -17.296875 L 15.640625 -13.609375 L 10.15625 -13.609375 L 10.15625 0 Z M 6.21875 0 "/></g></g></g><g fill="#ffffff" fill-opacity="1"><g transform="translate(117.922508, 88.113542)"><g><path d="M 7.046875 0.34375 C 5.359375 0.34375 4.03125 -0.1875 3.0625 -1.25 C 2.101562 -2.3125 1.625 -3.738281 1.625 -5.53125 L 1.625 -12.96875 L 5.390625 -12.96875 L 5.390625 -5.90625 C 5.390625 -4.945312 5.613281 -4.203125 6.0625 -3.671875 C 6.519531 -3.148438 7.140625 -2.890625 7.921875 -2.890625 C 8.785156 -2.890625 9.472656 -3.1875 9.984375 -3.78125 C 10.492188 -4.375 10.75 -5.179688 10.75 -6.203125 L 10.75 -12.96875 L 14.5 -12.96875 L 14.5 0 L 11.703125 0 L 11.3125 -1.453125 C 10.800781 -0.847656 10.175781 -0.394531 9.4375 -0.09375 C 8.695312 0.195312 7.898438 0.34375 7.046875 0.34375 Z M 7.046875 0.34375 "/></g></g></g><g fill="#ffffff" fill-opacity="1"><g transform="translate(133.260234, 88.113542)"><g><path d="M 1.875 0 L 1.875 -12.96875 L 4.671875 -12.96875 L 5.0625 -11.515625 C 5.59375 -12.117188 6.234375 -12.566406 6.984375 -12.859375 C 7.734375 -13.160156 8.535156 -13.3125 9.390625 -13.3125 C 11.085938 -13.3125 12.414062 -12.785156 13.375 -11.734375 C 14.34375 -10.679688 14.828125 -9.253906 14.828125 -7.453125 L 14.828125 0 L 11.0625 0 L 11.0625 -7.0625 C 11.0625 -8.019531 10.832031 -8.765625 10.375 -9.296875 C 9.925781 -9.835938 9.300781 -10.109375 8.5 -10.109375 C 7.644531 -10.109375 6.953125 -9.8125 6.421875 -9.21875 C 5.890625 -8.625 5.625 -7.816406 5.625 -6.796875 L 5.625 0 Z M 1.875 0 "/></g></g></g><g fill="#ffffff" fill-opacity="1"><g transform="translate(148.672052, 88.113542)"><g><path d="M 8 0.34375 C 6.613281 0.34375 5.390625 0.0546875 4.328125 -0.515625 C 3.265625 -1.097656 2.4375 -1.898438 1.84375 -2.921875 C 1.257812 -3.953125 0.96875 -5.144531 0.96875 -6.5 C 0.96875 -7.84375 1.265625 -9.023438 1.859375 -10.046875 C 2.460938 -11.066406 3.296875 -11.863281 4.359375 -12.4375 C 5.421875 -13.019531 6.648438 -13.3125 8.046875 -13.3125 C 9.535156 -13.3125 10.816406 -12.984375 11.890625 -12.328125 C 12.972656 -11.671875 13.796875 -10.75 14.359375 -9.5625 C 14.929688 -8.375 15.175781 -6.988281 15.09375 -5.40625 L 4.6875 -5.40625 C 4.875 -4.519531 5.269531 -3.84375 5.875 -3.375 C 6.488281 -2.90625 7.222656 -2.671875 8.078125 -2.671875 C 8.703125 -2.671875 9.273438 -2.789062 9.796875 -3.03125 C 10.316406 -3.269531 10.734375 -3.601562 11.046875 -4.03125 L 14.84375 -4.03125 C 14.28125 -2.65625 13.398438 -1.582031 12.203125 -0.8125 C 11.003906 -0.0390625 9.601562 0.34375 8 0.34375 Z M 4.71875 -7.78125 L 11.46875 -7.78125 C 11.25 -8.570312 10.847656 -9.191406 10.265625 -9.640625 C 9.679688 -10.097656 8.953125 -10.328125 8.078125 -10.328125 C 7.253906 -10.328125 6.539062 -10.097656 5.9375 -9.640625 C 5.34375 -9.191406 4.9375 -8.570312 4.71875 -7.78125 Z M 4.71875 -7.78125 "/></g></g></g><g fill="#ffffff" fill-opacity="1"><g transform="translate(163.663994, 88.113542)"><g><path d="M 10 0.34375 C 8.257812 0.34375 6.710938 -0.0351562 5.359375 -0.796875 C 4.003906 -1.566406 2.945312 -2.625 2.1875 -3.96875 C 1.4375 -5.320312 1.0625 -6.878906 1.0625 -8.640625 C 1.0625 -10.410156 1.4375 -11.96875 2.1875 -13.3125 C 2.945312 -14.664062 4 -15.722656 5.34375 -16.484375 C 6.6875 -17.253906 8.234375 -17.640625 9.984375 -17.640625 C 11.441406 -17.640625 12.78125 -17.359375 14 -16.796875 C 15.21875 -16.234375 16.242188 -15.441406 17.078125 -14.421875 C 17.910156 -13.398438 18.492188 -12.195312 18.828125 -10.8125 L 14.765625 -10.8125 C 14.441406 -11.769531 13.859375 -12.523438 13.015625 -13.078125 C 12.179688 -13.628906 11.210938 -13.90625 10.109375 -13.90625 C 9.128906 -13.90625 8.253906 -13.679688 7.484375 -13.234375 C 6.722656 -12.796875 6.128906 -12.179688 5.703125 -11.390625 C 5.273438 -10.597656 5.0625 -9.679688 5.0625 -8.640625 C 5.0625 -7.609375 5.273438 -6.695312 5.703125 -5.90625 C 6.128906 -5.113281 6.722656 -4.492188 7.484375 -4.046875 C 8.242188 -3.609375 9.109375 -3.390625 10.078125 -3.390625 C 11.210938 -3.390625 12.207031 -3.679688 13.0625 -4.265625 C 13.925781 -4.847656 14.535156 -5.632812 14.890625 -6.625 L 18.953125 -6.625 C 18.671875 -5.21875 18.109375 -3.992188 17.265625 -2.953125 C 16.421875 -1.910156 15.378906 -1.097656 14.140625 -0.515625 C 12.898438 0.0546875 11.519531 0.34375 10 0.34375 Z M 10 0.34375 "/></g></g></g><g fill="#ffffff" fill-opacity="1"><g transform="translate(182.558348, 88.113542)"><g><path d="M 1.875 0 L 1.875 -12.96875 L 4.671875 -12.96875 L 5.15625 -11.234375 C 5.59375 -11.847656 6.125 -12.289062 6.75 -12.5625 C 7.375 -12.832031 8.160156 -12.96875 9.109375 -12.96875 L 10.53125 -12.96875 L 10.53125 -9.5625 L 9.09375 -9.5625 C 8.019531 -9.5625 7.171875 -9.269531 6.546875 -8.6875 C 5.929688 -8.113281 5.625 -7.128906 5.625 -5.734375 L 5.625 0 Z M 1.875 0 "/></g></g></g><g fill="#ffffff" fill-opacity="1"><g transform="translate(192.882217, 88.113542)"><g><path d="M 8 0.34375 C 6.613281 0.34375 5.390625 0.0546875 4.328125 -0.515625 C 3.265625 -1.097656 2.4375 -1.898438 1.84375 -2.921875 C 1.257812 -3.953125 0.96875 -5.144531 0.96875 -6.5 C 0.96875 -7.84375 1.265625 -9.023438 1.859375 -10.046875 C 2.460938 -11.066406 3.296875 -11.863281 4.359375 -12.4375 C 5.421875 -13.019531 6.648438 -13.3125 8.046875 -13.3125 C 9.535156 -13.3125 10.816406 -12.984375 11.890625 -12.328125 C 12.972656 -11.671875 13.796875 -10.75 14.359375 -9.5625 C 14.929688 -8.375 15.175781 -6.988281 15.09375 -5.40625 L 4.6875 -5.40625 C 4.875 -4.519531 5.269531 -3.84375 5.875 -3.375 C 6.488281 -2.90625 7.222656 -2.671875 8.078125 -2.671875 C 8.703125 -2.671875 9.273438 -2.789062 9.796875 -3.03125 C 10.316406 -3.269531 10.734375 -3.601562 11.046875 -4.03125 L 14.84375 -4.03125 C 14.28125 -2.65625 13.398438 -1.582031 12.203125 -0.8125 C 11.003906 -0.0390625 9.601562 0.34375 8 0.34375 Z M 4.71875 -7.78125 L 11.46875 -7.78125 C 11.25 -8.570312 10.847656 -9.191406 10.265625 -9.640625 C 9.679688 -10.097656 8.953125 -10.328125 8.078125 -10.328125 C 7.253906 -10.328125 6.539062 -10.097656 5.9375 -9.640625 C 5.34375 -9.191406 4.9375 -8.570312 4.71875 -7.78125 Z M 4.71875 -7.78125 "/></g></g></g><g fill="#ffffff" fill-opacity="1"><g transform="translate(207.874158, 88.113542)"><g><path d="M 5.015625 0 L 0.21875 -12.96875 L 4.203125 -12.96875 L 5.703125 -8.671875 L 6.984375 -5.046875 L 8.328125 -8.671875 L 9.9375 -12.96875 L 12.96875 -12.96875 L 14.578125 -8.671875 L 15.90625 -5.015625 L 17.1875 -8.671875 L 18.71875 -12.96875 L 22.671875 -12.96875 L 17.890625 0 L 14.40625 0 L 11.46875 -7.90625 L 8.5 0 Z M 5.015625 0 "/></g></g></g><g fill="#ffffff" fill-opacity="1"><g transform="translate(229.732377, 88.113542)"><g/></g></g><g fill="#ffffff" fill-opacity="1"><g transform="translate(234.498999, 88.113542)"><g><path d="M 0.21875 0 L 7.09375 -17.296875 L 10.9375 -17.296875 L 17.8125 0 L 13.609375 0 L 12.453125 -2.984375 L 5.578125 -2.984375 L 4.421875 0 Z M 6.59375 -6.078125 L 11.46875 -6.078125 L 9.015625 -12.40625 Z M 6.59375 -6.078125 "/></g></g></g><g fill="#ffffff" fill-opacity="1"><g transform="translate(251.491545, 88.113542)"><g><path d="M 2.078125 0 L 2.078125 -17.296875 L 6 -17.296875 L 6 0 Z M 2.078125 0 "/></g></g></g></svg>