<svg xmlns="http://www.w3.org/2000/svg" xmlns:xlink="http://www.w3.org/1999/xlink" width="220" zoomAndPan="magnify" viewBox="0 0 165 48.75" height="65" preserveAspectRatio="xMidYMid meet" version="1.0"><defs><g/><clipPath id="a643c23d7d"><path d="M 5.269531 10 L 42.578125 10 L 42.578125 40.371094 L 5.269531 40.371094 Z M 5.269531 10 " clip-rule="nonzero"/></clipPath></defs><g clip-path="url(#a643c23d7d)"><path fill="#e25c09" d="M 9.472656 27.3125 C 10.566406 27.3125 11.460938 28.207031 11.460938 29.300781 L 11.460938 37.539062 C 11.460938 38.632812 10.566406 39.527344 9.472656 39.527344 C 8.378906 39.527344 7.480469 38.632812 7.480469 37.539062 L 7.480469 29.300781 C 7.480469 29.25 7.484375 29.199219 7.484375 29.148438 C 7.484375 28.976562 7.480469 28.804688 7.480469 28.632812 C 7.480469 3.808594 40.417969 3.808594 40.417969 28.632812 C 40.417969 28.804688 40.410156 28.976562 40.40625 29.148438 C 40.410156 29.199219 40.417969 29.25 40.417969 29.300781 L 40.417969 37.539062 C 40.417969 38.632812 39.519531 39.527344 38.425781 39.527344 C 37.332031 39.527344 36.4375 38.632812 36.4375 37.539062 L 36.4375 29.300781 C 36.4375 28.207031 37.332031 27.3125 38.425781 27.3125 C 38.550781 27.3125 38.667969 27.324219 38.785156 27.347656 C 34.980469 11.570312 12.933594 11.503906 9.109375 27.347656 C 9.226562 27.324219 9.347656 27.3125 9.472656 27.3125 Z M 23.945312 24.773438 L 23.996094 24.773438 L 24.007812 24.777344 L 24.039062 24.777344 L 24.050781 24.78125 L 24.070312 24.785156 L 24.082031 24.785156 L 24.097656 24.789062 L 24.109375 24.792969 L 24.125 24.800781 L 24.140625 24.804688 L 24.152344 24.808594 L 24.167969 24.8125 L 24.179688 24.820312 L 24.191406 24.824219 L 24.207031 24.828125 L 24.21875 24.839844 L 24.230469 24.84375 L 24.246094 24.851562 L 24.257812 24.859375 L 24.265625 24.863281 L 24.28125 24.875 L 24.292969 24.882812 L 24.300781 24.890625 L 24.316406 24.898438 L 24.335938 24.917969 L 24.359375 24.933594 L 24.367188 24.949219 L 24.390625 24.964844 L 24.398438 24.980469 L 24.417969 25 L 24.449219 25.046875 L 24.453125 25.046875 L 24.457031 25.058594 L 24.464844 25.070312 L 24.472656 25.085938 L 24.476562 25.097656 L 24.488281 25.109375 L 24.492188 25.125 L 24.496094 25.136719 L 24.503906 25.152344 L 24.511719 25.175781 L 24.519531 25.191406 L 24.523438 25.203125 L 24.527344 25.222656 L 24.527344 25.234375 L 24.53125 25.246094 L 24.535156 25.261719 L 24.535156 25.277344 L 24.539062 25.292969 L 24.539062 25.308594 L 24.542969 25.320312 L 24.542969 39.613281 L 24.539062 39.625 L 24.539062 39.640625 L 24.535156 39.65625 L 24.535156 39.667969 L 24.527344 39.699219 L 24.527344 39.714844 L 24.519531 39.738281 L 24.511719 39.757812 L 24.507812 39.769531 L 24.503906 39.785156 L 24.496094 39.796875 L 24.492188 39.808594 L 24.488281 39.824219 L 24.476562 39.835938 L 24.472656 39.851562 L 24.464844 39.863281 L 24.457031 39.871094 L 24.453125 39.886719 L 24.449219 39.886719 L 24.417969 39.933594 L 24.40625 39.941406 L 24.398438 39.957031 L 24.378906 39.976562 L 24.367188 39.984375 L 24.359375 39.996094 L 24.347656 40.003906 L 24.335938 40.015625 L 24.328125 40.027344 L 24.316406 40.035156 L 24.300781 40.042969 L 24.292969 40.050781 L 24.28125 40.054688 L 24.265625 40.066406 L 24.257812 40.074219 L 24.246094 40.082031 L 24.230469 40.085938 L 24.21875 40.097656 L 24.207031 40.101562 L 24.191406 40.109375 L 24.167969 40.117188 L 24.152344 40.121094 L 24.140625 40.132812 L 24.109375 40.140625 L 24.097656 40.140625 L 24.082031 40.144531 L 24.070312 40.148438 L 24.050781 40.152344 L 24.039062 40.152344 L 24.027344 40.15625 L 23.996094 40.15625 L 23.976562 40.160156 L 23.921875 40.160156 L 23.902344 40.15625 L 23.871094 40.15625 L 23.859375 40.152344 L 23.84375 40.152344 L 23.828125 40.148438 L 23.816406 40.144531 L 23.800781 40.140625 L 23.785156 40.140625 L 23.769531 40.136719 L 23.757812 40.132812 L 23.746094 40.121094 L 23.730469 40.117188 L 23.71875 40.113281 L 23.703125 40.109375 L 23.691406 40.101562 L 23.679688 40.097656 L 23.664062 40.085938 L 23.652344 40.082031 L 23.628906 40.066406 L 23.617188 40.054688 L 23.605469 40.050781 L 23.570312 40.027344 L 23.519531 39.976562 L 23.515625 39.976562 L 23.507812 39.964844 L 23.5 39.957031 L 23.488281 39.941406 L 23.480469 39.933594 L 23.464844 39.910156 L 23.453125 39.898438 L 23.445312 39.886719 L 23.441406 39.871094 L 23.421875 39.851562 L 23.417969 39.835938 L 23.410156 39.824219 L 23.40625 39.808594 L 23.402344 39.796875 L 23.394531 39.785156 L 23.386719 39.769531 L 23.382812 39.757812 L 23.378906 39.738281 L 23.371094 39.714844 L 23.367188 39.699219 L 23.367188 39.683594 L 23.363281 39.667969 L 23.363281 39.65625 L 23.359375 39.640625 L 23.359375 39.625 L 23.351562 39.613281 L 23.351562 25.320312 L 23.359375 25.308594 L 23.359375 25.292969 L 23.363281 25.277344 L 23.363281 25.261719 L 23.367188 25.246094 L 23.367188 25.234375 L 23.371094 25.222656 L 23.375 25.203125 L 23.378906 25.191406 L 23.382812 25.175781 L 23.386719 25.164062 L 23.394531 25.152344 L 23.402344 25.136719 L 23.40625 25.125 L 23.410156 25.109375 L 23.417969 25.097656 L 23.421875 25.085938 L 23.433594 25.070312 L 23.441406 25.058594 L 23.445312 25.046875 L 23.453125 25.035156 L 23.464844 25.023438 L 23.488281 24.988281 L 23.5 24.980469 L 23.507812 24.964844 L 23.515625 24.957031 L 23.519531 24.957031 L 23.527344 24.949219 L 23.539062 24.933594 L 23.546875 24.925781 L 23.570312 24.910156 L 23.582031 24.898438 L 23.617188 24.875 L 23.628906 24.863281 L 23.640625 24.859375 L 23.664062 24.84375 L 23.679688 24.839844 L 23.691406 24.828125 L 23.703125 24.824219 L 23.71875 24.820312 L 23.730469 24.8125 L 23.746094 24.808594 L 23.769531 24.800781 L 23.785156 24.792969 L 23.816406 24.785156 L 23.828125 24.785156 L 23.859375 24.777344 L 23.890625 24.777344 L 23.902344 24.773438 Z M 14.15625 30.660156 C 13.824219 30.660156 13.558594 30.925781 13.558594 31.257812 L 13.558594 33.246094 C 13.558594 33.570312 13.824219 33.839844 14.15625 33.839844 C 14.480469 33.839844 14.746094 33.570312 14.746094 33.246094 L 14.746094 31.257812 C 14.746094 30.925781 14.480469 30.660156 14.15625 30.660156 Z M 33.742188 30.660156 C 34.066406 30.660156 34.335938 30.925781 34.335938 31.257812 L 34.335938 33.246094 C 34.335938 33.570312 34.066406 33.839844 33.742188 33.839844 C 33.414062 33.839844 33.148438 33.570312 33.148438 33.246094 L 33.148438 31.257812 C 33.148438 30.925781 33.414062 30.660156 33.742188 30.660156 Z M 16.152344 29.15625 C 15.828125 29.15625 15.558594 29.425781 15.558594 29.75 L 15.558594 34.75 C 15.558594 35.078125 15.828125 35.347656 16.152344 35.347656 C 16.484375 35.347656 16.75 35.078125 16.75 34.75 L 16.75 29.75 C 16.75 29.425781 16.484375 29.15625 16.152344 29.15625 Z M 31.738281 29.15625 C 32.070312 29.15625 32.335938 29.425781 32.335938 29.75 L 32.335938 34.75 C 32.335938 35.078125 32.070312 35.347656 31.738281 35.347656 C 31.414062 35.347656 31.148438 35.078125 31.148438 34.75 L 31.148438 29.75 C 31.148438 29.425781 31.414062 29.15625 31.738281 29.15625 Z M 18.515625 25.933594 C 18.191406 25.933594 17.921875 26.199219 17.921875 26.527344 L 17.921875 38.40625 C 17.921875 38.734375 18.191406 39 18.515625 39 C 18.847656 39 19.113281 38.734375 19.113281 38.40625 L 19.113281 26.527344 C 19.113281 26.199219 18.847656 25.933594 18.515625 25.933594 Z M 29.378906 25.933594 C 29.707031 25.933594 29.972656 26.199219 29.972656 26.527344 L 29.972656 38.40625 C 29.972656 38.734375 29.707031 39 29.378906 39 C 29.050781 39 28.785156 38.734375 28.785156 38.40625 L 28.785156 26.527344 C 28.785156 26.199219 29.050781 25.933594 29.378906 25.933594 Z M 21.230469 26.964844 C 20.90625 26.964844 20.636719 27.234375 20.636719 27.558594 L 20.636719 37.371094 C 20.636719 37.703125 20.90625 37.96875 21.230469 37.96875 C 21.5625 37.96875 21.828125 37.703125 21.828125 37.371094 L 21.828125 27.558594 C 21.828125 27.234375 21.5625 26.964844 21.230469 26.964844 Z M 26.664062 26.964844 C 26.992188 26.964844 27.257812 27.234375 27.257812 27.558594 L 27.257812 37.371094 C 27.257812 37.703125 26.992188 37.96875 26.664062 37.96875 C 26.335938 37.96875 26.066406 37.703125 26.066406 37.371094 L 26.066406 27.558594 C 26.066406 27.234375 26.335938 26.964844 26.664062 26.964844 Z M 23.945312 40.160156 Z M 40.808594 37.210938 C 41.804688 37.210938 42.625 36.515625 42.625 35.667969 L 42.625 30.300781 C 42.625 29.453125 41.804688 28.761719 40.808594 28.761719 C 40.726562 28.761719 40.648438 28.761719 40.574219 28.769531 L 40.574219 37.195312 C 40.648438 37.207031 40.726562 37.210938 40.808594 37.210938 Z M 7.089844 37.210938 C 6.089844 37.210938 5.273438 36.515625 5.273438 35.667969 L 5.273438 30.300781 C 5.273438 29.453125 6.089844 28.761719 7.089844 28.761719 C 7.167969 28.761719 7.25 28.761719 7.324219 28.769531 L 7.324219 37.195312 C 7.25 37.207031 7.167969 37.210938 7.089844 37.210938 Z M 7.089844 37.210938 " fill-opacity="1" fill-rule="evenodd"/></g><g fill="#000000" fill-opacity="1"><g transform="translate(47.433913, 31.656355)"><g><path d="M 16.34375 0 L 2.25 0 L 2.25 -21.796875 L 16.34375 -21.796875 L 16.34375 -19.421875 L 4.890625 -19.421875 L 4.890625 -12.109375 L 15 -12.109375 L 15 -9.765625 L 4.890625 -9.765625 L 4.890625 -2.375 L 16.34375 -2.375 Z M 16.34375 0 "/></g></g></g><g fill="#000000" fill-opacity="1"><g transform="translate(63.37114, 31.656355)"><g><path d="M 3.25 -18.515625 C 2.738281 -18.515625 2.300781 -18.6875 1.9375 -19.03125 C 1.582031 -19.382812 1.40625 -19.8125 1.40625 -20.3125 C 1.40625 -20.800781 1.582031 -21.21875 1.9375 -21.5625 C 2.300781 -21.90625 2.738281 -22.078125 3.25 -22.078125 C 3.769531 -22.078125 4.207031 -21.90625 4.5625 -21.5625 C 4.925781 -21.21875 5.109375 -20.800781 5.109375 -20.3125 C 5.109375 -19.8125 4.925781 -19.382812 4.5625 -19.03125 C 4.207031 -18.6875 3.769531 -18.515625 3.25 -18.515625 Z M 4.453125 0 L 2.03125 0 L 2.03125 -15.796875 L 4.453125 -15.796875 Z M 4.453125 0 "/></g></g></g><g fill="#000000" fill-opacity="1"><g transform="translate(68.198007, 31.656355)"><g><path d="M 7.0625 0 L 5.71875 0 C 4.9375 0 4.265625 -0.109375 3.703125 -0.328125 C 3.140625 -0.546875 2.707031 -0.945312 2.40625 -1.53125 C 2.113281 -2.113281 1.96875 -2.925781 1.96875 -3.96875 L 1.96875 -21.796875 L 4.40625 -21.796875 L 4.40625 -4.34375 C 4.40625 -3.863281 4.4375 -3.460938 4.5 -3.140625 C 4.5625 -2.816406 4.722656 -2.566406 4.984375 -2.390625 C 5.253906 -2.222656 5.6875 -2.140625 6.28125 -2.140625 L 7.0625 -2.140625 Z M 7.0625 0 "/></g></g></g><g fill="#000000" fill-opacity="1"><g transform="translate(74.310132, 31.656355)"><g><path d="M 7.375 0.28125 C 5.164062 0.28125 3.613281 -0.546875 2.71875 -2.203125 C 2.21875 -3.128906 1.96875 -4.488281 1.96875 -6.28125 L 1.96875 -15.796875 L 4.40625 -15.796875 L 4.40625 -6.28125 C 4.40625 -4.601562 4.707031 -3.421875 5.3125 -2.734375 C 5.84375 -2.148438 6.648438 -1.859375 7.734375 -1.859375 C 8.941406 -1.859375 9.90625 -2.25 10.625 -3.03125 C 11.132812 -3.582031 11.5 -4.316406 11.71875 -5.234375 C 11.9375 -6.160156 12.046875 -7.429688 12.046875 -9.046875 L 12.046875 -15.796875 L 14.484375 -15.796875 L 14.484375 0 L 12.046875 0 L 12.046875 -2.453125 C 11.285156 -1.484375 10.539062 -0.785156 9.8125 -0.359375 C 9.082031 0.0664062 8.269531 0.28125 7.375 0.28125 Z M 7.375 0.28125 "/></g></g></g><g fill="#000000" fill-opacity="1"><g transform="translate(89.162028, 31.656355)"><g><path d="M 4.453125 0 L 2.03125 0 L 2.03125 -15.796875 L 4.453125 -15.796875 L 4.453125 -13.34375 C 5.253906 -14.363281 6.019531 -15.070312 6.75 -15.46875 C 7.488281 -15.875 8.285156 -16.078125 9.140625 -16.078125 C 10.148438 -16.078125 11.066406 -15.835938 11.890625 -15.359375 C 12.722656 -14.890625 13.265625 -14.160156 13.515625 -13.171875 C 14.097656 -14.304688 14.832031 -15.070312 15.71875 -15.46875 C 16.601562 -15.875 17.535156 -16.078125 18.515625 -16.078125 C 20.296875 -16.078125 21.613281 -15.566406 22.46875 -14.546875 C 23.332031 -13.535156 23.765625 -12.113281 23.765625 -10.28125 L 23.765625 0 L 21.34375 0 L 21.34375 -9.71875 C 21.34375 -11.082031 21.0625 -12.125 20.5 -12.84375 C 19.9375 -13.570312 19.148438 -13.9375 18.140625 -13.9375 C 17.566406 -13.9375 17.070312 -13.84375 16.65625 -13.65625 C 16.238281 -13.46875 15.875 -13.207031 15.5625 -12.875 C 15.007812 -12.289062 14.628906 -11.523438 14.421875 -10.578125 C 14.210938 -9.640625 14.109375 -8.492188 14.109375 -7.140625 L 14.109375 0 L 11.6875 0 L 11.6875 -9.71875 C 11.6875 -11.0625 11.390625 -12.097656 10.796875 -12.828125 C 10.203125 -13.566406 9.421875 -13.9375 8.453125 -13.9375 C 7.921875 -13.9375 7.441406 -13.835938 7.015625 -13.640625 C 6.585938 -13.441406 6.210938 -13.160156 5.890625 -12.796875 C 5.410156 -12.265625 5.050781 -11.5625 4.8125 -10.6875 C 4.570312 -9.820312 4.453125 -8.640625 4.453125 -7.140625 Z M 4.453125 0 "/></g></g></g><g fill="#000000" fill-opacity="1"><g transform="translate(113.182116, 31.656355)"><g><path d="M 3.25 -18.515625 C 2.738281 -18.515625 2.300781 -18.6875 1.9375 -19.03125 C 1.582031 -19.382812 1.40625 -19.8125 1.40625 -20.3125 C 1.40625 -20.800781 1.582031 -21.21875 1.9375 -21.5625 C 2.300781 -21.90625 2.738281 -22.078125 3.25 -22.078125 C 3.769531 -22.078125 4.207031 -21.90625 4.5625 -21.5625 C 4.925781 -21.21875 5.109375 -20.800781 5.109375 -20.3125 C 5.109375 -19.8125 4.925781 -19.382812 4.5625 -19.03125 C 4.207031 -18.6875 3.769531 -18.515625 3.25 -18.515625 Z M 4.453125 0 L 2.03125 0 L 2.03125 -15.796875 L 4.453125 -15.796875 Z M 4.453125 0 "/></g></g></g><g fill="#000000" fill-opacity="1"><g transform="translate(118.008983, 31.656355)"><g/></g></g><g fill="#000000" fill-opacity="1"><g transform="translate(124.349598, 31.656355)"><g><path d="M 3.0625 0 L 0.40625 0 L 8.421875 -21.796875 L 11.390625 -21.796875 L 19.421875 0 L 16.765625 0 L 14.859375 -5.34375 L 4.96875 -5.34375 Z M 9.90625 -19.109375 L 5.859375 -7.6875 L 13.96875 -7.6875 Z M 9.90625 -19.109375 "/></g></g></g><g fill="#000000" fill-opacity="1"><g transform="translate(142.514608, 31.656355)"><g><path d="M 4.890625 0 L 2.25 0 L 2.25 -21.796875 L 4.890625 -21.796875 Z M 4.890625 0 "/></g></g></g><g fill="#000000" fill-opacity="1"><g transform="translate(148.029057, 31.656355)"><g/></g></g><g fill="#000000" fill-opacity="1"><g transform="translate(39.951681, 42.785073)"><g><path d="M 4.78125 0 L 3.734375 0 L 3.359375 -1.140625 L 1.453125 -1.140625 L 1.078125 0 L 0.078125 0 L 1.796875 -4.96875 L 3.0625 -4.96875 Z M 2.359375 -3.9375 L 1.71875 -1.96875 L 3.09375 -1.96875 L 2.453125 -3.9375 Z M 2.359375 -3.9375 "/></g></g><g transform="translate(44.797424, 42.785073)"><g><path d="M 1.625 0 L 0.640625 0 L 0.640625 -4.96875 L 1.625 -4.96875 Z M 1.625 0 "/></g></g><g transform="translate(47.075774, 42.785073)"><g/></g><g transform="translate(48.718225, 42.785073)"><g><path d="M 1.546875 0 L 0.640625 0 L 0.640625 -4.96875 L 1.9375 -4.96875 L 3.1875 -1.3125 L 3.265625 -1.3125 L 4.515625 -4.96875 L 5.765625 -4.96875 L 5.765625 0 L 4.84375 0 L 4.84375 -3.28125 L 4.75 -3.296875 L 3.609375 0 L 2.78125 0 L 1.640625 -3.296875 L 1.546875 -3.28125 Z M 1.546875 0 "/></g></g><g transform="translate(55.135009, 42.785073)"><g><path d="M 2.640625 0.078125 C 1.953125 0.078125 1.441406 -0.0820312 1.109375 -0.40625 C 0.773438 -0.738281 0.609375 -1.222656 0.609375 -1.859375 L 0.609375 -4.96875 L 1.578125 -4.96875 L 1.578125 -1.875 C 1.578125 -1.507812 1.664062 -1.234375 1.84375 -1.046875 C 2.019531 -0.867188 2.285156 -0.78125 2.640625 -0.78125 C 3.347656 -0.78125 3.703125 -1.144531 3.703125 -1.875 L 3.703125 -4.96875 L 4.65625 -4.96875 L 4.65625 -1.859375 C 4.65625 -1.222656 4.488281 -0.738281 4.15625 -0.40625 C 3.832031 -0.0820312 3.328125 0.078125 2.640625 0.078125 Z M 2.640625 0.078125 "/></g></g><g transform="translate(60.405818, 42.785073)"><g><path d="M 2.203125 0.078125 C 1.859375 0.078125 1.550781 0.0351562 1.28125 -0.046875 C 1.007812 -0.140625 0.785156 -0.253906 0.609375 -0.390625 C 0.429688 -0.523438 0.296875 -0.675781 0.203125 -0.84375 L 0.734375 -1.5 L 0.828125 -1.5 C 0.972656 -1.28125 1.160156 -1.101562 1.390625 -0.96875 C 1.628906 -0.84375 1.898438 -0.78125 2.203125 -0.78125 C 2.460938 -0.78125 2.660156 -0.832031 2.796875 -0.9375 C 2.929688 -1.050781 3 -1.207031 3 -1.40625 C 3 -1.519531 2.976562 -1.617188 2.9375 -1.703125 C 2.894531 -1.785156 2.820312 -1.851562 2.71875 -1.90625 C 2.625 -1.957031 2.488281 -2.003906 2.3125 -2.046875 L 1.671875 -2.203125 C 1.222656 -2.296875 0.890625 -2.460938 0.671875 -2.703125 C 0.453125 -2.941406 0.34375 -3.25 0.34375 -3.625 C 0.34375 -3.90625 0.410156 -4.148438 0.546875 -4.359375 C 0.691406 -4.578125 0.898438 -4.742188 1.171875 -4.859375 C 1.441406 -4.984375 1.765625 -5.046875 2.140625 -5.046875 C 2.523438 -5.046875 2.851562 -4.992188 3.125 -4.890625 C 3.394531 -4.796875 3.625 -4.644531 3.8125 -4.4375 L 3.328125 -3.765625 L 3.25 -3.765625 C 3.101562 -3.910156 2.9375 -4.019531 2.75 -4.09375 C 2.570312 -4.164062 2.367188 -4.203125 2.140625 -4.203125 C 1.867188 -4.203125 1.660156 -4.15625 1.515625 -4.0625 C 1.378906 -3.96875 1.3125 -3.835938 1.3125 -3.671875 C 1.3125 -3.515625 1.359375 -3.390625 1.453125 -3.296875 C 1.554688 -3.203125 1.726562 -3.128906 1.96875 -3.078125 L 2.625 -2.9375 C 3.113281 -2.832031 3.460938 -2.660156 3.671875 -2.421875 C 3.890625 -2.179688 4 -1.863281 4 -1.46875 C 4 -1.15625 3.929688 -0.882812 3.796875 -0.65625 C 3.671875 -0.425781 3.472656 -0.242188 3.203125 -0.109375 C 2.929688 0.015625 2.597656 0.078125 2.203125 0.078125 Z M 2.203125 0.078125 "/></g></g><g transform="translate(64.676872, 42.785073)"><g><path d="M 1.625 0 L 0.640625 0 L 0.640625 -4.96875 L 1.625 -4.96875 Z M 1.625 0 "/></g></g><g transform="translate(66.955222, 42.785073)"><g><path d="M 2.71875 0.078125 C 2.257812 0.078125 1.851562 -0.015625 1.5 -0.203125 C 1.15625 -0.398438 0.882812 -0.6875 0.6875 -1.0625 C 0.488281 -1.445312 0.390625 -1.921875 0.390625 -2.484375 C 0.390625 -3.046875 0.488281 -3.515625 0.6875 -3.890625 C 0.882812 -4.273438 1.15625 -4.5625 1.5 -4.75 C 1.851562 -4.945312 2.257812 -5.046875 2.71875 -5.046875 C 3.195312 -5.046875 3.601562 -4.953125 3.9375 -4.765625 C 4.269531 -4.578125 4.507812 -4.289062 4.65625 -3.90625 L 3.9375 -3.46875 L 3.859375 -3.46875 C 3.742188 -3.726562 3.59375 -3.914062 3.40625 -4.03125 C 3.226562 -4.144531 3 -4.203125 2.71875 -4.203125 C 2.300781 -4.203125 1.976562 -4.0625 1.75 -3.78125 C 1.519531 -3.507812 1.40625 -3.078125 1.40625 -2.484375 C 1.40625 -1.890625 1.519531 -1.457031 1.75 -1.1875 C 1.976562 -0.914062 2.300781 -0.78125 2.71875 -0.78125 C 3.363281 -0.78125 3.757812 -1.09375 3.90625 -1.71875 L 3.984375 -1.71875 L 4.71875 -1.34375 C 4.582031 -0.875 4.347656 -0.519531 4.015625 -0.28125 C 3.691406 -0.0390625 3.257812 0.078125 2.71875 0.078125 Z M 2.71875 0.078125 "/></g></g><g transform="translate(71.831569, 42.785073)"><g/></g><g transform="translate(73.474021, 42.785073)"><g><path d="M 2.375 -2 L 0.296875 -2 L 0.296875 -2.828125 L 2.375 -2.828125 Z M 2.375 -2 "/></g></g><g transform="translate(76.157033, 42.785073)"><g/></g><g transform="translate(77.799484, 42.785073)"><g><path d="M 2.71875 0.078125 C 2.257812 0.078125 1.851562 -0.015625 1.5 -0.203125 C 1.15625 -0.398438 0.882812 -0.6875 0.6875 -1.0625 C 0.488281 -1.445312 0.390625 -1.921875 0.390625 -2.484375 C 0.390625 -3.046875 0.488281 -3.515625 0.6875 -3.890625 C 0.882812 -4.273438 1.15625 -4.5625 1.5 -4.75 C 1.851562 -4.945312 2.257812 -5.046875 2.71875 -5.046875 C 3.195312 -5.046875 3.601562 -4.953125 3.9375 -4.765625 C 4.269531 -4.578125 4.507812 -4.289062 4.65625 -3.90625 L 3.9375 -3.46875 L 3.859375 -3.46875 C 3.742188 -3.726562 3.59375 -3.914062 3.40625 -4.03125 C 3.226562 -4.144531 3 -4.203125 2.71875 -4.203125 C 2.300781 -4.203125 1.976562 -4.0625 1.75 -3.78125 C 1.519531 -3.507812 1.40625 -3.078125 1.40625 -2.484375 C 1.40625 -1.890625 1.519531 -1.457031 1.75 -1.1875 C 1.976562 -0.914062 2.300781 -0.78125 2.71875 -0.78125 C 3.363281 -0.78125 3.757812 -1.09375 3.90625 -1.71875 L 3.984375 -1.71875 L 4.71875 -1.34375 C 4.582031 -0.875 4.347656 -0.519531 4.015625 -0.28125 C 3.691406 -0.0390625 3.257812 0.078125 2.71875 0.078125 Z M 2.71875 0.078125 "/></g></g><g transform="translate(82.675832, 42.785073)"><g><path d="M 0.640625 0 L 0.640625 -4.96875 L 2.640625 -4.96875 C 3.160156 -4.96875 3.550781 -4.847656 3.8125 -4.609375 C 4.070312 -4.378906 4.203125 -4.054688 4.203125 -3.640625 C 4.203125 -3.335938 4.125 -3.085938 3.96875 -2.890625 C 3.820312 -2.703125 3.59375 -2.554688 3.28125 -2.453125 L 3.28125 -2.375 C 3.4375 -2.3125 3.5625 -2.210938 3.65625 -2.078125 C 3.757812 -1.941406 3.851562 -1.742188 3.9375 -1.484375 L 4.4375 0 L 3.421875 0 L 2.9375 -1.484375 C 2.882812 -1.640625 2.828125 -1.753906 2.765625 -1.828125 C 2.703125 -1.910156 2.625 -1.972656 2.53125 -2.015625 C 2.4375 -2.054688 2.3125 -2.078125 2.15625 -2.078125 L 1.625 -2.078125 L 1.625 0 Z M 2.53125 -2.84375 C 3 -2.84375 3.234375 -3.066406 3.234375 -3.515625 C 3.234375 -3.972656 3 -4.203125 2.53125 -4.203125 L 1.625 -4.203125 L 1.625 -2.84375 Z M 2.53125 -2.84375 "/></g></g><g transform="translate(87.324345, 42.785073)"><g><path d="M 1.625 -2.1875 L 1.625 -0.828125 L 4 -0.828125 L 4 0 L 0.640625 0 L 0.640625 -4.96875 L 3.953125 -4.96875 L 3.953125 -4.15625 L 1.625 -4.15625 L 1.625 -2.984375 L 3.65625 -2.984375 L 3.65625 -2.1875 Z M 1.625 -2.1875 "/></g></g><g transform="translate(91.5988, 42.785073)"><g><path d="M 4.78125 0 L 3.734375 0 L 3.359375 -1.140625 L 1.453125 -1.140625 L 1.078125 0 L 0.078125 0 L 1.796875 -4.96875 L 3.0625 -4.96875 Z M 2.359375 -3.9375 L 1.71875 -1.96875 L 3.09375 -1.96875 L 2.453125 -3.9375 Z M 2.359375 -3.9375 "/></g></g></g><g fill="#000000" fill-opacity="1"><g transform="translate(96.002476, 42.785073)"><g><path d="M 3.984375 -4.96875 L 3.984375 -4.140625 L 2.546875 -4.140625 L 2.546875 0 L 1.578125 0 L 1.578125 -4.140625 L 0.140625 -4.140625 L 0.140625 -4.96875 Z M 3.984375 -4.96875 "/></g></g><g transform="translate(100.123908, 42.785073)"><g><path d="M 1.625 -2.1875 L 1.625 -0.828125 L 4 -0.828125 L 4 0 L 0.640625 0 L 0.640625 -4.96875 L 3.953125 -4.96875 L 3.953125 -4.15625 L 1.625 -4.15625 L 1.625 -2.984375 L 3.65625 -2.984375 L 3.65625 -2.1875 Z M 1.625 -2.1875 "/></g></g></g><g fill="#000000" fill-opacity="1"><g transform="translate(104.51058, 42.785073)"><g><path d="M 0.953125 0.03125 C 0.835938 0.03125 0.734375 0.0078125 0.640625 -0.03125 C 0.546875 -0.0820312 0.472656 -0.148438 0.421875 -0.234375 C 0.378906 -0.328125 0.359375 -0.425781 0.359375 -0.53125 C 0.359375 -0.644531 0.378906 -0.742188 0.421875 -0.828125 C 0.472656 -0.910156 0.546875 -0.976562 0.640625 -1.03125 C 0.734375 -1.082031 0.835938 -1.109375 0.953125 -1.109375 C 1.078125 -1.109375 1.1875 -1.082031 1.28125 -1.03125 C 1.375 -0.988281 1.441406 -0.921875 1.484375 -0.828125 C 1.535156 -0.742188 1.5625 -0.648438 1.5625 -0.546875 C 1.5625 -0.378906 1.503906 -0.238281 1.390625 -0.125 C 1.285156 -0.0195312 1.140625 0.03125 0.953125 0.03125 Z M 0.953125 0.03125 "/></g></g><g transform="translate(106.431875, 42.785073)"><g/></g><g transform="translate(108.074327, 42.785073)"><g><path d="M 2.203125 0.078125 C 1.859375 0.078125 1.550781 0.0351562 1.28125 -0.046875 C 1.007812 -0.140625 0.785156 -0.253906 0.609375 -0.390625 C 0.429688 -0.523438 0.296875 -0.675781 0.203125 -0.84375 L 0.734375 -1.5 L 0.828125 -1.5 C 0.972656 -1.28125 1.160156 -1.101562 1.390625 -0.96875 C 1.628906 -0.84375 1.898438 -0.78125 2.203125 -0.78125 C 2.460938 -0.78125 2.660156 -0.832031 2.796875 -0.9375 C 2.929688 -1.050781 3 -1.207031 3 -1.40625 C 3 -1.519531 2.976562 -1.617188 2.9375 -1.703125 C 2.894531 -1.785156 2.820312 -1.851562 2.71875 -1.90625 C 2.625 -1.957031 2.488281 -2.003906 2.3125 -2.046875 L 1.671875 -2.203125 C 1.222656 -2.296875 0.890625 -2.460938 0.671875 -2.703125 C 0.453125 -2.941406 0.34375 -3.25 0.34375 -3.625 C 0.34375 -3.90625 0.410156 -4.148438 0.546875 -4.359375 C 0.691406 -4.578125 0.898438 -4.742188 1.171875 -4.859375 C 1.441406 -4.984375 1.765625 -5.046875 2.140625 -5.046875 C 2.523438 -5.046875 2.851562 -4.992188 3.125 -4.890625 C 3.394531 -4.796875 3.625 -4.644531 3.8125 -4.4375 L 3.328125 -3.765625 L 3.25 -3.765625 C 3.101562 -3.910156 2.9375 -4.019531 2.75 -4.09375 C 2.570312 -4.164062 2.367188 -4.203125 2.140625 -4.203125 C 1.867188 -4.203125 1.660156 -4.15625 1.515625 -4.0625 C 1.378906 -3.96875 1.3125 -3.835938 1.3125 -3.671875 C 1.3125 -3.515625 1.359375 -3.390625 1.453125 -3.296875 C 1.554688 -3.203125 1.726562 -3.128906 1.96875 -3.078125 L 2.625 -2.9375 C 3.113281 -2.832031 3.460938 -2.660156 3.671875 -2.421875 C 3.890625 -2.179688 4 -1.863281 4 -1.46875 C 4 -1.15625 3.929688 -0.882812 3.796875 -0.65625 C 3.671875 -0.425781 3.472656 -0.242188 3.203125 -0.109375 C 2.929688 0.015625 2.597656 0.078125 2.203125 0.078125 Z M 2.203125 0.078125 "/></g></g><g transform="translate(112.345381, 42.785073)"><g><path d="M 3.859375 -3.109375 L 3.859375 -4.96875 L 4.84375 -4.96875 L 4.84375 0 L 3.859375 0 L 3.859375 -2.265625 L 1.625 -2.265625 L 1.625 0 L 0.640625 0 L 0.640625 -4.96875 L 1.625 -4.96875 L 1.625 -3.109375 Z M 3.859375 -3.109375 "/></g></g><g transform="translate(117.830423, 42.785073)"><g><path d="M 1.625 0 L 0.640625 0 L 0.640625 -4.96875 L 1.625 -4.96875 Z M 1.625 0 "/></g></g><g transform="translate(120.108772, 42.785073)"><g><path d="M 1.59375 0 L 0.640625 0 L 0.640625 -4.96875 L 1.765625 -4.96875 L 3.765625 -1.765625 L 3.859375 -1.78125 L 3.859375 -4.96875 L 4.796875 -4.96875 L 4.796875 0 L 3.796875 0 L 1.6875 -3.421875 L 1.59375 -3.40625 Z M 1.59375 0 "/></g></g><g transform="translate(125.559808, 42.785073)"><g><path d="M 1.625 -2.1875 L 1.625 -0.828125 L 4 -0.828125 L 4 0 L 0.640625 0 L 0.640625 -4.96875 L 3.953125 -4.96875 L 3.953125 -4.15625 L 1.625 -4.15625 L 1.625 -2.984375 L 3.65625 -2.984375 L 3.65625 -2.1875 Z M 1.625 -2.1875 "/></g></g></g><g fill="#000000" fill-opacity="1"><g transform="translate(129.94648, 42.785073)"><g><path d="M 0.953125 0.03125 C 0.835938 0.03125 0.734375 0.0078125 0.640625 -0.03125 C 0.546875 -0.0820312 0.472656 -0.148438 0.421875 -0.234375 C 0.378906 -0.328125 0.359375 -0.425781 0.359375 -0.53125 C 0.359375 -0.644531 0.378906 -0.742188 0.421875 -0.828125 C 0.472656 -0.910156 0.546875 -0.976562 0.640625 -1.03125 C 0.734375 -1.082031 0.835938 -1.109375 0.953125 -1.109375 C 1.078125 -1.109375 1.1875 -1.082031 1.28125 -1.03125 C 1.375 -0.988281 1.441406 -0.921875 1.484375 -0.828125 C 1.535156 -0.742188 1.5625 -0.648438 1.5625 -0.546875 C 1.5625 -0.378906 1.503906 -0.238281 1.390625 -0.125 C 1.285156 -0.0195312 1.140625 0.03125 0.953125 0.03125 Z M 0.953125 0.03125 "/></g></g><g transform="translate(131.867775, 42.785073)"><g/></g><g transform="translate(133.510227, 42.785073)"><g><path d="M 0.640625 0 L 0.640625 -4.96875 L 2.640625 -4.96875 C 3.160156 -4.96875 3.550781 -4.847656 3.8125 -4.609375 C 4.070312 -4.378906 4.203125 -4.054688 4.203125 -3.640625 C 4.203125 -3.335938 4.125 -3.085938 3.96875 -2.890625 C 3.820312 -2.703125 3.59375 -2.554688 3.28125 -2.453125 L 3.28125 -2.375 C 3.4375 -2.3125 3.5625 -2.210938 3.65625 -2.078125 C 3.757812 -1.941406 3.851562 -1.742188 3.9375 -1.484375 L 4.4375 0 L 3.421875 0 L 2.9375 -1.484375 C 2.882812 -1.640625 2.828125 -1.753906 2.765625 -1.828125 C 2.703125 -1.910156 2.625 -1.972656 2.53125 -2.015625 C 2.4375 -2.054688 2.3125 -2.078125 2.15625 -2.078125 L 1.625 -2.078125 L 1.625 0 Z M 2.53125 -2.84375 C 3 -2.84375 3.234375 -3.066406 3.234375 -3.515625 C 3.234375 -3.972656 3 -4.203125 2.53125 -4.203125 L 1.625 -4.203125 L 1.625 -2.84375 Z M 2.53125 -2.84375 "/></g></g><g transform="translate(138.158739, 42.785073)"><g><path d="M 1.625 -2.1875 L 1.625 -0.828125 L 4 -0.828125 L 4 0 L 0.640625 0 L 0.640625 -4.96875 L 3.953125 -4.96875 L 3.953125 -4.15625 L 1.625 -4.15625 L 1.625 -2.984375 L 3.65625 -2.984375 L 3.65625 -2.1875 Z M 1.625 -2.1875 "/></g></g><g transform="translate(142.433195, 42.785073)"><g><path d="M 2.5625 -4.96875 C 2.925781 -4.96875 3.234375 -4.898438 3.484375 -4.765625 C 3.734375 -4.640625 3.921875 -4.457031 4.046875 -4.21875 C 4.179688 -3.988281 4.25 -3.71875 4.25 -3.40625 C 4.25 -3.101562 4.179688 -2.832031 4.046875 -2.59375 C 3.921875 -2.363281 3.734375 -2.179688 3.484375 -2.046875 C 3.234375 -1.921875 2.925781 -1.859375 2.5625 -1.859375 L 1.625 -1.859375 L 1.625 0 L 0.640625 0 L 0.640625 -4.96875 Z M 2.4375 -2.640625 C 2.988281 -2.640625 3.265625 -2.894531 3.265625 -3.40625 C 3.265625 -3.9375 2.988281 -4.203125 2.4375 -4.203125 L 1.625 -4.203125 L 1.625 -2.640625 Z M 2.4375 -2.640625 "/></g></g><g transform="translate(146.976291, 42.785073)"><g><path d="M 1.625 -2.1875 L 1.625 -0.828125 L 4 -0.828125 L 4 0 L 0.640625 0 L 0.640625 -4.96875 L 3.953125 -4.96875 L 3.953125 -4.15625 L 1.625 -4.15625 L 1.625 -2.984375 L 3.65625 -2.984375 L 3.65625 -2.1875 Z M 1.625 -2.1875 "/></g></g><g transform="translate(151.250747, 42.785073)"><g><path d="M 4.78125 0 L 3.734375 0 L 3.359375 -1.140625 L 1.453125 -1.140625 L 1.078125 0 L 0.078125 0 L 1.796875 -4.96875 L 3.0625 -4.96875 Z M 2.359375 -3.9375 L 1.71875 -1.96875 L 3.09375 -1.96875 L 2.453125 -3.9375 Z M 2.359375 -3.9375 "/></g></g></g><g fill="#000000" fill-opacity="1"><g transform="translate(155.654422, 42.785073)"><g><path d="M 3.984375 -4.96875 L 3.984375 -4.140625 L 2.546875 -4.140625 L 2.546875 0 L 1.578125 0 L 1.578125 -4.140625 L 0.140625 -4.140625 L 0.140625 -4.96875 Z M 3.984375 -4.96875 "/></g></g></g><g fill="#000000" fill-opacity="1"><g transform="translate(159.150158, 42.785073)"><g><path d="M 0.953125 0.03125 C 0.835938 0.03125 0.734375 0.0078125 0.640625 -0.03125 C 0.546875 -0.0820312 0.472656 -0.148438 0.421875 -0.234375 C 0.378906 -0.328125 0.359375 -0.425781 0.359375 -0.53125 C 0.359375 -0.644531 0.378906 -0.742188 0.421875 -0.828125 C 0.472656 -0.910156 0.546875 -0.976562 0.640625 -1.03125 C 0.734375 -1.082031 0.835938 -1.109375 0.953125 -1.109375 C 1.078125 -1.109375 1.1875 -1.082031 1.28125 -1.03125 C 1.375 -0.988281 1.441406 -0.921875 1.484375 -0.828125 C 1.535156 -0.742188 1.5625 -0.648438 1.5625 -0.546875 C 1.5625 -0.378906 1.503906 -0.238281 1.390625 -0.125 C 1.285156 -0.0195312 1.140625 0.03125 0.953125 0.03125 Z M 0.953125 0.03125 "/></g></g></g><g fill="#000000" fill-opacity="1"><g transform="translate(161.07372, 42.785073)"><g/></g></g></svg>