<svg xmlns="http://www.w3.org/2000/svg" xmlns:xlink="http://www.w3.org/1999/xlink" width="380" zoomAndPan="magnify" viewBox="0 0 285 67.499998" height="90" preserveAspectRatio="xMidYMid meet" version="1.0"><defs><g/><clipPath id="b702c7e0e0"><path d="M 104 5.160156 L 113 5.160156 L 113 25 L 104 25 Z M 104 5.160156 " clip-rule="nonzero"/></clipPath><clipPath id="67432e345d"><path d="M 99 5.160156 L 107 5.160156 L 107 28.238281 L 99 28.238281 Z M 99 5.160156 " clip-rule="nonzero"/></clipPath><clipPath id="e2315fe3c9"><path d="M 95.304688 11 L 100 11 L 100 25 L 95.304688 25 Z M 95.304688 11 " clip-rule="nonzero"/></clipPath></defs><g clip-path="url(#b702c7e0e0)"><path fill="#f15107" d="M 112.617188 15.714844 C 113.351562 14.992188 111.714844 14.214844 110.644531 13.316406 C 109.730469 12.546875 109.222656 12.09375 109.214844 11.515625 C 109.167969 8.4375 107.757812 6.695312 106.371094 5.867188 C 106.429688 5.984375 106.488281 6.105469 106.535156 6.234375 C 107.183594 7.964844 106.539062 10.085938 104.609375 12.535156 C 104.664062 13.15625 104.726562 13.832031 104.796875 14.554688 C 106.132812 14.597656 107.375 15.089844 108.308594 15.960938 C 109.320312 16.902344 109.875 18.195312 109.875 19.601562 C 109.875 21.585938 108.769531 23.320312 107.140625 24.214844 C 108.230469 24.492188 108.925781 24.832031 109.554688 24.714844 C 110.980469 24.453125 110.753906 23.214844 110.652344 22.542969 C 110.550781 21.875 110.9375 21.34375 111.582031 21.011719 C 112.226562 20.683594 112.160156 19.976562 111.734375 19.800781 C 111.3125 19.625 110.539062 19.394531 110.84375 19.003906 C 111.171875 18.589844 112.105469 18.460938 112.238281 18.003906 C 112.371094 17.546875 111.375 17.324219 111.472656 16.914062 C 111.59375 16.402344 112.160156 16.167969 112.617188 15.714844 Z M 112.617188 15.714844 " fill-opacity="1" fill-rule="nonzero"/></g><path fill="#f15107" d="M 107.867188 16.4375 C 107.011719 15.640625 105.855469 15.199219 104.613281 15.199219 C 103.457031 15.199219 101.632812 16.234375 101.214844 18.179688 C 101.753906 17.0625 102.910156 15.847656 104.613281 15.847656 C 106.875 15.847656 108.578125 17.460938 108.578125 19.601562 C 108.578125 21.789062 106.800781 23.566406 104.613281 23.566406 L 104.613281 24.214844 C 107.15625 24.214844 109.226562 22.144531 109.226562 19.601562 C 109.226562 18.378906 108.746094 17.253906 107.867188 16.4375 Z M 107.867188 16.4375 " fill-opacity="1" fill-rule="nonzero"/><g clip-path="url(#67432e345d)"><path fill="#f15107" d="M 103.941406 12.332031 C 105.839844 9.988281 106.507812 8.011719 105.925781 6.460938 C 105.621094 5.640625 104.949219 5.160156 104.261719 5.265625 C 103.691406 5.351562 103.054688 5.875 102.992188 7.070312 C 102.953125 7.777344 103.046875 9.46875 103.273438 12.125 C 103.078125 12.359375 102.882812 12.59375 102.691406 12.820312 C 100.960938 14.878906 99.324219 16.820312 99.324219 19.390625 C 99.324219 21.1875 100.65625 23.996094 104.195312 24.203125 C 104.097656 26.390625 103.65625 27.070312 103.472656 27.257812 C 103.183594 27.546875 102.710938 27.546875 102.421875 27.257812 C 102.28125 27.117188 102.203125 26.929688 102.203125 26.730469 C 102.203125 26.09375 102.839844 25.332031 103.929688 25.75 C 103.667969 25.484375 103.316406 25.339844 102.945312 25.339844 C 102.574219 25.339844 102.226562 25.484375 101.960938 25.75 C 101.699219 26.011719 101.554688 26.359375 101.554688 26.730469 C 101.554688 27.105469 101.699219 27.453125 101.960938 27.714844 C 102.234375 27.988281 102.589844 28.121094 102.945312 28.121094 C 103.300781 28.121094 103.660156 27.984375 103.933594 27.714844 C 104.835938 26.792969 105.089844 23.898438 104.640625 19.566406 C 104.34375 16.667969 104.109375 14.253906 103.941406 12.332031 Z M 103.636719 7.105469 C 103.683594 6.296875 104.039062 5.957031 104.359375 5.90625 C 104.390625 5.902344 104.417969 5.898438 104.449219 5.898438 C 104.796875 5.898438 105.140625 6.203125 105.320312 6.6875 C 105.773438 7.898438 105.28125 9.472656 103.863281 11.378906 C 103.679688 9.15625 103.605469 7.726562 103.636719 7.105469 Z M 104.210938 23.554688 C 101.132812 23.359375 99.972656 20.9375 99.972656 19.390625 C 99.972656 17.058594 101.535156 15.203125 103.1875 13.238281 C 103.242188 13.171875 103.296875 13.105469 103.355469 13.039062 C 103.515625 14.855469 103.730469 17.054688 103.996094 19.632812 C 104.164062 21.257812 104.222656 22.539062 104.210938 23.554688 Z M 104.210938 23.554688 " fill-opacity="1" fill-rule="nonzero"/></g><path fill="#f15107" d="M 101.539062 11.875 C 99.972656 14 98.714844 16.015625 98.292969 18.003906 C 97.871094 20.007812 98.46875 22.238281 99.4375 23.527344 C 97.671875 22.058594 97.292969 19.433594 97.691406 17.71875 C 98.179688 15.636719 99.695312 13.386719 101.539062 11.875 Z M 101.539062 11.875 " fill-opacity="1" fill-rule="nonzero"/><g clip-path="url(#e2315fe3c9)"><path fill="#f15107" d="M 99.871094 11.167969 C 98.183594 13.5625 96.800781 15.828125 96.390625 18.066406 C 95.941406 20.5 96.992188 23.078125 98.0625 24.515625 C 96.003906 22.972656 95.308594 19.679688 95.730469 17.753906 C 96.246094 15.414062 97.875 12.875 99.871094 11.167969 Z M 99.871094 11.167969 " fill-opacity="1" fill-rule="nonzero"/></g><g fill="#ffffff" fill-opacity="1"><g transform="translate(10.241977, 22.692151)"><g><path d="M 3.359375 0 L 3.359375 -7.359375 L 0.40625 -7.359375 L 0.40625 -9.34375 L 8.453125 -9.34375 L 8.453125 -7.359375 L 5.484375 -7.359375 L 5.484375 0 Z M 3.359375 0 "/></g></g></g><g fill="#ffffff" fill-opacity="1"><g transform="translate(18.530224, 22.692151)"><g><path d="M 3.796875 0.1875 C 2.890625 0.1875 2.175781 -0.0976562 1.65625 -0.671875 C 1.132812 -1.242188 0.875 -2.015625 0.875 -2.984375 L 0.875 -7 L 2.90625 -7 L 2.90625 -3.1875 C 2.90625 -2.675781 3.023438 -2.273438 3.265625 -1.984375 C 3.515625 -1.703125 3.851562 -1.5625 4.28125 -1.5625 C 4.75 -1.5625 5.117188 -1.71875 5.390625 -2.03125 C 5.660156 -2.351562 5.796875 -2.789062 5.796875 -3.34375 L 5.796875 -7 L 7.828125 -7 L 7.828125 0 L 6.328125 0 L 6.109375 -0.78125 C 5.835938 -0.457031 5.5 -0.210938 5.09375 -0.046875 C 4.695312 0.109375 4.265625 0.1875 3.796875 0.1875 Z M 3.796875 0.1875 "/></g></g></g><g fill="#ffffff" fill-opacity="1"><g transform="translate(26.81847, 22.692151)"><g><path d="M 1.015625 0 L 1.015625 -7 L 2.515625 -7 L 2.734375 -6.21875 C 3.015625 -6.550781 3.359375 -6.796875 3.765625 -6.953125 C 4.171875 -7.109375 4.609375 -7.1875 5.078125 -7.1875 C 5.984375 -7.1875 6.695312 -6.898438 7.21875 -6.328125 C 7.738281 -5.765625 8 -5 8 -4.03125 L 8 0 L 5.984375 0 L 5.984375 -3.8125 C 5.984375 -4.332031 5.859375 -4.734375 5.609375 -5.015625 C 5.367188 -5.304688 5.03125 -5.453125 4.59375 -5.453125 C 4.125 -5.453125 3.75 -5.289062 3.46875 -4.96875 C 3.1875 -4.65625 3.046875 -4.222656 3.046875 -3.671875 L 3.046875 0 Z M 1.015625 0 "/></g></g></g><g fill="#ffffff" fill-opacity="1"><g transform="translate(35.146755, 22.692151)"><g><path d="M 4.328125 0.1875 C 3.578125 0.1875 2.914062 0.03125 2.34375 -0.28125 C 1.769531 -0.59375 1.320312 -1.023438 1 -1.578125 C 0.675781 -2.140625 0.515625 -2.785156 0.515625 -3.515625 C 0.515625 -4.242188 0.675781 -4.882812 1 -5.4375 C 1.332031 -5.988281 1.785156 -6.414062 2.359375 -6.71875 C 2.929688 -7.03125 3.59375 -7.1875 4.34375 -7.1875 C 5.144531 -7.1875 5.835938 -7.007812 6.421875 -6.65625 C 7.003906 -6.300781 7.445312 -5.800781 7.75 -5.15625 C 8.0625 -4.519531 8.195312 -3.773438 8.15625 -2.921875 L 2.53125 -2.921875 C 2.632812 -2.441406 2.847656 -2.070312 3.171875 -1.8125 C 3.503906 -1.5625 3.898438 -1.4375 4.359375 -1.4375 C 4.703125 -1.4375 5.015625 -1.5 5.296875 -1.625 C 5.578125 -1.757812 5.800781 -1.941406 5.96875 -2.171875 L 8.015625 -2.171875 C 7.710938 -1.429688 7.238281 -0.851562 6.59375 -0.4375 C 5.945312 -0.0195312 5.191406 0.1875 4.328125 0.1875 Z M 2.546875 -4.203125 L 6.1875 -4.203125 C 6.070312 -4.628906 5.859375 -4.960938 5.546875 -5.203125 C 5.234375 -5.453125 4.835938 -5.578125 4.359375 -5.578125 C 3.921875 -5.578125 3.535156 -5.453125 3.203125 -5.203125 C 2.878906 -4.960938 2.660156 -4.628906 2.546875 -4.203125 Z M 2.546875 -4.203125 "/></g></g></g><g fill="#ffffff" fill-opacity="1"><g transform="translate(43.248146, 22.692151)"><g><path d="M 5.40625 0.1875 C 4.457031 0.1875 3.617188 -0.015625 2.890625 -0.421875 C 2.160156 -0.835938 1.59375 -1.410156 1.1875 -2.140625 C 0.78125 -2.878906 0.578125 -3.722656 0.578125 -4.671875 C 0.578125 -5.617188 0.78125 -6.457031 1.1875 -7.1875 C 1.59375 -7.914062 2.15625 -8.488281 2.875 -8.90625 C 3.601562 -9.320312 4.441406 -9.53125 5.390625 -9.53125 C 6.179688 -9.53125 6.90625 -9.378906 7.5625 -9.078125 C 8.21875 -8.773438 8.769531 -8.347656 9.21875 -7.796875 C 9.675781 -7.242188 9.992188 -6.59375 10.171875 -5.84375 L 7.984375 -5.84375 C 7.804688 -6.363281 7.488281 -6.769531 7.03125 -7.0625 C 6.582031 -7.363281 6.054688 -7.515625 5.453125 -7.515625 C 4.929688 -7.515625 4.460938 -7.394531 4.046875 -7.15625 C 3.628906 -6.914062 3.304688 -6.582031 3.078125 -6.15625 C 2.847656 -5.726562 2.734375 -5.234375 2.734375 -4.671875 C 2.734375 -4.109375 2.847656 -3.613281 3.078125 -3.1875 C 3.304688 -2.757812 3.625 -2.425781 4.03125 -2.1875 C 4.445312 -1.945312 4.914062 -1.828125 5.4375 -1.828125 C 6.050781 -1.828125 6.585938 -1.984375 7.046875 -2.296875 C 7.515625 -2.617188 7.847656 -3.046875 8.046875 -3.578125 L 10.234375 -3.578125 C 10.085938 -2.816406 9.785156 -2.15625 9.328125 -1.59375 C 8.867188 -1.03125 8.300781 -0.59375 7.625 -0.28125 C 6.957031 0.03125 6.21875 0.1875 5.40625 0.1875 Z M 5.40625 0.1875 "/></g></g></g><g fill="#ffffff" fill-opacity="1"><g transform="translate(53.458335, 22.692151)"><g><path d="M 1.015625 0 L 1.015625 -7 L 2.515625 -7 L 2.78125 -6.078125 C 3.019531 -6.398438 3.304688 -6.632812 3.640625 -6.78125 C 3.984375 -6.925781 4.410156 -7 4.921875 -7 L 5.6875 -7 L 5.6875 -5.15625 L 4.90625 -5.15625 C 4.332031 -5.15625 3.878906 -5 3.546875 -4.6875 C 3.210938 -4.382812 3.046875 -3.851562 3.046875 -3.09375 L 3.046875 0 Z M 1.015625 0 "/></g></g></g><g fill="#ffffff" fill-opacity="1"><g transform="translate(59.037178, 22.692151)"><g><path d="M 4.328125 0.1875 C 3.578125 0.1875 2.914062 0.03125 2.34375 -0.28125 C 1.769531 -0.59375 1.320312 -1.023438 1 -1.578125 C 0.675781 -2.140625 0.515625 -2.785156 0.515625 -3.515625 C 0.515625 -4.242188 0.675781 -4.882812 1 -5.4375 C 1.332031 -5.988281 1.785156 -6.414062 2.359375 -6.71875 C 2.929688 -7.03125 3.59375 -7.1875 4.34375 -7.1875 C 5.144531 -7.1875 5.835938 -7.007812 6.421875 -6.65625 C 7.003906 -6.300781 7.445312 -5.800781 7.75 -5.15625 C 8.0625 -4.519531 8.195312 -3.773438 8.15625 -2.921875 L 2.53125 -2.921875 C 2.632812 -2.441406 2.847656 -2.070312 3.171875 -1.8125 C 3.503906 -1.5625 3.898438 -1.4375 4.359375 -1.4375 C 4.703125 -1.4375 5.015625 -1.5 5.296875 -1.625 C 5.578125 -1.757812 5.800781 -1.941406 5.96875 -2.171875 L 8.015625 -2.171875 C 7.710938 -1.429688 7.238281 -0.851562 6.59375 -0.4375 C 5.945312 -0.0195312 5.191406 0.1875 4.328125 0.1875 Z M 2.546875 -4.203125 L 6.1875 -4.203125 C 6.070312 -4.628906 5.859375 -4.960938 5.546875 -5.203125 C 5.234375 -5.453125 4.835938 -5.578125 4.359375 -5.578125 C 3.921875 -5.578125 3.535156 -5.453125 3.203125 -5.203125 C 2.878906 -4.960938 2.660156 -4.628906 2.546875 -4.203125 Z M 2.546875 -4.203125 "/></g></g></g><g fill="#ffffff" fill-opacity="1"><g transform="translate(67.138569, 22.692151)"><g><path d="M 2.703125 0 L 0.125 -7 L 2.265625 -7 L 3.078125 -4.6875 L 3.78125 -2.71875 L 4.5 -4.6875 L 5.359375 -7 L 7 -7 L 7.875 -4.6875 L 8.59375 -2.703125 L 9.28125 -4.6875 L 10.109375 -7 L 12.25 -7 L 9.65625 0 L 7.78125 0 L 6.1875 -4.265625 L 4.59375 0 Z M 2.703125 0 "/></g></g></g><g fill="#ffffff" fill-opacity="1"><g transform="translate(78.950379, 22.692151)"><g/></g></g><g fill="#ffffff" fill-opacity="1"><g transform="translate(81.526181, 22.692151)"><g><path d="M 0.125 0 L 3.828125 -9.34375 L 5.90625 -9.34375 L 9.625 0 L 7.359375 0 L 6.71875 -1.609375 L 3.015625 -1.609375 L 2.390625 0 Z M 3.5625 -3.28125 L 6.1875 -3.28125 L 4.875 -6.703125 Z M 3.5625 -3.28125 "/></g></g></g><g fill="#ffffff" fill-opacity="1"><g transform="translate(90.708665, 22.692151)"><g><path d="M 1.125 0 L 1.125 -9.34375 L 3.25 -9.34375 L 3.25 0 Z M 1.125 0 "/></g></g></g></svg>