<?xml version="1.0" encoding="utf-8"?>
<svg xmlns="http://www.w3.org/2000/svg" xmlns:xlink="http://www.w3.org/1999/xlink" width="1344"
	height="213" viewBox="200 200 700 300">
	<path fill="#341163"
		d="M752.035 360.32C753.122 360.279 754.278 360.203 755.36 360.327C757.419 360.565 759.431 361.562 760.709 363.228C761.802 364.652 762.161 366.432 761.829 368.186C761.213 371.429 759.174 372.909 756.637 374.642C755.566 374.739 754.423 374.872 753.348 374.798C751.238 374.653 749.284 373.647 748.01 371.937C746.768 370.269 746.441 368.328 746.915 366.318C747.635 363.261 749.579 361.923 752.035 360.32Z" />
	<path fill="#341163"
		d="M584.749 360.361C586.154 360.323 587.701 360.225 589.086 360.484C591.113 360.863 593.075 362.277 594.104 364.059C595.02 365.644 595.133 367.482 594.599 369.217C593.697 372.149 591.724 373.386 589.234 374.812C588.293 374.83 587.286 374.87 586.349 374.741C584.099 374.43 581.932 373.287 580.644 371.373C579.646 369.89 579.385 368.053 579.766 366.32C580.43 363.301 582.358 361.972 584.749 360.361Z" />
	<path fill="#341163"
		d="M580.393 380.774L593.777 380.713C594.359 396.833 593.942 413.115 593.889 429.252L580.464 429.309Q580.731 405.041 580.393 380.774Z" />
	<path fill="#341163"
		d="M747.58 380.754L761.047 380.77C761.36 396.918 761.096 413.103 761.057 429.254L747.648 429.273L747.58 380.754Z" />
	<path fill="#341163"
		d="M1053.73 362.665C1058.19 361.819 1063.36 362.258 1067.92 362.273C1068.34 363.007 1068.7 363.777 1068.8 364.624C1069.75 372.963 1068.84 382.49 1068.89 390.927C1068.94 402.366 1070.1 415.571 1068.84 426.844C1068.74 427.732 1068.39 428.371 1067.83 429.045C1063.57 429.707 1058.6 429.252 1054.26 429.233C1054.51 428.885 1054.59 428.814 1054.74 428.344C1055.89 424.62 1055.34 365.92 1053.73 362.665Z" />
	<path fill="#341163"
		d="M557.12 358.714L570.594 358.508Q570.314 393.871 570.58 429.234C566.131 429.147 561.666 429.361 557.218 429.488C556.601 405.945 557.204 382.276 557.12 358.714Z" />
	<path fill="#341163"
		d="M905.728 359.381C910.144 358.677 915.178 359.056 919.665 359.036C920.055 359.676 920.331 360.292 920.48 361.035C921.485 366.027 921.142 419.051 920.557 426.049C920.464 427.152 920.138 428.004 919.567 428.951C915.187 429.464 910.372 429.063 905.951 429.011C906.252 428.43 906.515 427.87 906.673 427.23C907.714 423.024 907.22 369.442 906.702 362.335C906.621 361.211 906.299 360.351 905.728 359.381Z" />
	<path fill="#7B1B96"
		d="M288.987 415.574Q287.357 411.437 286.019 407.197Q284.68 402.957 283.638 398.635Q282.596 394.312 281.857 389.928Q281.118 385.543 280.684 381.118C279.044 362.543 282.654 343.715 295.031 329.21Q295.921 328.169 296.861 327.172Q297.802 326.175 298.789 325.226Q299.777 324.276 300.81 323.376Q301.842 322.476 302.918 321.627Q303.993 320.779 305.109 319.983Q306.224 319.188 307.378 318.449Q308.531 317.709 309.719 317.026Q310.906 316.344 312.126 315.72Q313.346 315.096 314.594 314.533Q315.843 313.969 317.118 313.468Q318.393 312.966 319.69 312.527Q320.988 312.088 322.306 311.713Q323.623 311.338 324.957 311.027Q326.292 310.717 327.64 310.472Q328.987 310.227 330.346 310.049Q331.704 309.87 333.069 309.758C348.716 308.555 364.303 312.629 376.385 322.95C376.379 323.089 376.372 323.227 376.368 323.366C376.324 324.873 376.725 325.105 377.055 326.356C377.108 326.556 377.048 326.769 377.045 326.976L375.469 327.732L376.395 327.369C375.733 326.424 374.761 324.511 373.919 323.835C370.383 320.995 354.898 317.992 350.08 317.15C344.839 316.233 333.25 314.78 328.673 317.453L328.476 318.245C330.502 320.75 345.3 337.228 345.327 338.387C345.33 338.523 345.273 338.654 345.245 338.788C337.273 334.331 332.809 322.655 324.361 318.844C322.297 318.952 322.154 319.277 320.561 320.653C313.401 320.475 308.798 322.789 303.602 327.777C295.926 335.146 291.898 343.226 289.028 353.379C285.411 361.51 286.295 372.435 286.144 381.221L285.799 380.461C286.136 389.931 292.372 407.358 288.987 415.574Z" />
	<defs>
		<linearGradient id="gradient_0" gradientUnits="userSpaceOnUse" x1="402.95612" y1="298.00339"
			x2="407.61227" y2="255.80055">
			<stop offset="0" stop-color="#55137D" />
			<stop offset="1" stop-color="#9A22A9" />
		</linearGradient>
	</defs>
	<path fill="url(#gradient_0)"
		d="M437.836 251.716C437.085 254.278 436.505 256.948 434.91 259.134C434.284 260.367 433.702 261.92 432.906 263.029C431.629 265.75 429.389 272.155 426.997 273.814C426.098 275.573 425.151 277.305 423.993 278.909C415.529 290.642 401.558 297.015 387.638 299.318Q387.866 296.91 388.292 294.53Q388.718 292.149 389.339 289.812Q389.96 287.474 390.771 285.196Q391.583 282.918 392.58 280.715C396.65 271.915 404.009 263.09 413.366 259.619C420.747 255.126 429.531 253.69 437.836 251.716Z" />
	<path fill="#7B1B96"
		d="M437.836 251.716C437.085 254.278 436.505 256.948 434.91 259.134L433.969 257.584C429.437 257.892 423.936 265.302 420.748 268.667C420.914 267.724 420.847 267.733 420.356 266.897C417.655 267.626 415.674 269.813 413.034 270.85L412.282 270.145C412.25 269.772 412.234 269.711 412.255 269.293C412.511 264.209 418.528 261.089 421.74 257.917C419.796 257.533 416.318 259.314 414.007 259.556L413.366 259.619C420.747 255.126 429.531 253.69 437.836 251.716Z" />
	<path fill="#A41BB4"
		d="M421.99 260.803C423.469 261.045 423.818 261.054 425.014 262.041C424.037 263.893 421.968 264.754 420.218 265.88L418.624 266.027L418.237 265.217C419.173 263.326 420.455 262.184 421.99 260.803Z" />
	<path fill="#7B1B96"
		d="M420.748 268.667C423.936 265.302 429.437 257.892 433.969 257.584L434.91 259.134C434.284 260.367 433.702 261.92 432.906 263.029C431.629 265.75 429.389 272.155 426.997 273.814C419.144 276.689 416.954 283.81 406.931 287.015C410.228 283.103 413.062 275.45 416.949 272.861L420.748 268.667Z" />
	<path fill="#A41BB4"
		d="M420.748 268.667C423.936 265.302 429.437 257.892 433.969 257.584L434.91 259.134C434.284 260.367 433.702 261.92 432.906 263.029C429.643 264.633 427.791 268.198 425.748 271.093C423.44 272.228 420.696 273.989 418.076 273.859L416.949 272.861L420.748 268.667Z" />
	<path fill="#341163"
		d="M945.349 379.732C950.261 379.097 954.894 379.007 959.507 381.026C964.695 383.295 968.575 387.536 970.545 392.833C972.163 397.183 972.818 405.15 970.859 409.457C965.837 408.641 947.938 408.042 943.651 409.404C941.818 409.987 941.471 410.382 940.585 411.958C940.652 412.533 940.698 413.062 940.956 413.59C941.998 415.719 945.076 417.402 947.202 418.256C953.144 420.644 960.408 420.006 966.249 417.593C967.149 418.292 967.388 418.424 967.797 419.48C968.676 421.753 969.787 425.156 968.801 427.459C960.8 430.887 950.469 431.984 942.203 428.951Q941.674 428.762 941.156 428.546Q940.637 428.331 940.13 428.089Q939.623 427.847 939.129 427.579Q938.635 427.312 938.156 427.02Q937.676 426.727 937.212 426.411Q936.748 426.094 936.301 425.755Q935.854 425.415 935.424 425.053Q934.995 424.691 934.585 424.307Q934.174 423.924 933.784 423.52Q933.394 423.116 933.025 422.692Q932.656 422.269 932.309 421.827Q931.962 421.385 931.638 420.926Q931.314 420.468 931.014 419.993Q930.714 419.518 930.438 419.028Q930.163 418.539 929.912 418.036Q929.662 417.533 929.438 417.018C926.439 410.225 926.434 401.643 929.219 394.783C932.338 387.098 937.886 382.825 945.349 379.732ZM947.244 389.578C944.773 391.359 941.672 393.352 941.094 396.57C941.768 397.936 942.192 398.579 943.813 399.005C945.95 399.565 949.174 399.15 951.398 399.113C954.215 399.175 955.989 399.585 958.481 398.207C959.13 396.837 959.669 396.071 959.012 394.536C958.155 392.532 954.624 389.712 952.508 389.237C950.905 388.878 948.84 389.295 947.244 389.578Z" />
	<path fill="#341163"
		d="M529.004 361.269C532.569 360.915 537.324 361.185 540.847 361.834C542.703 362.176 544.369 363.011 545.353 364.687C547.169 367.781 545.111 372.148 544.135 375.294C539.578 374.038 534.71 372.613 529.95 372.883C527.088 373.046 523.7 373.717 521.822 376.062C520.828 377.304 520.222 378.953 520.49 380.555C521.385 385.902 537.66 391.5 542.219 395.273C546.285 398.638 549.893 403.449 550.296 408.878C550.679 414.038 547.908 419.107 544.6 422.874C539.251 428.965 531.632 429.958 524.001 430.448C517.391 429.927 511.941 429.102 505.833 426.358L508.35 414.174C512.926 416.023 517.906 418.41 522.882 418.74C526.414 418.974 530.784 418.37 533.464 415.857C535.005 414.412 535.737 412.828 535.837 410.74C533.912 403.153 520.82 400.063 514.91 395.757C511.032 392.932 507.693 388.921 506.983 384.037C506.234 378.891 508.264 373.134 511.443 369.107C515.877 363.491 522.253 362.027 529.004 361.269Z" />
	<path fill="#341163"
		d="M720.403 361.292C725.095 361.296 732.467 361.528 736.362 364.297C737.695 367.089 735.741 371.859 734.833 374.743C731.715 375.805 724.484 373.252 720.768 373.021C718.124 372.856 714.602 373.033 712.608 375.014C711.292 376.323 710.781 378.394 710.925 380.207C711.476 387.097 728.417 391.275 733.624 395.656C737.328 398.773 739.632 402.858 739.972 407.718C740.33 412.854 739.064 418.372 735.528 422.242C729.616 428.712 721.386 430.147 713.022 430.56C706.71 430.333 701.736 429.276 696.022 426.418C696.542 422.342 697.241 418.395 698.139 414.386C703.438 416.495 709.326 419.239 715.135 418.938C718.091 418.785 722.244 417.703 724.176 415.312C725.292 413.931 725.772 412.092 725.567 410.334C724.75 403.332 709.44 399.111 704.265 394.996C700.572 392.06 697.148 387.951 696.703 383.077C696.249 378.105 698.666 372.358 701.886 368.649C706.738 363.059 713.39 361.768 720.403 361.292Z" />
	<path fill="#341163"
		d="M1008.34 362.665C1014.41 361.73 1020.89 362.183 1027.02 362.238C1027.91 363.196 1028.52 364.381 1028.92 365.618C1031.32 373.024 1033.2 380.617 1035.51 388.056C1038.51 397.674 1047.27 420.902 1047.74 429.189C1042.62 429.604 1037.15 429.23 1031.99 429.245C1032.05 429.076 1032.12 428.909 1032.17 428.736C1033.05 425.925 1028.67 414.691 1027.23 411.896C1022.94 409.788 1012.38 411.316 1007.59 411.655C1007.71 411.98 1007.92 412.468 1007.97 412.838C1008.42 416.11 1005.28 426.814 1003.13 429.265L988.638 429.315C988.869 429.068 989.201 428.744 989.397 428.447C991.477 425.284 1006.72 372.657 1008.33 365.772C1008.61 364.582 1008.62 363.854 1008.34 362.665ZM1017.4 374.479C1016.63 380.458 1013.64 396.078 1010.1 400.415L1018.34 400.612C1020.66 400.608 1023.08 400.823 1025.27 399.954C1024.53 395.915 1022.87 392.172 1021.84 388.21C1020.72 383.895 1020.34 379.315 1018.71 375.157L1017.4 374.479Z" />
	<path fill="#341163"
		d="M626.839 379.546C628.752 379.404 630.658 379.282 632.567 379.537C637.814 380.24 640.465 383.403 643.527 387.406L644.158 386.714C647.887 382.668 651.809 379.608 657.527 379.453C661.694 379.339 665.589 380.347 668.614 383.337C676.628 391.258 674.003 418.044 673.981 429.124C669.555 429.157 665.126 429.257 660.708 428.922C660.926 420.512 663.148 399.449 657.994 393.306C656.844 391.935 655.362 391.201 653.573 391.124C651.592 391.039 649.615 391.729 648.2 393.134C643.104 398.19 645.272 417.135 645.321 424.638C645.388 426.375 645.621 427.144 644.649 428.701C641.072 430.126 636.41 429.334 632.557 429.256C632.115 420.764 634.67 400.868 630.675 394.198C629.567 392.348 627.313 390.616 625.116 390.384C623.514 390.215 622.18 390.881 621.108 392.036C615.575 397.999 617.55 420.66 617.543 429.19L604.275 429.222C603.78 412.943 603.965 396.518 604.044 380.227L614.787 380.43L615.704 387.063C619.133 383.916 622.605 381.502 626.839 379.546Z" />
	<path fill="#341163"
		d="M809.82 387.601C814.179 384.925 816.272 381.828 821.508 380.242C825.47 379.043 830.19 378.841 833.887 380.966C837.752 383.187 839.886 387.887 840.918 392.036C842.316 397.654 843.446 424.991 840.911 429.249L827.525 429.3C830.08 425.346 829.324 405.868 828.524 400.605C828.054 397.514 827.047 393.031 824.232 391.212C822.917 390.362 821.495 390.35 820.037 390.817C806.457 395.166 817.052 415.127 812.166 424.106C812.102 424.223 812.028 424.334 811.96 424.448C812.686 425.619 812.96 426.399 813.137 427.769L812.266 428.812C808.103 430.013 802.997 429.33 798.63 429.413C800.478 426.256 800.27 400.798 799.102 395.98C798.659 394.155 797.542 392.548 795.847 391.69C794.296 390.905 792.425 390.87 790.797 391.433C778.974 395.524 788.889 420.096 784.533 428.912C784.478 429.022 784.415 429.128 784.355 429.236L770.513 429.24C770.866 428.669 771.173 428.071 771.346 427.419C772.426 423.358 771.601 383.324 770.079 380.476C773.426 380.306 777.977 379.61 781.198 380.465C783.454 381.064 782.92 384.062 783.831 386.01C787.257 384.192 789.735 381.514 793.412 380.01L794.114 379.729C798.402 379.295 802.917 379.413 806.521 382.166C808.255 383.491 809.553 385.431 809.82 387.601Z" />
	<path fill="#341163"
		d="M874.991 379.731C880.226 379.255 884.444 379.237 889.124 381.92C894.252 384.86 897.566 390.062 898.985 395.712C900.961 403.582 900.041 413.12 895.835 420.143C892.988 424.897 888.672 428.393 883.221 429.651C876.164 431.28 870.657 428.887 864.796 425.297C865.05 425.813 865.279 426.348 865.41 426.91C866.226 430.385 866.406 439.027 864.502 442.114C864.782 442.636 865.06 443.165 865.274 443.719C865.963 445.501 865.873 447.471 865.087 449.192L851.448 449.293C851.581 449.04 851.856 448.561 851.948 448.254C852.9 445.097 851.952 393.972 851.551 387.732C851.386 385.161 851.345 382.696 850.24 380.32C854.433 380.167 858.645 380.248 862.84 380.249C864.252 381.707 863.229 384.205 864.96 385.432L864.478 385.65C864.772 385.734 873.473 380.324 874.991 379.731ZM875.088 390.891C872.162 391.563 869.375 392.544 867.636 395.183C864.362 400.148 867.107 406.704 864.894 411.68C865.004 411.779 865.116 411.877 865.225 411.978C868.219 414.742 869.284 418.812 874.039 418.828C874.294 418.829 874.549 418.81 874.804 418.8C878.027 418.428 880.239 417.894 882.371 415.225C885.262 411.609 886.054 406.349 885.481 401.864C885.002 398.118 883.459 394.441 880.312 392.177C878.668 390.994 877.022 390.94 875.088 390.891Z" />
	<path fill="#A41BB4"
		d="M310.334 231.573Q311.795 231.68 313.253 231.822C331.44 233.603 352.621 236.501 365.035 251.566C375.812 263.564 376.438 280.123 378.144 295.352C367.717 294.603 355.973 293.445 346.483 288.678C342.253 286.878 338.3 284.17 334.792 281.23C319.449 268.295 317.294 249.181 310.334 231.573Z" />
	<path fill="#7B1C95"
		d="M365.035 251.566C375.812 263.564 376.438 280.123 378.144 295.352C367.717 294.603 355.973 293.445 346.483 288.678C342.253 286.878 338.3 284.17 334.792 281.23C340.829 281.59 346.501 283.591 352.45 284.435C356.244 284.972 360.797 284.18 364.277 285.66C364.813 285.888 365.341 286.103 365.871 286.346L366.326 286.11C361.764 283.739 358.579 279.47 355.198 275.7C356.355 276.669 357.211 277.23 358.68 277.609L360.439 276.444C363.59 283.694 364.751 281.149 369.51 285.688C371.609 287.691 372.198 289.973 372.219 292.784L372.219 293.518L373.896 293.907L374.13 293.256C375.358 292.519 375.742 291.646 376.379 290.395C375.485 288.328 375.646 285.97 375.44 283.748C374.694 275.699 372.354 267.513 369.102 260.127C367.883 257.36 366.158 255.054 365.215 252.135L365.035 251.566Z" />
	<path fill="#7B1C95"
		d="M400.918 315.313C414.395 308.431 431.261 307.159 445.665 311.829C452.601 314.078 459.494 317.862 464.811 322.897C458.236 329.24 452.931 336.663 446.606 343.191C439.406 343.229 431.654 343.863 424.533 342.853Q424.248 340.036 424.033 337.213C422.372 335.809 420.999 334.513 418.785 334.099C416.792 334.341 414.896 334.98 413.514 336.528C411.273 339.041 412.923 341.553 412.402 344.217C411.929 346.641 390.975 369.596 387.776 373.284C385.851 372.208 383.911 370.894 381.668 370.702C381.145 372.494 380.644 374.154 379.376 375.584C378.583 376.478 377.359 377.246 376.146 377.285C371.611 377.434 363.41 366.129 359.949 362.833C349.782 352.579 339.773 341.616 328.875 332.157C327.151 329.078 322.598 325.618 320.122 322.925L320.561 320.653C322.154 319.277 322.297 318.952 324.361 318.844C332.809 322.655 337.273 334.331 345.245 338.788C345.273 338.654 345.33 338.523 345.327 338.387C345.3 337.228 330.502 320.75 328.476 318.245L328.673 317.453C333.25 314.78 344.839 316.233 350.08 317.15C354.898 317.992 370.383 320.995 373.919 323.835C374.761 324.511 375.733 326.424 376.395 327.369L375.469 327.732L377.045 326.976C377.048 326.769 377.108 326.556 377.055 326.356C376.725 325.105 376.324 324.873 376.368 323.366C376.372 323.227 376.379 323.089 376.385 322.95C378.483 325.154 381.028 327.393 382.732 329.903C388.164 324.089 393.888 319.1 400.918 315.313Z" />
	<path fill="#341163"
		d="M400.918 315.313C414.395 308.431 431.261 307.159 445.665 311.829C452.601 314.078 459.494 317.862 464.811 322.897C458.236 329.24 452.931 336.663 446.606 343.191C439.406 343.229 431.654 343.863 424.533 342.853Q424.248 340.036 424.033 337.213C424.277 337.168 424.52 337.115 424.766 337.078C426.565 336.809 429.094 337.37 430.53 338.476C430.983 338.824 430.855 339.495 430.908 340.041C429.401 340.672 427.617 338.042 425.791 337.583L425.21 338.961C425.401 339.818 425.343 340.398 426.066 340.977C427.701 342.286 442.962 341.935 445.849 341.759C451.045 337.367 454.155 331.012 459.33 326.594C459.993 326.028 461.296 325.127 461.764 324.462C461.963 324.179 462.086 323.311 462.19 322.942C461.967 322.297 461.69 321.671 461.248 321.14C457.969 317.203 447.547 314.005 442.702 313.286L442.559 313.741C445.163 314.817 447.735 315.85 450.162 317.293C437.111 312.976 425.422 312.792 411.864 313.285L412.369 313.178C408.154 313.175 404.967 315.989 400.918 315.313Z" />
	<path fill="#7B1B96"
		d="M400.918 315.313C404.967 315.989 408.154 313.175 412.369 313.178L411.864 313.285C425.422 312.792 437.111 312.976 450.162 317.293L451.194 318.708L450.534 319.371C447.974 319.036 445.454 318.217 442.913 318.004C430.477 316.962 412.711 318.692 401.407 324.078C395.95 326.677 390.36 334.633 383.696 331.164L382.732 329.903C388.164 324.089 393.888 319.1 400.918 315.313Z" />
	<path fill="#FCFBFD"
		d="M320.561 320.653C322.154 319.277 322.297 318.952 324.361 318.844C332.809 322.655 337.273 334.331 345.245 338.788C350.615 344.88 367.207 363.783 373.694 366.509L374.212 366.474C375.628 366.387 376.782 366.399 378.17 366.679C379.564 367.955 380.628 369.104 381.668 370.702C381.145 372.494 380.644 374.154 379.376 375.584C378.583 376.478 377.359 377.246 376.146 377.285C371.611 377.434 363.41 366.129 359.949 362.833C349.782 352.579 339.773 341.616 328.875 332.157C327.151 329.078 322.598 325.618 320.122 322.925L320.561 320.653Z" />
	<defs>
		<linearGradient id="gradient_1" gradientUnits="userSpaceOnUse" x1="348.91342" y1="415.17279"
			x2="279.39133" y2="364.00134">
			<stop offset="0" stop-color="#4E1876" />
			<stop offset="1" stop-color="#AC21B8" />
		</linearGradient>
	</defs>
	<path fill="url(#gradient_1)"
		d="M289.028 353.379C291.898 343.226 295.926 335.146 303.602 327.777C308.798 322.789 313.401 320.475 320.561 320.653L320.122 322.925C322.598 325.618 327.151 329.078 328.875 332.157C339.773 341.616 349.782 352.579 359.949 362.833C363.41 366.129 371.611 377.434 376.146 377.285C377.359 377.246 378.583 376.478 379.376 375.584C380.644 374.154 381.145 372.494 381.668 370.702C383.911 370.894 385.851 372.208 387.776 373.284C382.35 379.735 352.564 416.775 348.386 419.562C345.666 423.465 342.397 426.961 339.253 430.523L325.234 430.421C319.481 437.196 312.927 444.045 308.112 451.519C299.873 441.308 293.309 427.937 288.987 415.574C292.372 407.358 286.136 389.931 285.799 380.461L286.144 381.221C286.295 372.435 285.411 361.51 289.028 353.379Z" />
	<path fill="#7B1B96"
		d="M302.44 364.028C306.417 360.995 318.097 359.569 323.072 360.197C324.569 360.387 326.019 360.829 327.438 361.329L324.36 362.42C329.095 363.514 335.7 360.424 341.35 361.959C337.395 363.138 333.17 361.413 329.758 364.262C320.764 364.474 311.405 364.851 302.44 364.028Z" />
	<path fill="#FCFBFD"
		d="M296.078 386.008C306.56 385.555 317.204 385.963 327.703 385.955C335.061 385.95 343.233 385.145 350.489 386.311C351.6 387.831 351.232 389.977 351.195 391.788L316.788 391.865C310.267 391.896 303.36 392.388 296.893 391.592C295.813 389.714 296.101 388.153 296.078 386.008Z" />
	<path fill="#A41BB4"
		d="M289.028 353.379C291.898 343.226 295.926 335.146 303.602 327.777C308.798 322.789 313.401 320.475 320.561 320.653L320.122 322.925C322.598 325.618 327.151 329.078 328.875 332.157C330.076 335.694 333.987 337.912 334.864 341.335C334.246 342.075 334.152 342.059 333.205 342.298L337.601 342.943C338.901 344.505 339.356 345.582 339.685 347.585L339.075 349.01C333.535 350.398 320.672 348.906 313.982 349.27C311.673 349.396 308.05 350.787 306.015 350.16L304.513 350.175C303.583 352.121 304.574 353.99 304.619 356.158C303.055 358.884 294.385 361.098 291.338 362.176C289.707 358.831 294.065 348.033 294.999 344.02C292.403 346.857 291.849 350.831 289.028 353.379Z" />
	<path fill="#BE1CC5"
		d="M297.994 340.575C299.677 341.807 300.141 342.156 300.524 344.33C300.688 345.266 300.573 346.391 300.532 347.341L299.989 347.972L299.616 347.642C297.855 346.711 297.39 346.476 296.317 344.827C296.347 342.908 296.815 342.064 297.994 340.575Z" />
	<path fill="#FCFBFD"
		d="M306.015 350.16C305.473 349.417 304.622 348.427 304.326 347.557C303.759 345.895 304.236 345.158 304.972 343.725C308.335 341.517 331.886 343.152 337.601 342.943C338.901 344.505 339.356 345.582 339.685 347.585L339.075 349.01C333.535 350.398 320.672 348.906 313.982 349.27C311.673 349.396 308.05 350.787 306.015 350.16Z" />
	<path fill="#FCFBFD"
		d="M348.057 370.901C337.513 370.895 311.781 369.043 303.211 371.564C301.703 372.008 300.188 372.231 298.638 372.471C298.003 372.139 297.257 371.781 296.732 371.29C295.384 370.029 295.328 368.906 295.11 367.197C295.559 365.651 296.147 364.542 297.639 363.777C299.153 363 300.431 363.312 301.959 363.849C302.121 363.906 302.28 363.969 302.44 364.028C311.405 364.851 320.764 364.474 329.758 364.262Q340.248 364.428 350.739 364.364L354.514 368.394C356.045 366.25 357.389 363.818 359.949 362.833C363.41 366.129 371.611 377.434 376.146 377.285C377.359 377.246 378.583 376.478 379.376 375.584C380.644 374.154 381.145 372.494 381.668 370.702C383.911 370.894 385.851 372.208 387.776 373.284C382.35 379.735 352.564 416.775 348.386 419.562C346.819 419.984 346.294 421.06 344.998 421.831C344.92 421.878 344.092 422.272 343.862 422.239C342.903 422.098 341.523 420.177 340.507 419.865C338.43 419.227 334.016 419.681 331.754 419.753C328.775 419.848 325.555 419.899 322.675 420.702C318.494 421.868 315.862 423.621 311.238 423.337C310.955 423.32 310.625 423.291 310.346 423.239C308.835 422.958 307.687 422.544 306.831 421.256L307.865 420.634C306.799 420.209 305.382 419.769 304.452 419.1C303.095 418.123 302.136 416.331 302.133 414.632C302.13 412.893 302.733 411.592 304.08 410.492C307.978 407.306 332.996 409.248 339.091 409.566C345.947 400.911 353.359 391.802 361.152 383.991C356.945 379.46 352.509 375.186 348.057 370.901Z" />
	<defs>
		<linearGradient id="gradient_2" gradientUnits="userSpaceOnUse" x1="356.63647" y1="414.6438"
			x2="334.7327" y2="376.99426">
			<stop offset="0" stop-color="#2E125F" />
			<stop offset="1" stop-color="#691A8C" />
		</linearGradient>
	</defs>
	<path fill="url(#gradient_2)"
		d="M359.949 362.833C363.41 366.129 371.611 377.434 376.146 377.285C377.359 377.246 378.583 376.478 379.376 375.584C380.644 374.154 381.145 372.494 381.668 370.702C383.911 370.894 385.851 372.208 387.776 373.284C382.35 379.735 352.564 416.775 348.386 419.562C346.819 419.984 346.294 421.06 344.998 421.831C344.92 421.878 344.092 422.272 343.862 422.239C342.903 422.098 341.523 420.177 340.507 419.865C338.43 419.227 334.016 419.681 331.754 419.753C328.775 419.848 325.555 419.899 322.675 420.702C318.494 421.868 315.862 423.621 311.238 423.337C310.955 423.32 310.625 423.291 310.346 423.239C308.835 422.958 307.687 422.544 306.831 421.256L307.865 420.634C310.764 419.304 312.142 417.924 313.909 415.355C323.073 415.346 332.232 415.279 341.387 415.73C351.442 406.223 360.438 393.874 369.904 383.572Q361.956 376.24 354.514 368.394C356.045 366.25 357.389 363.818 359.949 362.833Z" />
	<path fill="#341163"
		d="M464.811 322.897C466.469 323.992 467.919 324.988 469.25 326.496C482.328 340.698 486.947 358.099 486.213 377.097Q486.032 381.036 485.706 384.966Q485.278 387.866 484.811 390.759C476.626 423.059 456.687 465.358 426.965 483.215C420.237 487.257 413.104 488.874 405.434 486.834C399.219 485.18 393.208 481.87 386.673 481.844L381.266 481.794C378.57 482.191 375.73 482.402 373.099 483.085C365.808 484.977 358.472 488.629 350.768 487.611C335.156 485.546 320.415 468.1 311.304 456.428L308.112 451.519C312.927 444.045 319.481 437.196 325.234 430.421L339.253 430.523C342.397 426.961 345.666 423.465 348.386 419.562C352.564 416.775 382.35 379.735 387.776 373.284C390.975 369.596 411.929 346.641 412.402 344.217C412.923 341.553 411.273 339.041 413.514 336.528C414.896 334.98 416.792 334.341 418.785 334.099C420.999 334.513 422.372 335.809 424.033 337.213Q424.248 340.036 424.533 342.853C431.654 343.863 439.406 343.229 446.606 343.191C452.931 336.663 458.236 329.24 464.811 322.897Z" />
	<path fill="#FCFBFD"
		d="M350.008 430.327C351.584 430.425 352.857 430.387 354.183 431.343C356.947 435.936 355.308 446.534 355.474 452.067C352.982 455.036 350.259 457.87 347.657 460.746C347.77 464.113 348.228 467.458 346.614 470.534C344.512 470.468 343.723 470.563 341.92 469.36C340.435 466.303 341.195 461.821 341.279 458.431L349.393 449.665C349.204 443.332 349.032 436.587 350.008 430.327Z" />
	<path fill="#FCFBFD"
		d="M381.03 427.482C382.576 425.963 384.489 424.745 384.474 422.357C384.463 420.529 384.087 419.052 385.46 417.548C386.792 416.089 388.692 414.894 390.734 414.996C392.111 415.064 393.415 415.775 394.295 416.825C395.375 418.115 396.387 420.226 396.28 421.934C396.187 423.426 395.302 424.485 394.076 425.258C392.665 426.148 388.023 426.913 387.513 428.33C385.313 434.448 386.808 472.112 386.673 481.844L381.266 481.794C381.154 463.72 381.569 445.537 381.03 427.482Z" />
	<path fill="#FCFBFD"
		d="M418.074 422.655C418.706 422.59 419.338 422.528 419.974 422.514C425.069 422.403 425.129 426.932 428.036 429.741C433.196 430.448 439.018 430.885 444.187 430.139C446.618 429.788 449.147 428.538 451.59 428.595Q451.828 428.598 452.064 428.627Q452.301 428.656 452.533 428.709Q452.765 428.763 452.99 428.841Q453.215 428.919 453.43 429.021Q453.645 429.122 453.849 429.246Q454.052 429.37 454.241 429.515Q454.43 429.66 454.603 429.824Q454.775 429.988 454.929 430.17C456.292 431.777 456.523 434.212 456.248 436.224C455.923 438.601 454.916 440.378 452.998 441.852C451.969 442.117 451.308 442.413 450.249 442.149C447.375 441.435 445.465 439.141 444.11 436.656L443.765 436.012C436.808 436.033 429.789 436.258 422.867 435.465C421.567 440.134 422.603 447.62 422.636 452.604C424.344 454.031 426.671 455.675 427.53 457.795C428.284 459.659 428.698 462.619 427.824 464.481C427.254 465.693 426.829 465.682 425.644 466.073C422.202 465.255 419.483 457.64 416.468 454.144C416.839 448.088 416.878 441.988 417.043 435.922C415.192 433.956 413.038 431.925 413.22 428.98C413.398 426.102 416.029 424.304 418.074 422.655Z" />
	<path fill="#FCFBFD"
		d="M485.706 384.966Q485.278 387.866 484.811 390.759C462.599 391.277 440.312 390.864 418.092 390.8C414.382 394.636 404.438 409.34 399.841 410.64C398.86 410.917 398.688 410.581 397.828 410.151C397.388 409.278 396.993 408.417 396.988 407.419C396.983 406.17 397.308 404.766 397.927 403.68C399.138 401.553 412.669 387.622 415.402 384.872C438.831 384.512 462.274 385.139 485.706 384.966Z" />
	<path fill="#FCFBFD"
		d="M461.436 406.232C463.212 406.522 464.552 407.033 465.717 408.481C466.632 409.619 466.879 411.108 466.728 412.531C466.498 414.711 465.6 415.549 463.968 416.736C461.914 417.088 460.783 416.708 458.946 415.771C454.345 413.422 422.543 414.712 415.154 414.706C411.556 418.272 408.188 421.983 404.85 425.791L404.82 458.225C406.364 459.824 407.318 460.92 407.987 463.093C407.975 465.402 406.746 466.83 405.45 468.603C404.812 468.88 404.144 469.063 403.466 469.216C401.682 469.62 399.719 469.686 398.16 468.604C397.107 467.873 396.498 466.561 396.344 465.3C395.934 461.931 397.341 460.005 399.365 457.586L399.37 422.472C402.988 417.616 407.728 412.997 412.089 408.769Q423.693 408.245 435.304 408.608C442.04 408.758 450.15 409.695 456.758 408.354C458.422 408.017 459.984 407.078 461.436 406.232Z" />
	<path fill="#FCFBFD"
		d="M460.242 359.53C461.553 359.613 462.958 359.946 464.062 360.696C465.616 361.752 465.886 362.607 466.369 364.298C466.099 365.822 465.706 366.948 464.619 368.097C464.159 368.584 462.799 369.6 462.109 369.669C458.707 370.011 454.097 368.865 450.525 368.754C439.831 368.419 429.046 368.707 418.343 368.745C411.085 376.262 404.457 384.663 397.672 392.62C388.465 403.419 379.044 414.118 370.173 425.193Q370.358 447.275 370.309 469.358C369.802 470.264 369.021 470.924 368.293 471.656C366.944 471.813 366.98 471.719 365.848 470.936C363.19 467.029 364.691 428.466 364.727 421.24C370.226 415.906 375.07 409.718 380.023 403.877C391.653 390.162 402.987 375.744 415.316 362.665C425.923 362.36 447.318 364.374 456.374 362.212C457.881 361.852 459.14 360.561 460.242 359.53Z" />
	<path fill="#FCFBFD"
		d="M464.811 322.897C466.469 323.992 467.919 324.988 469.25 326.496Q459.318 337.747 449.675 349.248C439.091 349.192 428.21 349.679 417.771 347.79L366.624 407.859C358.555 417.352 350.842 427.982 341.81 436.528L328.276 436.525C322.165 442.774 316.964 449.786 311.304 456.428L308.112 451.519C312.927 444.045 319.481 437.196 325.234 430.421L339.253 430.523C342.397 426.961 345.666 423.465 348.386 419.562C352.564 416.775 382.35 379.735 387.776 373.284C390.975 369.596 411.929 346.641 412.402 344.217C412.923 341.553 411.273 339.041 413.514 336.528C414.896 334.98 416.792 334.341 418.785 334.099C420.999 334.513 422.372 335.809 424.033 337.213Q424.248 340.036 424.533 342.853C431.654 343.863 439.406 343.229 446.606 343.191C452.931 336.663 458.236 329.24 464.811 322.897Z" />
</svg>