<svg xmlns="http://www.w3.org/2000/svg" xmlns:xlink="http://www.w3.org/1999/xlink" width="220" zoomAndPan="magnify" viewBox="0 0 165 48.75" height="65" preserveAspectRatio="xMidYMid meet" version="1.0"><defs><g/><clipPath id="b70b1bc824"><path d="M 0.421875 0 L 164.578125 0 L 164.578125 48.5 L 0.421875 48.5 Z M 0.421875 0 " clip-rule="nonzero"/></clipPath><clipPath id="1f29faa90b"><path d="M 5.269531 9 L 40.339844 9 L 40.339844 37.566406 L 5.269531 37.566406 Z M 5.269531 9 " clip-rule="nonzero"/></clipPath></defs><g clip-path="url(#b70b1bc824)"><path fill="#ffffff" d="M 0.421875 0 L 164.578125 0 L 164.578125 48.5 L 0.421875 48.5 Z M 0.421875 0 " fill-opacity="1" fill-rule="nonzero"/><path fill="#ffffff" d="M 0.421875 0 L 164.578125 0 L 164.578125 48.5 L 0.421875 48.5 Z M 0.421875 0 " fill-opacity="1" fill-rule="nonzero"/></g><g clip-path="url(#1f29faa90b)"><path fill="#e25c09" d="M 9.1875 25.910156 C 10.207031 25.910156 11.042969 26.746094 11.042969 27.765625 L 11.042969 35.445312 C 11.042969 36.46875 10.207031 37.304688 9.1875 37.304688 C 8.167969 37.304688 7.332031 36.46875 7.332031 35.445312 L 7.332031 27.765625 C 7.332031 27.714844 7.335938 27.671875 7.335938 27.621094 C 7.335938 27.460938 7.332031 27.300781 7.332031 27.140625 C 7.332031 3.988281 38.046875 3.988281 38.046875 27.140625 C 38.046875 27.300781 38.042969 27.460938 38.039062 27.621094 C 38.042969 27.671875 38.046875 27.714844 38.046875 27.765625 L 38.046875 35.445312 C 38.046875 36.46875 37.210938 37.304688 36.191406 37.304688 C 35.171875 37.304688 34.335938 36.46875 34.335938 35.445312 L 34.335938 27.765625 C 34.335938 26.746094 35.171875 25.910156 36.191406 25.910156 C 36.304688 25.910156 36.417969 25.921875 36.527344 25.941406 C 32.980469 11.230469 12.417969 11.167969 8.851562 25.941406 C 8.957031 25.921875 9.074219 25.910156 9.1875 25.910156 Z M 22.6875 23.542969 L 22.734375 23.542969 L 22.746094 23.546875 L 22.773438 23.546875 L 22.785156 23.550781 L 22.800781 23.554688 L 22.816406 23.554688 L 22.839844 23.5625 L 22.855469 23.566406 L 22.890625 23.578125 L 22.90625 23.585938 L 22.929688 23.59375 L 22.941406 23.601562 L 22.953125 23.605469 L 22.964844 23.613281 L 22.976562 23.625 L 22.988281 23.628906 L 23.011719 23.644531 L 23.019531 23.652344 L 23.042969 23.667969 L 23.058594 23.683594 L 23.074219 23.691406 L 23.082031 23.707031 L 23.089844 23.714844 L 23.101562 23.722656 L 23.109375 23.734375 L 23.117188 23.742188 L 23.125 23.753906 L 23.132812 23.761719 L 23.140625 23.773438 L 23.152344 23.785156 L 23.15625 23.796875 L 23.160156 23.796875 L 23.164062 23.808594 L 23.179688 23.832031 L 23.183594 23.84375 L 23.191406 23.855469 L 23.195312 23.867188 L 23.199219 23.882812 L 23.207031 23.894531 L 23.222656 23.941406 L 23.226562 23.960938 L 23.226562 23.972656 L 23.230469 23.984375 L 23.238281 23.996094 L 23.238281 24.011719 L 23.242188 24.023438 L 23.242188 24.042969 L 23.246094 24.054688 L 23.246094 37.382812 L 23.242188 37.394531 L 23.242188 37.40625 L 23.238281 37.421875 L 23.238281 37.433594 L 23.230469 37.445312 L 23.226562 37.460938 L 23.226562 37.476562 L 23.21875 37.5 L 23.214844 37.515625 L 23.207031 37.539062 L 23.199219 37.554688 L 23.191406 37.578125 L 23.183594 37.589844 L 23.179688 37.601562 L 23.171875 37.613281 L 23.164062 37.621094 L 23.160156 37.636719 L 23.15625 37.636719 L 23.152344 37.648438 L 23.132812 37.667969 L 23.125 37.679688 L 23.117188 37.6875 L 23.109375 37.699219 L 23.101562 37.707031 L 23.089844 37.722656 L 23.074219 37.738281 L 23.058594 37.746094 L 23.050781 37.757812 L 23.042969 37.765625 L 23.019531 37.78125 L 23.011719 37.789062 L 23 37.792969 L 22.988281 37.804688 L 22.964844 37.820312 L 22.953125 37.824219 L 22.941406 37.832031 L 22.929688 37.835938 L 22.917969 37.84375 L 22.90625 37.847656 L 22.890625 37.851562 L 22.878906 37.855469 L 22.867188 37.863281 L 22.855469 37.867188 L 22.839844 37.871094 L 22.828125 37.871094 L 22.816406 37.875 L 22.800781 37.878906 L 22.785156 37.886719 L 22.773438 37.886719 L 22.761719 37.890625 L 22.734375 37.890625 L 22.714844 37.894531 L 22.664062 37.894531 L 22.648438 37.890625 L 22.617188 37.890625 L 22.605469 37.886719 L 22.59375 37.886719 L 22.578125 37.878906 L 22.566406 37.875 L 22.550781 37.871094 L 22.535156 37.871094 L 22.511719 37.863281 L 22.5 37.855469 L 22.488281 37.851562 L 22.472656 37.847656 L 22.460938 37.84375 L 22.449219 37.835938 L 22.4375 37.832031 L 22.425781 37.824219 L 22.414062 37.820312 L 22.390625 37.804688 L 22.378906 37.792969 L 22.367188 37.789062 L 22.359375 37.78125 L 22.335938 37.765625 L 22.316406 37.746094 L 22.304688 37.738281 L 22.289062 37.722656 L 22.285156 37.722656 L 22.277344 37.707031 L 22.269531 37.699219 L 22.261719 37.6875 L 22.253906 37.679688 L 22.246094 37.667969 L 22.238281 37.660156 L 22.230469 37.648438 L 22.21875 37.636719 L 22.214844 37.621094 L 22.207031 37.613281 L 22.199219 37.601562 L 22.195312 37.589844 L 22.1875 37.578125 L 22.179688 37.554688 L 22.171875 37.539062 L 22.164062 37.515625 L 22.160156 37.5 L 22.152344 37.476562 L 22.148438 37.460938 L 22.148438 37.445312 L 22.140625 37.433594 L 22.140625 37.421875 L 22.136719 37.40625 L 22.136719 37.394531 L 22.132812 37.382812 L 22.132812 24.054688 L 22.136719 24.042969 L 22.136719 24.023438 L 22.140625 24.011719 L 22.140625 23.996094 L 22.148438 23.984375 L 22.148438 23.972656 L 22.152344 23.960938 L 22.15625 23.941406 L 22.171875 23.894531 L 22.179688 23.882812 L 22.183594 23.867188 L 22.1875 23.855469 L 22.195312 23.84375 L 22.199219 23.832031 L 22.214844 23.808594 L 22.21875 23.796875 L 22.230469 23.785156 L 22.246094 23.761719 L 22.253906 23.753906 L 22.261719 23.742188 L 22.269531 23.734375 L 22.277344 23.722656 L 22.285156 23.714844 L 22.289062 23.714844 L 22.296875 23.707031 L 22.304688 23.691406 L 22.328125 23.675781 L 22.335938 23.667969 L 22.359375 23.652344 L 22.367188 23.644531 L 22.390625 23.628906 L 22.402344 23.625 L 22.414062 23.613281 L 22.425781 23.605469 L 22.4375 23.601562 L 22.449219 23.59375 L 22.472656 23.585938 L 22.488281 23.578125 L 22.535156 23.5625 L 22.566406 23.554688 L 22.578125 23.554688 L 22.59375 23.550781 L 22.605469 23.546875 L 22.632812 23.546875 L 22.648438 23.542969 Z M 13.554688 29.03125 C 13.246094 29.03125 12.996094 29.28125 12.996094 29.589844 L 12.996094 31.445312 C 12.996094 31.746094 13.246094 31.996094 13.554688 31.996094 C 13.859375 31.996094 14.109375 31.746094 14.109375 31.445312 L 14.109375 29.589844 C 14.109375 29.28125 13.859375 29.03125 13.554688 29.03125 Z M 31.824219 29.03125 C 32.128906 29.03125 32.375 29.28125 32.375 29.589844 L 32.375 31.445312 C 32.375 31.746094 32.128906 31.996094 31.824219 31.996094 C 31.515625 31.996094 31.269531 31.746094 31.269531 31.445312 L 31.269531 29.589844 C 31.269531 29.28125 31.515625 29.03125 31.824219 29.03125 Z M 15.417969 27.628906 C 15.117188 27.628906 14.867188 27.878906 14.867188 28.183594 L 14.867188 32.84375 C 14.867188 33.152344 15.117188 33.402344 15.417969 33.402344 C 15.726562 33.402344 15.976562 33.152344 15.976562 32.84375 L 15.976562 28.183594 C 15.976562 27.878906 15.726562 27.628906 15.417969 27.628906 Z M 29.957031 27.628906 C 30.261719 27.628906 30.511719 27.878906 30.511719 28.183594 L 30.511719 32.84375 C 30.511719 33.152344 30.261719 33.402344 29.957031 33.402344 C 29.652344 33.402344 29.402344 33.152344 29.402344 32.84375 L 29.402344 28.183594 C 29.402344 27.878906 29.652344 27.628906 29.957031 27.628906 Z M 17.625 24.621094 C 17.320312 24.621094 17.070312 24.871094 17.070312 25.175781 L 17.070312 36.253906 C 17.070312 36.5625 17.320312 36.8125 17.625 36.8125 C 17.929688 36.8125 18.179688 36.5625 18.179688 36.253906 L 18.179688 25.175781 C 18.179688 24.871094 17.929688 24.621094 17.625 24.621094 Z M 27.753906 24.621094 C 28.058594 24.621094 28.308594 24.871094 28.308594 25.175781 L 28.308594 36.253906 C 28.308594 36.5625 28.058594 36.8125 27.753906 36.8125 C 27.449219 36.8125 27.199219 36.5625 27.199219 36.253906 L 27.199219 25.175781 C 27.199219 24.871094 27.449219 24.621094 27.753906 24.621094 Z M 20.15625 25.585938 C 19.851562 25.585938 19.601562 25.835938 19.601562 26.140625 L 19.601562 35.292969 C 19.601562 35.597656 19.851562 35.847656 20.15625 35.847656 C 20.460938 35.847656 20.710938 35.597656 20.710938 35.292969 L 20.710938 26.140625 C 20.710938 25.835938 20.460938 25.585938 20.15625 25.585938 Z M 25.222656 25.585938 C 25.527344 25.585938 25.777344 25.835938 25.777344 26.140625 L 25.777344 35.292969 C 25.777344 35.597656 25.527344 35.847656 25.222656 35.847656 C 24.917969 35.847656 24.667969 35.597656 24.667969 35.292969 L 24.667969 26.140625 C 24.667969 25.835938 24.917969 25.585938 25.222656 25.585938 Z M 22.6875 37.894531 Z M 38.410156 35.140625 C 39.34375 35.140625 40.109375 34.492188 40.109375 33.703125 L 40.109375 28.695312 C 40.109375 27.90625 39.34375 27.261719 38.410156 27.261719 C 38.339844 27.261719 38.265625 27.261719 38.195312 27.269531 L 38.195312 35.128906 C 38.265625 35.136719 38.339844 35.140625 38.410156 35.140625 Z M 6.96875 35.140625 C 6.03125 35.140625 5.269531 34.492188 5.269531 33.703125 L 5.269531 28.695312 C 5.269531 27.90625 6.03125 27.261719 6.96875 27.261719 C 7.039062 27.261719 7.113281 27.261719 7.183594 27.269531 L 7.183594 35.128906 C 7.113281 35.136719 7.039062 35.140625 6.96875 35.140625 Z M 6.96875 35.140625 " fill-opacity="1" fill-rule="evenodd"/></g><g fill="#000000" fill-opacity="1"><g transform="translate(47.433913, 31.656355)"><g><path d="M 16.34375 0 L 2.25 0 L 2.25 -21.796875 L 16.34375 -21.796875 L 16.34375 -19.421875 L 4.890625 -19.421875 L 4.890625 -12.109375 L 15 -12.109375 L 15 -9.765625 L 4.890625 -9.765625 L 4.890625 -2.375 L 16.34375 -2.375 Z M 16.34375 0 "/></g></g></g><g fill="#000000" fill-opacity="1"><g transform="translate(63.37114, 31.656355)"><g><path d="M 3.25 -18.515625 C 2.738281 -18.515625 2.300781 -18.6875 1.9375 -19.03125 C 1.582031 -19.382812 1.40625 -19.8125 1.40625 -20.3125 C 1.40625 -20.800781 1.582031 -21.21875 1.9375 -21.5625 C 2.300781 -21.90625 2.738281 -22.078125 3.25 -22.078125 C 3.769531 -22.078125 4.207031 -21.90625 4.5625 -21.5625 C 4.925781 -21.21875 5.109375 -20.800781 5.109375 -20.3125 C 5.109375 -19.8125 4.925781 -19.382812 4.5625 -19.03125 C 4.207031 -18.6875 3.769531 -18.515625 3.25 -18.515625 Z M 4.453125 0 L 2.03125 0 L 2.03125 -15.796875 L 4.453125 -15.796875 Z M 4.453125 0 "/></g></g></g><g fill="#000000" fill-opacity="1"><g transform="translate(68.198007, 31.656355)"><g><path d="M 7.0625 0 L 5.71875 0 C 4.9375 0 4.265625 -0.109375 3.703125 -0.328125 C 3.140625 -0.546875 2.707031 -0.945312 2.40625 -1.53125 C 2.113281 -2.113281 1.96875 -2.925781 1.96875 -3.96875 L 1.96875 -21.796875 L 4.40625 -21.796875 L 4.40625 -4.34375 C 4.40625 -3.863281 4.4375 -3.460938 4.5 -3.140625 C 4.5625 -2.816406 4.722656 -2.566406 4.984375 -2.390625 C 5.253906 -2.222656 5.6875 -2.140625 6.28125 -2.140625 L 7.0625 -2.140625 Z M 7.0625 0 "/></g></g></g><g fill="#000000" fill-opacity="1"><g transform="translate(74.310132, 31.656355)"><g><path d="M 7.375 0.28125 C 5.164062 0.28125 3.613281 -0.546875 2.71875 -2.203125 C 2.21875 -3.128906 1.96875 -4.488281 1.96875 -6.28125 L 1.96875 -15.796875 L 4.40625 -15.796875 L 4.40625 -6.28125 C 4.40625 -4.601562 4.707031 -3.421875 5.3125 -2.734375 C 5.84375 -2.148438 6.648438 -1.859375 7.734375 -1.859375 C 8.941406 -1.859375 9.90625 -2.25 10.625 -3.03125 C 11.132812 -3.582031 11.5 -4.316406 11.71875 -5.234375 C 11.9375 -6.160156 12.046875 -7.429688 12.046875 -9.046875 L 12.046875 -15.796875 L 14.484375 -15.796875 L 14.484375 0 L 12.046875 0 L 12.046875 -2.453125 C 11.285156 -1.484375 10.539062 -0.785156 9.8125 -0.359375 C 9.082031 0.0664062 8.269531 0.28125 7.375 0.28125 Z M 7.375 0.28125 "/></g></g></g><g fill="#000000" fill-opacity="1"><g transform="translate(89.162028, 31.656355)"><g><path d="M 4.453125 0 L 2.03125 0 L 2.03125 -15.796875 L 4.453125 -15.796875 L 4.453125 -13.34375 C 5.253906 -14.363281 6.019531 -15.070312 6.75 -15.46875 C 7.488281 -15.875 8.285156 -16.078125 9.140625 -16.078125 C 10.148438 -16.078125 11.066406 -15.835938 11.890625 -15.359375 C 12.722656 -14.890625 13.265625 -14.160156 13.515625 -13.171875 C 14.097656 -14.304688 14.832031 -15.070312 15.71875 -15.46875 C 16.601562 -15.875 17.535156 -16.078125 18.515625 -16.078125 C 20.296875 -16.078125 21.613281 -15.566406 22.46875 -14.546875 C 23.332031 -13.535156 23.765625 -12.113281 23.765625 -10.28125 L 23.765625 0 L 21.34375 0 L 21.34375 -9.71875 C 21.34375 -11.082031 21.0625 -12.125 20.5 -12.84375 C 19.9375 -13.570312 19.148438 -13.9375 18.140625 -13.9375 C 17.566406 -13.9375 17.070312 -13.84375 16.65625 -13.65625 C 16.238281 -13.46875 15.875 -13.207031 15.5625 -12.875 C 15.007812 -12.289062 14.628906 -11.523438 14.421875 -10.578125 C 14.210938 -9.640625 14.109375 -8.492188 14.109375 -7.140625 L 14.109375 0 L 11.6875 0 L 11.6875 -9.71875 C 11.6875 -11.0625 11.390625 -12.097656 10.796875 -12.828125 C 10.203125 -13.566406 9.421875 -13.9375 8.453125 -13.9375 C 7.921875 -13.9375 7.441406 -13.835938 7.015625 -13.640625 C 6.585938 -13.441406 6.210938 -13.160156 5.890625 -12.796875 C 5.410156 -12.265625 5.050781 -11.5625 4.8125 -10.6875 C 4.570312 -9.820312 4.453125 -8.640625 4.453125 -7.140625 Z M 4.453125 0 "/></g></g></g><g fill="#000000" fill-opacity="1"><g transform="translate(113.182116, 31.656355)"><g><path d="M 3.25 -18.515625 C 2.738281 -18.515625 2.300781 -18.6875 1.9375 -19.03125 C 1.582031 -19.382812 1.40625 -19.8125 1.40625 -20.3125 C 1.40625 -20.800781 1.582031 -21.21875 1.9375 -21.5625 C 2.300781 -21.90625 2.738281 -22.078125 3.25 -22.078125 C 3.769531 -22.078125 4.207031 -21.90625 4.5625 -21.5625 C 4.925781 -21.21875 5.109375 -20.800781 5.109375 -20.3125 C 5.109375 -19.8125 4.925781 -19.382812 4.5625 -19.03125 C 4.207031 -18.6875 3.769531 -18.515625 3.25 -18.515625 Z M 4.453125 0 L 2.03125 0 L 2.03125 -15.796875 L 4.453125 -15.796875 Z M 4.453125 0 "/></g></g></g><g fill="#000000" fill-opacity="1"><g transform="translate(118.008983, 31.656355)"><g/></g></g><g fill="#000000" fill-opacity="1"><g transform="translate(124.349598, 31.656355)"><g><path d="M 3.0625 0 L 0.40625 0 L 8.421875 -21.796875 L 11.390625 -21.796875 L 19.421875 0 L 16.765625 0 L 14.859375 -5.34375 L 4.96875 -5.34375 Z M 9.90625 -19.109375 L 5.859375 -7.6875 L 13.96875 -7.6875 Z M 9.90625 -19.109375 "/></g></g></g><g fill="#000000" fill-opacity="1"><g transform="translate(142.514608, 31.656355)"><g><path d="M 4.890625 0 L 2.25 0 L 2.25 -21.796875 L 4.890625 -21.796875 Z M 4.890625 0 "/></g></g></g><g fill="#000000" fill-opacity="1"><g transform="translate(148.029057, 31.656355)"><g/></g></g><g fill="#000000" fill-opacity="1"><g transform="translate(46.84649, 42.026151)"><g><path d="M 2.71875 0.078125 C 2.257812 0.078125 1.851562 -0.015625 1.5 -0.203125 C 1.15625 -0.398438 0.882812 -0.6875 0.6875 -1.0625 C 0.488281 -1.445312 0.390625 -1.921875 0.390625 -2.484375 C 0.390625 -3.046875 0.488281 -3.515625 0.6875 -3.890625 C 0.882812 -4.273438 1.15625 -4.5625 1.5 -4.75 C 1.851562 -4.945312 2.257812 -5.046875 2.71875 -5.046875 C 3.195312 -5.046875 3.601562 -4.953125 3.9375 -4.765625 C 4.269531 -4.578125 4.507812 -4.289062 4.65625 -3.90625 L 3.9375 -3.46875 L 3.859375 -3.46875 C 3.742188 -3.726562 3.59375 -3.914062 3.40625 -4.03125 C 3.226562 -4.144531 3 -4.203125 2.71875 -4.203125 C 2.300781 -4.203125 1.976562 -4.0625 1.75 -3.78125 C 1.519531 -3.507812 1.40625 -3.078125 1.40625 -2.484375 C 1.40625 -1.890625 1.519531 -1.457031 1.75 -1.1875 C 1.976562 -0.914062 2.300781 -0.78125 2.71875 -0.78125 C 3.363281 -0.78125 3.757812 -1.09375 3.90625 -1.71875 L 3.984375 -1.71875 L 4.71875 -1.34375 C 4.582031 -0.875 4.347656 -0.519531 4.015625 -0.28125 C 3.691406 -0.0390625 3.257812 0.078125 2.71875 0.078125 Z M 2.71875 0.078125 "/></g></g><g transform="translate(51.722838, 42.026151)"><g><path d="M 0.640625 0 L 0.640625 -4.96875 L 2.640625 -4.96875 C 3.160156 -4.96875 3.550781 -4.847656 3.8125 -4.609375 C 4.070312 -4.378906 4.203125 -4.054688 4.203125 -3.640625 C 4.203125 -3.335938 4.125 -3.085938 3.96875 -2.890625 C 3.820312 -2.703125 3.59375 -2.554688 3.28125 -2.453125 L 3.28125 -2.375 C 3.4375 -2.3125 3.5625 -2.210938 3.65625 -2.078125 C 3.757812 -1.941406 3.851562 -1.742188 3.9375 -1.484375 L 4.4375 0 L 3.421875 0 L 2.9375 -1.484375 C 2.882812 -1.640625 2.828125 -1.753906 2.765625 -1.828125 C 2.703125 -1.910156 2.625 -1.972656 2.53125 -2.015625 C 2.4375 -2.054688 2.3125 -2.078125 2.15625 -2.078125 L 1.625 -2.078125 L 1.625 0 Z M 2.53125 -2.84375 C 3 -2.84375 3.234375 -3.066406 3.234375 -3.515625 C 3.234375 -3.972656 3 -4.203125 2.53125 -4.203125 L 1.625 -4.203125 L 1.625 -2.84375 Z M 2.53125 -2.84375 "/></g></g><g transform="translate(56.371351, 42.026151)"><g><path d="M 1.625 -2.1875 L 1.625 -0.828125 L 4 -0.828125 L 4 0 L 0.640625 0 L 0.640625 -4.96875 L 3.953125 -4.96875 L 3.953125 -4.15625 L 1.625 -4.15625 L 1.625 -2.984375 L 3.65625 -2.984375 L 3.65625 -2.1875 Z M 1.625 -2.1875 "/></g></g><g transform="translate(60.645806, 42.026151)"><g><path d="M 4.78125 0 L 3.734375 0 L 3.359375 -1.140625 L 1.453125 -1.140625 L 1.078125 0 L 0.078125 0 L 1.796875 -4.96875 L 3.0625 -4.96875 Z M 2.359375 -3.9375 L 1.71875 -1.96875 L 3.09375 -1.96875 L 2.453125 -3.9375 Z M 2.359375 -3.9375 "/></g></g></g><g fill="#000000" fill-opacity="1"><g transform="translate(65.049481, 42.026151)"><g><path d="M 3.984375 -4.96875 L 3.984375 -4.140625 L 2.546875 -4.140625 L 2.546875 0 L 1.578125 0 L 1.578125 -4.140625 L 0.140625 -4.140625 L 0.140625 -4.96875 Z M 3.984375 -4.96875 "/></g></g><g transform="translate(69.170913, 42.026151)"><g><path d="M 1.625 -2.1875 L 1.625 -0.828125 L 4 -0.828125 L 4 0 L 0.640625 0 L 0.640625 -4.96875 L 3.953125 -4.96875 L 3.953125 -4.15625 L 1.625 -4.15625 L 1.625 -2.984375 L 3.65625 -2.984375 L 3.65625 -2.1875 Z M 1.625 -2.1875 "/></g></g><g transform="translate(73.445369, 42.026151)"><g/></g><g transform="translate(75.08782, 42.026151)"><g><path d="M 1.546875 0 L 0.640625 0 L 0.640625 -4.96875 L 1.9375 -4.96875 L 3.1875 -1.3125 L 3.265625 -1.3125 L 4.515625 -4.96875 L 5.765625 -4.96875 L 5.765625 0 L 4.84375 0 L 4.84375 -3.28125 L 4.75 -3.296875 L 3.609375 0 L 2.78125 0 L 1.640625 -3.296875 L 1.546875 -3.28125 Z M 1.546875 0 "/></g></g><g transform="translate(81.504604, 42.026151)"><g><path d="M 2.640625 0.078125 C 1.953125 0.078125 1.441406 -0.0820312 1.109375 -0.40625 C 0.773438 -0.738281 0.609375 -1.222656 0.609375 -1.859375 L 0.609375 -4.96875 L 1.578125 -4.96875 L 1.578125 -1.875 C 1.578125 -1.507812 1.664062 -1.234375 1.84375 -1.046875 C 2.019531 -0.867188 2.285156 -0.78125 2.640625 -0.78125 C 3.347656 -0.78125 3.703125 -1.144531 3.703125 -1.875 L 3.703125 -4.96875 L 4.65625 -4.96875 L 4.65625 -1.859375 C 4.65625 -1.222656 4.488281 -0.738281 4.15625 -0.40625 C 3.832031 -0.0820312 3.328125 0.078125 2.640625 0.078125 Z M 2.640625 0.078125 "/></g></g><g transform="translate(86.775413, 42.026151)"><g><path d="M 2.203125 0.078125 C 1.859375 0.078125 1.550781 0.0351562 1.28125 -0.046875 C 1.007812 -0.140625 0.785156 -0.253906 0.609375 -0.390625 C 0.429688 -0.523438 0.296875 -0.675781 0.203125 -0.84375 L 0.734375 -1.5 L 0.828125 -1.5 C 0.972656 -1.28125 1.160156 -1.101562 1.390625 -0.96875 C 1.628906 -0.84375 1.898438 -0.78125 2.203125 -0.78125 C 2.460938 -0.78125 2.660156 -0.832031 2.796875 -0.9375 C 2.929688 -1.050781 3 -1.207031 3 -1.40625 C 3 -1.519531 2.976562 -1.617188 2.9375 -1.703125 C 2.894531 -1.785156 2.820312 -1.851562 2.71875 -1.90625 C 2.625 -1.957031 2.488281 -2.003906 2.3125 -2.046875 L 1.671875 -2.203125 C 1.222656 -2.296875 0.890625 -2.460938 0.671875 -2.703125 C 0.453125 -2.941406 0.34375 -3.25 0.34375 -3.625 C 0.34375 -3.90625 0.410156 -4.148438 0.546875 -4.359375 C 0.691406 -4.578125 0.898438 -4.742188 1.171875 -4.859375 C 1.441406 -4.984375 1.765625 -5.046875 2.140625 -5.046875 C 2.523438 -5.046875 2.851562 -4.992188 3.125 -4.890625 C 3.394531 -4.796875 3.625 -4.644531 3.8125 -4.4375 L 3.328125 -3.765625 L 3.25 -3.765625 C 3.101562 -3.910156 2.9375 -4.019531 2.75 -4.09375 C 2.570312 -4.164062 2.367188 -4.203125 2.140625 -4.203125 C 1.867188 -4.203125 1.660156 -4.15625 1.515625 -4.0625 C 1.378906 -3.96875 1.3125 -3.835938 1.3125 -3.671875 C 1.3125 -3.515625 1.359375 -3.390625 1.453125 -3.296875 C 1.554688 -3.203125 1.726562 -3.128906 1.96875 -3.078125 L 2.625 -2.9375 C 3.113281 -2.832031 3.460938 -2.660156 3.671875 -2.421875 C 3.890625 -2.179688 4 -1.863281 4 -1.46875 C 4 -1.15625 3.929688 -0.882812 3.796875 -0.65625 C 3.671875 -0.425781 3.472656 -0.242188 3.203125 -0.109375 C 2.929688 0.015625 2.597656 0.078125 2.203125 0.078125 Z M 2.203125 0.078125 "/></g></g><g transform="translate(91.046467, 42.026151)"><g><path d="M 1.625 0 L 0.640625 0 L 0.640625 -4.96875 L 1.625 -4.96875 Z M 1.625 0 "/></g></g><g transform="translate(93.324817, 42.026151)"><g><path d="M 2.71875 0.078125 C 2.257812 0.078125 1.851562 -0.015625 1.5 -0.203125 C 1.15625 -0.398438 0.882812 -0.6875 0.6875 -1.0625 C 0.488281 -1.445312 0.390625 -1.921875 0.390625 -2.484375 C 0.390625 -3.046875 0.488281 -3.515625 0.6875 -3.890625 C 0.882812 -4.273438 1.15625 -4.5625 1.5 -4.75 C 1.851562 -4.945312 2.257812 -5.046875 2.71875 -5.046875 C 3.195312 -5.046875 3.601562 -4.953125 3.9375 -4.765625 C 4.269531 -4.578125 4.507812 -4.289062 4.65625 -3.90625 L 3.9375 -3.46875 L 3.859375 -3.46875 C 3.742188 -3.726562 3.59375 -3.914062 3.40625 -4.03125 C 3.226562 -4.144531 3 -4.203125 2.71875 -4.203125 C 2.300781 -4.203125 1.976562 -4.0625 1.75 -3.78125 C 1.519531 -3.507812 1.40625 -3.078125 1.40625 -2.484375 C 1.40625 -1.890625 1.519531 -1.457031 1.75 -1.1875 C 1.976562 -0.914062 2.300781 -0.78125 2.71875 -0.78125 C 3.363281 -0.78125 3.757812 -1.09375 3.90625 -1.71875 L 3.984375 -1.71875 L 4.71875 -1.34375 C 4.582031 -0.875 4.347656 -0.519531 4.015625 -0.28125 C 3.691406 -0.0390625 3.257812 0.078125 2.71875 0.078125 Z M 2.71875 0.078125 "/></g></g></g><g fill="#000000" fill-opacity="1"><g transform="translate(98.177361, 42.026151)"><g><path d="M 0.953125 0.03125 C 0.835938 0.03125 0.734375 0.0078125 0.640625 -0.03125 C 0.546875 -0.0820312 0.472656 -0.148438 0.421875 -0.234375 C 0.378906 -0.328125 0.359375 -0.425781 0.359375 -0.53125 C 0.359375 -0.644531 0.378906 -0.742188 0.421875 -0.828125 C 0.472656 -0.910156 0.546875 -0.976562 0.640625 -1.03125 C 0.734375 -1.082031 0.835938 -1.109375 0.953125 -1.109375 C 1.078125 -1.109375 1.1875 -1.082031 1.28125 -1.03125 C 1.375 -0.988281 1.441406 -0.921875 1.484375 -0.828125 C 1.535156 -0.742188 1.5625 -0.648438 1.5625 -0.546875 C 1.5625 -0.378906 1.503906 -0.238281 1.390625 -0.125 C 1.285156 -0.0195312 1.140625 0.03125 0.953125 0.03125 Z M 0.953125 0.03125 "/></g></g><g transform="translate(100.098655, 42.026151)"><g/></g><g transform="translate(101.741107, 42.026151)"><g><path d="M 2.203125 0.078125 C 1.859375 0.078125 1.550781 0.0351562 1.28125 -0.046875 C 1.007812 -0.140625 0.785156 -0.253906 0.609375 -0.390625 C 0.429688 -0.523438 0.296875 -0.675781 0.203125 -0.84375 L 0.734375 -1.5 L 0.828125 -1.5 C 0.972656 -1.28125 1.160156 -1.101562 1.390625 -0.96875 C 1.628906 -0.84375 1.898438 -0.78125 2.203125 -0.78125 C 2.460938 -0.78125 2.660156 -0.832031 2.796875 -0.9375 C 2.929688 -1.050781 3 -1.207031 3 -1.40625 C 3 -1.519531 2.976562 -1.617188 2.9375 -1.703125 C 2.894531 -1.785156 2.820312 -1.851562 2.71875 -1.90625 C 2.625 -1.957031 2.488281 -2.003906 2.3125 -2.046875 L 1.671875 -2.203125 C 1.222656 -2.296875 0.890625 -2.460938 0.671875 -2.703125 C 0.453125 -2.941406 0.34375 -3.25 0.34375 -3.625 C 0.34375 -3.90625 0.410156 -4.148438 0.546875 -4.359375 C 0.691406 -4.578125 0.898438 -4.742188 1.171875 -4.859375 C 1.441406 -4.984375 1.765625 -5.046875 2.140625 -5.046875 C 2.523438 -5.046875 2.851562 -4.992188 3.125 -4.890625 C 3.394531 -4.796875 3.625 -4.644531 3.8125 -4.4375 L 3.328125 -3.765625 L 3.25 -3.765625 C 3.101562 -3.910156 2.9375 -4.019531 2.75 -4.09375 C 2.570312 -4.164062 2.367188 -4.203125 2.140625 -4.203125 C 1.867188 -4.203125 1.660156 -4.15625 1.515625 -4.0625 C 1.378906 -3.96875 1.3125 -3.835938 1.3125 -3.671875 C 1.3125 -3.515625 1.359375 -3.390625 1.453125 -3.296875 C 1.554688 -3.203125 1.726562 -3.128906 1.96875 -3.078125 L 2.625 -2.9375 C 3.113281 -2.832031 3.460938 -2.660156 3.671875 -2.421875 C 3.890625 -2.179688 4 -1.863281 4 -1.46875 C 4 -1.15625 3.929688 -0.882812 3.796875 -0.65625 C 3.671875 -0.425781 3.472656 -0.242188 3.203125 -0.109375 C 2.929688 0.015625 2.597656 0.078125 2.203125 0.078125 Z M 2.203125 0.078125 "/></g></g><g transform="translate(106.012162, 42.026151)"><g><path d="M 3.859375 -3.109375 L 3.859375 -4.96875 L 4.84375 -4.96875 L 4.84375 0 L 3.859375 0 L 3.859375 -2.265625 L 1.625 -2.265625 L 1.625 0 L 0.640625 0 L 0.640625 -4.96875 L 1.625 -4.96875 L 1.625 -3.109375 Z M 3.859375 -3.109375 "/></g></g><g transform="translate(111.497203, 42.026151)"><g><path d="M 1.625 0 L 0.640625 0 L 0.640625 -4.96875 L 1.625 -4.96875 Z M 1.625 0 "/></g></g><g transform="translate(113.775552, 42.026151)"><g><path d="M 1.59375 0 L 0.640625 0 L 0.640625 -4.96875 L 1.765625 -4.96875 L 3.765625 -1.765625 L 3.859375 -1.78125 L 3.859375 -4.96875 L 4.796875 -4.96875 L 4.796875 0 L 3.796875 0 L 1.6875 -3.421875 L 1.59375 -3.40625 Z M 1.59375 0 "/></g></g><g transform="translate(119.226588, 42.026151)"><g><path d="M 1.625 -2.1875 L 1.625 -0.828125 L 4 -0.828125 L 4 0 L 0.640625 0 L 0.640625 -4.96875 L 3.953125 -4.96875 L 3.953125 -4.15625 L 1.625 -4.15625 L 1.625 -2.984375 L 3.65625 -2.984375 L 3.65625 -2.1875 Z M 1.625 -2.1875 "/></g></g></g><g fill="#000000" fill-opacity="1"><g transform="translate(123.613261, 42.026151)"><g><path d="M 0.953125 0.03125 C 0.835938 0.03125 0.734375 0.0078125 0.640625 -0.03125 C 0.546875 -0.0820312 0.472656 -0.148438 0.421875 -0.234375 C 0.378906 -0.328125 0.359375 -0.425781 0.359375 -0.53125 C 0.359375 -0.644531 0.378906 -0.742188 0.421875 -0.828125 C 0.472656 -0.910156 0.546875 -0.976562 0.640625 -1.03125 C 0.734375 -1.082031 0.835938 -1.109375 0.953125 -1.109375 C 1.078125 -1.109375 1.1875 -1.082031 1.28125 -1.03125 C 1.375 -0.988281 1.441406 -0.921875 1.484375 -0.828125 C 1.535156 -0.742188 1.5625 -0.648438 1.5625 -0.546875 C 1.5625 -0.378906 1.503906 -0.238281 1.390625 -0.125 C 1.285156 -0.0195312 1.140625 0.03125 0.953125 0.03125 Z M 0.953125 0.03125 "/></g></g><g transform="translate(125.534555, 42.026151)"><g/></g><g transform="translate(127.177007, 42.026151)"><g><path d="M 0.640625 0 L 0.640625 -4.96875 L 2.640625 -4.96875 C 3.160156 -4.96875 3.550781 -4.847656 3.8125 -4.609375 C 4.070312 -4.378906 4.203125 -4.054688 4.203125 -3.640625 C 4.203125 -3.335938 4.125 -3.085938 3.96875 -2.890625 C 3.820312 -2.703125 3.59375 -2.554688 3.28125 -2.453125 L 3.28125 -2.375 C 3.4375 -2.3125 3.5625 -2.210938 3.65625 -2.078125 C 3.757812 -1.941406 3.851562 -1.742188 3.9375 -1.484375 L 4.4375 0 L 3.421875 0 L 2.9375 -1.484375 C 2.882812 -1.640625 2.828125 -1.753906 2.765625 -1.828125 C 2.703125 -1.910156 2.625 -1.972656 2.53125 -2.015625 C 2.4375 -2.054688 2.3125 -2.078125 2.15625 -2.078125 L 1.625 -2.078125 L 1.625 0 Z M 2.53125 -2.84375 C 3 -2.84375 3.234375 -3.066406 3.234375 -3.515625 C 3.234375 -3.972656 3 -4.203125 2.53125 -4.203125 L 1.625 -4.203125 L 1.625 -2.84375 Z M 2.53125 -2.84375 "/></g></g><g transform="translate(131.82552, 42.026151)"><g><path d="M 1.625 -2.1875 L 1.625 -0.828125 L 4 -0.828125 L 4 0 L 0.640625 0 L 0.640625 -4.96875 L 3.953125 -4.96875 L 3.953125 -4.15625 L 1.625 -4.15625 L 1.625 -2.984375 L 3.65625 -2.984375 L 3.65625 -2.1875 Z M 1.625 -2.1875 "/></g></g><g transform="translate(136.099975, 42.026151)"><g><path d="M 2.5625 -4.96875 C 2.925781 -4.96875 3.234375 -4.898438 3.484375 -4.765625 C 3.734375 -4.640625 3.921875 -4.457031 4.046875 -4.21875 C 4.179688 -3.988281 4.25 -3.71875 4.25 -3.40625 C 4.25 -3.101562 4.179688 -2.832031 4.046875 -2.59375 C 3.921875 -2.363281 3.734375 -2.179688 3.484375 -2.046875 C 3.234375 -1.921875 2.925781 -1.859375 2.5625 -1.859375 L 1.625 -1.859375 L 1.625 0 L 0.640625 0 L 0.640625 -4.96875 Z M 2.4375 -2.640625 C 2.988281 -2.640625 3.265625 -2.894531 3.265625 -3.40625 C 3.265625 -3.9375 2.988281 -4.203125 2.4375 -4.203125 L 1.625 -4.203125 L 1.625 -2.640625 Z M 2.4375 -2.640625 "/></g></g><g transform="translate(140.643072, 42.026151)"><g><path d="M 1.625 -2.1875 L 1.625 -0.828125 L 4 -0.828125 L 4 0 L 0.640625 0 L 0.640625 -4.96875 L 3.953125 -4.96875 L 3.953125 -4.15625 L 1.625 -4.15625 L 1.625 -2.984375 L 3.65625 -2.984375 L 3.65625 -2.1875 Z M 1.625 -2.1875 "/></g></g><g transform="translate(144.917527, 42.026151)"><g><path d="M 4.78125 0 L 3.734375 0 L 3.359375 -1.140625 L 1.453125 -1.140625 L 1.078125 0 L 0.078125 0 L 1.796875 -4.96875 L 3.0625 -4.96875 Z M 2.359375 -3.9375 L 1.71875 -1.96875 L 3.09375 -1.96875 L 2.453125 -3.9375 Z M 2.359375 -3.9375 "/></g></g></g><g fill="#000000" fill-opacity="1"><g transform="translate(149.321203, 42.026151)"><g><path d="M 3.984375 -4.96875 L 3.984375 -4.140625 L 2.546875 -4.140625 L 2.546875 0 L 1.578125 0 L 1.578125 -4.140625 L 0.140625 -4.140625 L 0.140625 -4.96875 Z M 3.984375 -4.96875 "/></g></g></g><g fill="#000000" fill-opacity="1"><g transform="translate(153.450569, 42.026151)"><g/></g></g></svg>