<svg xmlns="http://www.w3.org/2000/svg" xmlns:xlink="http://www.w3.org/1999/xlink" width="380" zoomAndPan="magnify" viewBox="0 0 285 67.499998" height="90" preserveAspectRatio="xMidYMid meet" version="1.0"><defs><g/><clipPath id="ea20ef4a05"><path d="M 98 3.769531 L 105 3.769531 L 105 26.847656 L 98 26.847656 Z M 98 3.769531 " clip-rule="nonzero"/></clipPath><clipPath id="ca5455c910"><path d="M 94.171875 9 L 99 9 L 99 23 L 94.171875 23 Z M 94.171875 9 " clip-rule="nonzero"/></clipPath></defs><path fill="#f15107" d="M 111.339844 14.230469 C 112.070312 13.511719 110.445312 12.742188 109.382812 11.851562 C 108.476562 11.089844 107.972656 10.640625 107.964844 10.066406 C 107.921875 7.015625 106.523438 5.289062 105.144531 4.46875 C 105.207031 4.582031 105.261719 4.703125 105.308594 4.832031 C 105.953125 6.550781 105.3125 8.648438 103.402344 11.078125 C 103.457031 11.695312 103.515625 12.363281 103.585938 13.082031 C 104.910156 13.121094 106.140625 13.613281 107.070312 14.476562 C 108.070312 15.410156 108.621094 16.691406 108.621094 18.082031 C 108.621094 20.050781 107.523438 21.769531 105.910156 22.65625 C 106.988281 22.933594 107.675781 23.269531 108.304688 23.152344 C 109.714844 22.894531 109.492188 21.664062 109.390625 21 C 109.292969 20.335938 109.671875 19.8125 110.3125 19.484375 C 110.949219 19.15625 110.882812 18.453125 110.464844 18.28125 C 110.046875 18.105469 109.28125 17.878906 109.582031 17.492188 C 109.90625 17.078125 110.832031 16.953125 110.964844 16.5 C 111.097656 16.050781 110.109375 15.824219 110.203125 15.417969 C 110.324219 14.910156 110.886719 14.679688 111.339844 14.230469 Z M 111.339844 14.230469 " fill-opacity="1" fill-rule="nonzero"/><path fill="#f15107" d="M 106.632812 14.945312 C 105.78125 14.15625 104.636719 13.71875 103.402344 13.71875 C 102.257812 13.71875 100.445312 14.746094 100.035156 16.675781 C 100.570312 15.566406 101.714844 14.363281 103.402344 14.363281 C 105.644531 14.363281 107.335938 15.960938 107.335938 18.082031 C 107.335938 20.25 105.574219 22.015625 103.402344 22.015625 L 103.402344 22.660156 C 105.925781 22.660156 107.980469 20.605469 107.980469 18.082031 C 107.980469 16.871094 107.5 15.757812 106.632812 14.945312 Z M 106.632812 14.945312 " fill-opacity="1" fill-rule="nonzero"/><g clip-path="url(#ea20ef4a05)"><path fill="#f15107" d="M 102.738281 10.878906 C 104.621094 8.550781 105.285156 6.59375 104.707031 5.058594 C 104.402344 4.242188 103.738281 3.765625 103.054688 3.871094 C 102.488281 3.957031 101.859375 4.476562 101.796875 5.664062 C 101.757812 6.359375 101.851562 8.039062 102.074219 10.671875 C 101.882812 10.902344 101.6875 11.136719 101.496094 11.363281 C 99.78125 13.402344 98.160156 15.328125 98.160156 17.875 C 98.160156 19.65625 99.480469 22.441406 102.988281 22.644531 C 102.894531 24.816406 102.453125 25.488281 102.273438 25.675781 C 101.984375 25.960938 101.519531 25.960938 101.230469 25.675781 C 101.089844 25.535156 101.015625 25.351562 101.015625 25.152344 C 101.015625 24.519531 101.648438 23.765625 102.726562 24.179688 C 102.464844 23.917969 102.121094 23.773438 101.75 23.773438 C 101.382812 23.773438 101.035156 23.917969 100.777344 24.179688 C 100.515625 24.4375 100.371094 24.785156 100.371094 25.152344 C 100.371094 25.523438 100.515625 25.867188 100.777344 26.128906 C 101.042969 26.398438 101.398438 26.53125 101.75 26.53125 C 102.105469 26.53125 102.457031 26.394531 102.730469 26.125 C 103.625 25.214844 103.875 22.34375 103.429688 18.050781 C 103.136719 15.175781 102.902344 12.785156 102.738281 10.878906 Z M 102.4375 5.695312 C 102.480469 4.894531 102.835938 4.554688 103.152344 4.507812 C 103.183594 4.503906 103.210938 4.5 103.242188 4.5 C 103.585938 4.5 103.925781 4.800781 104.105469 5.28125 C 104.554688 6.480469 104.066406 8.042969 102.660156 9.933594 C 102.476562 7.730469 102.402344 6.3125 102.4375 5.695312 Z M 103.003906 22.003906 C 99.953125 21.808594 98.804688 19.410156 98.804688 17.875 C 98.804688 15.5625 100.351562 13.722656 101.988281 11.777344 C 102.042969 11.710938 102.101562 11.644531 102.15625 11.578125 C 102.316406 13.378906 102.527344 15.558594 102.792969 18.117188 C 102.957031 19.726562 103.015625 20.996094 103.003906 22.003906 Z M 103.003906 22.003906 " fill-opacity="1" fill-rule="nonzero"/></g><path fill="#f15107" d="M 100.355469 10.425781 C 98.804688 12.53125 97.554688 14.53125 97.140625 16.5 C 96.71875 18.484375 97.3125 20.695312 98.273438 21.976562 C 96.523438 20.519531 96.144531 17.917969 96.542969 16.21875 C 97.027344 14.152344 98.527344 11.921875 100.355469 10.425781 Z M 100.355469 10.425781 " fill-opacity="1" fill-rule="nonzero"/><g clip-path="url(#ca5455c910)"><path fill="#f15107" d="M 98.703125 9.722656 C 97.03125 12.09375 95.660156 14.34375 95.25 16.5625 C 94.804688 18.976562 95.847656 21.53125 96.910156 22.957031 C 94.867188 21.425781 94.179688 18.164062 94.597656 16.25 C 95.109375 13.933594 96.722656 11.414062 98.703125 9.722656 Z M 98.703125 9.722656 " fill-opacity="1" fill-rule="nonzero"/></g><g fill="#070a0e" fill-opacity="1"><g transform="translate(7.748165, 21.260441)"><g><path d="M 3.40625 0 L 3.40625 -7.453125 L 0.40625 -7.453125 L 0.40625 -9.46875 L 8.5625 -9.46875 L 8.5625 -7.453125 L 5.5625 -7.453125 L 5.5625 0 Z M 3.40625 0 "/></g></g></g><g fill="#070a0e" fill-opacity="1"><g transform="translate(16.149502, 21.260441)"><g><path d="M 3.859375 0.1875 C 2.929688 0.1875 2.203125 -0.101562 1.671875 -0.6875 C 1.148438 -1.269531 0.890625 -2.050781 0.890625 -3.03125 L 0.890625 -7.109375 L 2.953125 -7.109375 L 2.953125 -3.234375 C 2.953125 -2.710938 3.070312 -2.304688 3.3125 -2.015625 C 3.5625 -1.722656 3.90625 -1.578125 4.34375 -1.578125 C 4.8125 -1.578125 5.1875 -1.738281 5.46875 -2.0625 C 5.75 -2.394531 5.890625 -2.835938 5.890625 -3.390625 L 5.890625 -7.109375 L 7.9375 -7.109375 L 7.9375 0 L 6.40625 0 L 6.203125 -0.796875 C 5.921875 -0.460938 5.578125 -0.210938 5.171875 -0.046875 C 4.765625 0.109375 4.328125 0.1875 3.859375 0.1875 Z M 3.859375 0.1875 "/></g></g></g><g fill="#070a0e" fill-opacity="1"><g transform="translate(24.550838, 21.260441)"><g><path d="M 1.03125 0 L 1.03125 -7.109375 L 2.5625 -7.109375 L 2.78125 -6.3125 C 3.0625 -6.644531 3.40625 -6.890625 3.8125 -7.046875 C 4.226562 -7.210938 4.671875 -7.296875 5.140625 -7.296875 C 6.066406 -7.296875 6.796875 -7.003906 7.328125 -6.421875 C 7.859375 -5.847656 8.125 -5.070312 8.125 -4.09375 L 8.125 0 L 6.0625 0 L 6.0625 -3.875 C 6.0625 -4.394531 5.9375 -4.800781 5.6875 -5.09375 C 5.4375 -5.382812 5.09375 -5.53125 4.65625 -5.53125 C 4.1875 -5.53125 3.804688 -5.367188 3.515625 -5.046875 C 3.222656 -4.722656 3.078125 -4.28125 3.078125 -3.71875 L 3.078125 0 Z M 1.03125 0 "/></g></g></g><g fill="#070a0e" fill-opacity="1"><g transform="translate(32.992759, 21.260441)"><g><path d="M 4.390625 0.1875 C 3.628906 0.1875 2.957031 0.03125 2.375 -0.28125 C 1.789062 -0.59375 1.335938 -1.03125 1.015625 -1.59375 C 0.691406 -2.164062 0.53125 -2.820312 0.53125 -3.5625 C 0.53125 -4.300781 0.691406 -4.945312 1.015625 -5.5 C 1.347656 -6.0625 1.804688 -6.5 2.390625 -6.8125 C 2.972656 -7.132812 3.644531 -7.296875 4.40625 -7.296875 C 5.21875 -7.296875 5.921875 -7.113281 6.515625 -6.75 C 7.109375 -6.382812 7.554688 -5.878906 7.859375 -5.234375 C 8.171875 -4.585938 8.304688 -3.832031 8.265625 -2.96875 L 2.578125 -2.96875 C 2.671875 -2.476562 2.882812 -2.101562 3.21875 -1.84375 C 3.550781 -1.59375 3.953125 -1.46875 4.421875 -1.46875 C 4.765625 -1.46875 5.078125 -1.53125 5.359375 -1.65625 C 5.648438 -1.789062 5.878906 -1.972656 6.046875 -2.203125 L 8.125 -2.203125 C 7.820312 -1.453125 7.34375 -0.863281 6.6875 -0.4375 C 6.03125 -0.0195312 5.265625 0.1875 4.390625 0.1875 Z M 2.578125 -4.265625 L 6.28125 -4.265625 C 6.164062 -4.691406 5.945312 -5.03125 5.625 -5.28125 C 5.300781 -5.53125 4.898438 -5.65625 4.421875 -5.65625 C 3.972656 -5.65625 3.582031 -5.53125 3.25 -5.28125 C 2.925781 -5.03125 2.703125 -4.691406 2.578125 -4.265625 Z M 2.578125 -4.265625 "/></g></g></g><g fill="#070a0e" fill-opacity="1"><g transform="translate(41.20469, 21.260441)"><g><path d="M 5.484375 0.1875 C 4.523438 0.1875 3.675781 -0.0195312 2.9375 -0.4375 C 2.195312 -0.851562 1.617188 -1.429688 1.203125 -2.171875 C 0.785156 -2.910156 0.578125 -3.765625 0.578125 -4.734375 C 0.578125 -5.703125 0.785156 -6.554688 1.203125 -7.296875 C 1.617188 -8.035156 2.191406 -8.613281 2.921875 -9.03125 C 3.660156 -9.445312 4.507812 -9.65625 5.46875 -9.65625 C 6.269531 -9.65625 7.003906 -9.5 7.671875 -9.1875 C 8.335938 -8.882812 8.898438 -8.453125 9.359375 -7.890625 C 9.816406 -7.335938 10.132812 -6.679688 10.3125 -5.921875 L 8.09375 -5.921875 C 7.914062 -6.453125 7.59375 -6.867188 7.125 -7.171875 C 6.664062 -7.472656 6.132812 -7.625 5.53125 -7.625 C 5 -7.625 4.523438 -7.5 4.109375 -7.25 C 3.691406 -7.007812 3.363281 -6.671875 3.125 -6.234375 C 2.894531 -5.804688 2.78125 -5.304688 2.78125 -4.734375 C 2.78125 -4.171875 2.894531 -3.671875 3.125 -3.234375 C 3.363281 -2.796875 3.6875 -2.457031 4.09375 -2.21875 C 4.507812 -1.976562 4.984375 -1.859375 5.515625 -1.859375 C 6.140625 -1.859375 6.6875 -2.015625 7.15625 -2.328125 C 7.625 -2.648438 7.957031 -3.082031 8.15625 -3.625 L 10.375 -3.625 C 10.21875 -2.851562 9.910156 -2.179688 9.453125 -1.609375 C 8.992188 -1.035156 8.421875 -0.59375 7.734375 -0.28125 C 7.054688 0.03125 6.304688 0.1875 5.484375 0.1875 Z M 5.484375 0.1875 "/></g></g></g><g fill="#070a0e" fill-opacity="1"><g transform="translate(51.554192, 21.260441)"><g><path d="M 1.03125 0 L 1.03125 -7.109375 L 2.5625 -7.109375 L 2.828125 -6.15625 C 3.066406 -6.488281 3.351562 -6.726562 3.6875 -6.875 C 4.03125 -7.03125 4.46875 -7.109375 5 -7.109375 L 5.765625 -7.109375 L 5.765625 -5.234375 L 4.984375 -5.234375 C 4.390625 -5.234375 3.921875 -5.078125 3.578125 -4.765625 C 3.242188 -4.453125 3.078125 -3.910156 3.078125 -3.140625 L 3.078125 0 Z M 1.03125 0 "/></g></g></g><g fill="#070a0e" fill-opacity="1"><g transform="translate(57.209156, 21.260441)"><g><path d="M 4.390625 0.1875 C 3.628906 0.1875 2.957031 0.03125 2.375 -0.28125 C 1.789062 -0.59375 1.335938 -1.03125 1.015625 -1.59375 C 0.691406 -2.164062 0.53125 -2.820312 0.53125 -3.5625 C 0.53125 -4.300781 0.691406 -4.945312 1.015625 -5.5 C 1.347656 -6.0625 1.804688 -6.5 2.390625 -6.8125 C 2.972656 -7.132812 3.644531 -7.296875 4.40625 -7.296875 C 5.21875 -7.296875 5.921875 -7.113281 6.515625 -6.75 C 7.109375 -6.382812 7.554688 -5.878906 7.859375 -5.234375 C 8.171875 -4.585938 8.304688 -3.832031 8.265625 -2.96875 L 2.578125 -2.96875 C 2.671875 -2.476562 2.882812 -2.101562 3.21875 -1.84375 C 3.550781 -1.59375 3.953125 -1.46875 4.421875 -1.46875 C 4.765625 -1.46875 5.078125 -1.53125 5.359375 -1.65625 C 5.648438 -1.789062 5.878906 -1.972656 6.046875 -2.203125 L 8.125 -2.203125 C 7.820312 -1.453125 7.34375 -0.863281 6.6875 -0.4375 C 6.03125 -0.0195312 5.265625 0.1875 4.390625 0.1875 Z M 2.578125 -4.265625 L 6.28125 -4.265625 C 6.164062 -4.691406 5.945312 -5.03125 5.625 -5.28125 C 5.300781 -5.53125 4.898438 -5.65625 4.421875 -5.65625 C 3.972656 -5.65625 3.582031 -5.53125 3.25 -5.28125 C 2.925781 -5.03125 2.703125 -4.691406 2.578125 -4.265625 Z M 2.578125 -4.265625 "/></g></g></g><g fill="#070a0e" fill-opacity="1"><g transform="translate(65.421087, 21.260441)"><g><path d="M 2.75 0 L 0.125 -7.109375 L 2.296875 -7.109375 L 3.125 -4.75 L 3.828125 -2.765625 L 4.5625 -4.75 L 5.4375 -7.109375 L 7.109375 -7.109375 L 7.984375 -4.75 L 8.71875 -2.75 L 9.421875 -4.75 L 10.25 -7.109375 L 12.421875 -7.109375 L 9.796875 0 L 7.890625 0 L 6.28125 -4.328125 L 4.65625 0 Z M 2.75 0 "/></g></g></g><g fill="#070a0e" fill-opacity="1"><g transform="translate(77.394065, 21.260441)"><g/></g></g><g fill="#070a0e" fill-opacity="1"><g transform="translate(80.005012, 21.260441)"><g><path d="M 0.125 0 L 3.890625 -9.46875 L 6 -9.46875 L 9.75 0 L 7.453125 0 L 6.8125 -1.640625 L 3.0625 -1.640625 L 2.421875 0 Z M 3.609375 -3.328125 L 6.28125 -3.328125 L 4.9375 -6.796875 Z M 3.609375 -3.328125 "/></g></g></g><g fill="#070a0e" fill-opacity="1"><g transform="translate(89.312787, 21.260441)"><g><path d="M 1.140625 0 L 1.140625 -9.46875 L 3.28125 -9.46875 L 3.28125 0 Z M 1.140625 0 "/></g></g></g></svg>