<svg xmlns="http://www.w3.org/2000/svg" xmlns:xlink="http://www.w3.org/1999/xlink" width="220" zoomAndPan="magnify" viewBox="0 0 165 48.75" height="65" preserveAspectRatio="xMidYMid meet" version="1.0"><defs><g/><clipPath id="3886ee0894"><path d="M 149 1 L 158.777344 1 L 158.777344 23 L 149 23 Z M 149 1 " clip-rule="nonzero"/></clipPath><clipPath id="ed7671bb2f"><path d="M 143 0.707031 L 151 0.707031 L 151 26.820312 L 143 26.820312 Z M 143 0.707031 " clip-rule="nonzero"/></clipPath><clipPath id="d80ebf412b"><path d="M 138.628906 7 L 144 7 L 144 23 L 138.628906 23 Z M 138.628906 7 " clip-rule="nonzero"/></clipPath></defs><g fill="#ffffff" fill-opacity="1"><g transform="translate(1.627663, 21.574202)"><g><path d="M 1.8125 0 L 1.8125 -15.046875 L 11.703125 -15.046875 L 11.703125 -12.171875 L 5.203125 -12.171875 L 5.203125 -9.046875 L 11.109375 -9.046875 L 11.109375 -6.1875 L 5.203125 -6.1875 L 5.203125 -2.90625 L 11.9375 -2.90625 L 11.9375 0 Z M 1.8125 0 "/></g></g></g><g fill="#ffffff" fill-opacity="1"><g transform="translate(13.755471, 21.574202)"><g><path d="M 7.015625 0.296875 C 5.804688 0.296875 4.734375 0.046875 3.796875 -0.453125 C 2.867188 -0.960938 2.144531 -1.664062 1.625 -2.5625 C 1.101562 -3.457031 0.84375 -4.488281 0.84375 -5.65625 C 0.84375 -6.8125 1.101562 -7.832031 1.625 -8.71875 C 2.144531 -9.613281 2.867188 -10.316406 3.796875 -10.828125 C 4.734375 -11.335938 5.804688 -11.59375 7.015625 -11.59375 C 8.054688 -11.59375 9.003906 -11.398438 9.859375 -11.015625 C 10.710938 -10.640625 11.414062 -10.101562 11.96875 -9.40625 C 12.53125 -8.707031 12.898438 -7.894531 13.078125 -6.96875 L 9.9375 -6.96875 C 9.664062 -7.539062 9.273438 -7.988281 8.765625 -8.3125 C 8.265625 -8.632812 7.691406 -8.796875 7.046875 -8.796875 C 6.171875 -8.796875 5.453125 -8.503906 4.890625 -7.921875 C 4.335938 -7.335938 4.0625 -6.582031 4.0625 -5.65625 C 4.0625 -4.738281 4.335938 -3.984375 4.890625 -3.390625 C 5.453125 -2.804688 6.171875 -2.515625 7.046875 -2.515625 C 7.734375 -2.515625 8.335938 -2.695312 8.859375 -3.0625 C 9.390625 -3.425781 9.769531 -3.914062 10 -4.53125 L 13.171875 -4.53125 C 12.972656 -3.539062 12.59375 -2.679688 12.03125 -1.953125 C 11.46875 -1.234375 10.753906 -0.675781 9.890625 -0.28125 C 9.023438 0.101562 8.066406 0.296875 7.015625 0.296875 Z M 7.015625 0.296875 "/></g></g></g><g fill="#ffffff" fill-opacity="1"><g transform="translate(26.829413, 21.574202)"><g><path d="M 1.640625 0 L 1.640625 -15.90625 L 4.90625 -15.90625 L 4.90625 -10.421875 C 5.332031 -10.816406 5.832031 -11.109375 6.40625 -11.296875 C 6.976562 -11.492188 7.582031 -11.59375 8.21875 -11.59375 C 9.675781 -11.59375 10.820312 -11.140625 11.65625 -10.234375 C 12.488281 -9.328125 12.90625 -8.085938 12.90625 -6.515625 L 12.90625 0 L 9.625 0 L 9.625 -6.1875 C 9.625 -7.019531 9.425781 -7.660156 9.03125 -8.109375 C 8.644531 -8.566406 8.097656 -8.796875 7.390625 -8.796875 C 6.648438 -8.796875 6.050781 -8.539062 5.59375 -8.03125 C 5.132812 -7.519531 4.90625 -6.820312 4.90625 -5.9375 L 4.90625 0 Z M 1.640625 0 "/></g></g></g><g fill="#ffffff" fill-opacity="1"><g transform="translate(40.247405, 21.574202)"><g><path d="M 7.1875 0.296875 C 5.9375 0.296875 4.832031 0.046875 3.875 -0.453125 C 2.925781 -0.953125 2.179688 -1.648438 1.640625 -2.546875 C 1.109375 -3.441406 0.84375 -4.476562 0.84375 -5.65625 C 0.84375 -6.832031 1.109375 -7.863281 1.640625 -8.75 C 2.179688 -9.632812 2.925781 -10.328125 3.875 -10.828125 C 4.832031 -11.335938 5.9375 -11.59375 7.1875 -11.59375 C 8.425781 -11.59375 9.519531 -11.335938 10.46875 -10.828125 C 11.425781 -10.328125 12.171875 -9.632812 12.703125 -8.75 C 13.234375 -7.863281 13.5 -6.832031 13.5 -5.65625 C 13.5 -4.476562 13.234375 -3.441406 12.703125 -2.546875 C 12.171875 -1.648438 11.425781 -0.953125 10.46875 -0.453125 C 9.519531 0.046875 8.425781 0.296875 7.1875 0.296875 Z M 4.0625 -5.65625 C 4.0625 -4.738281 4.351562 -3.984375 4.9375 -3.390625 C 5.519531 -2.804688 6.269531 -2.515625 7.1875 -2.515625 C 8.101562 -2.515625 8.847656 -2.804688 9.421875 -3.390625 C 9.992188 -3.984375 10.28125 -4.738281 10.28125 -5.65625 C 10.28125 -6.582031 9.992188 -7.335938 9.421875 -7.921875 C 8.847656 -8.503906 8.101562 -8.796875 7.1875 -8.796875 C 6.269531 -8.796875 5.519531 -8.503906 4.9375 -7.921875 C 4.351562 -7.335938 4.0625 -6.582031 4.0625 -5.65625 Z M 4.0625 -5.65625 "/></g></g></g><g fill="#ffffff" fill-opacity="1"><g transform="translate(53.686918, 21.574202)"><g><path d="M 5.421875 0 L 5.421875 -11.84375 L 0.640625 -11.84375 L 0.640625 -15.046875 L 13.609375 -15.046875 L 13.609375 -11.84375 L 8.84375 -11.84375 L 8.84375 0 Z M 5.421875 0 "/></g></g></g><g fill="#ffffff" fill-opacity="1"><g transform="translate(67.040411, 21.574202)"><g><path d="M 1.640625 0 L 1.640625 -11.28125 L 4.0625 -11.28125 L 4.5 -9.78125 C 4.863281 -10.3125 5.316406 -10.691406 5.859375 -10.921875 C 6.410156 -11.160156 7.101562 -11.28125 7.9375 -11.28125 L 9.15625 -11.28125 L 9.15625 -8.328125 L 7.90625 -8.328125 C 6.976562 -8.328125 6.242188 -8.070312 5.703125 -7.5625 C 5.171875 -7.0625 4.90625 -6.203125 4.90625 -4.984375 L 4.90625 0 Z M 1.640625 0 "/></g></g></g><g fill="#ffffff" fill-opacity="1"><g transform="translate(76.028746, 21.574202)"><g><path d="M 1.640625 0 L 1.640625 -11.28125 L 4.90625 -11.28125 L 4.90625 0 Z M 1.15625 -14.9375 C 1.15625 -15.539062 1.351562 -16.03125 1.75 -16.40625 C 2.144531 -16.789062 2.648438 -16.984375 3.265625 -16.984375 C 3.898438 -16.984375 4.410156 -16.789062 4.796875 -16.40625 C 5.179688 -16.03125 5.375 -15.539062 5.375 -14.9375 C 5.375 -14.34375 5.179688 -13.851562 4.796875 -13.46875 C 4.410156 -13.09375 3.898438 -12.90625 3.265625 -12.90625 C 2.648438 -12.90625 2.144531 -13.09375 1.75 -13.46875 C 1.351562 -13.851562 1.15625 -14.34375 1.15625 -14.9375 Z M 1.15625 -14.9375 "/></g></g></g><g fill="#ffffff" fill-opacity="1"><g transform="translate(81.662588, 21.574202)"><g><path d="M 8.46875 0.296875 C 7.65625 0.296875 6.90625 0.160156 6.21875 -0.109375 C 5.53125 -0.390625 4.929688 -0.785156 4.421875 -1.296875 L 4.0625 0 L 1.640625 0 L 1.640625 -15.90625 L 4.90625 -15.90625 L 4.90625 -10.40625 C 5.375 -10.78125 5.910156 -11.070312 6.515625 -11.28125 C 7.117188 -11.488281 7.769531 -11.59375 8.46875 -11.59375 C 9.601562 -11.59375 10.597656 -11.335938 11.453125 -10.828125 C 12.316406 -10.316406 12.992188 -9.613281 13.484375 -8.71875 C 13.984375 -7.832031 14.234375 -6.8125 14.234375 -5.65625 C 14.234375 -4.488281 13.984375 -3.457031 13.484375 -2.5625 C 12.992188 -1.664062 12.316406 -0.960938 11.453125 -0.453125 C 10.597656 0.046875 9.601562 0.296875 8.46875 0.296875 Z M 4.765625 -5.65625 C 4.765625 -4.738281 5.054688 -3.984375 5.640625 -3.390625 C 6.222656 -2.804688 6.972656 -2.515625 7.890625 -2.515625 C 8.816406 -2.515625 9.566406 -2.804688 10.140625 -3.390625 C 10.722656 -3.984375 11.015625 -4.738281 11.015625 -5.65625 C 11.015625 -6.570312 10.722656 -7.320312 10.140625 -7.90625 C 9.566406 -8.5 8.816406 -8.796875 7.890625 -8.796875 C 6.972656 -8.796875 6.222656 -8.5 5.640625 -7.90625 C 5.054688 -7.320312 4.765625 -6.570312 4.765625 -5.65625 Z M 4.765625 -5.65625 "/></g></g></g><g fill="#ffffff" fill-opacity="1"><g transform="translate(95.83321, 21.574202)"><g><path d="M 6.96875 0.296875 C 5.757812 0.296875 4.691406 0.046875 3.765625 -0.453125 C 2.847656 -0.953125 2.128906 -1.648438 1.609375 -2.546875 C 1.097656 -3.441406 0.84375 -4.476562 0.84375 -5.65625 C 0.84375 -6.832031 1.101562 -7.863281 1.625 -8.75 C 2.144531 -9.632812 2.867188 -10.328125 3.796875 -10.828125 C 4.722656 -11.335938 5.796875 -11.59375 7.015625 -11.59375 C 8.296875 -11.59375 9.40625 -11.304688 10.34375 -10.734375 C 11.289062 -10.160156 12.007812 -9.351562 12.5 -8.3125 C 13 -7.28125 13.210938 -6.078125 13.140625 -4.703125 L 4.078125 -4.703125 C 4.242188 -3.929688 4.585938 -3.34375 5.109375 -2.9375 C 5.640625 -2.53125 6.28125 -2.328125 7.03125 -2.328125 C 7.570312 -2.328125 8.066406 -2.429688 8.515625 -2.640625 C 8.972656 -2.847656 9.335938 -3.132812 9.609375 -3.5 L 12.921875 -3.5 C 12.429688 -2.3125 11.660156 -1.378906 10.609375 -0.703125 C 9.566406 -0.0351562 8.351562 0.296875 6.96875 0.296875 Z M 4.109375 -6.765625 L 9.96875 -6.765625 C 9.789062 -7.453125 9.445312 -7.992188 8.9375 -8.390625 C 8.425781 -8.785156 7.789062 -8.984375 7.03125 -8.984375 C 6.3125 -8.984375 5.691406 -8.785156 5.171875 -8.390625 C 4.648438 -7.992188 4.296875 -7.453125 4.109375 -6.765625 Z M 4.109375 -6.765625 "/></g></g></g><g fill="#ffffff" fill-opacity="1"><g transform="translate(108.885658, 21.574202)"><g/></g></g><g fill="#ffffff" fill-opacity="1"><g transform="translate(113.035785, 21.574202)"><g><path d="M 0.1875 0 L 6.171875 -15.046875 L 9.53125 -15.046875 L 15.5 0 L 11.84375 0 L 10.84375 -2.59375 L 4.859375 -2.59375 L 3.84375 0 Z M 5.734375 -5.28125 L 9.96875 -5.28125 L 7.84375 -10.796875 Z M 5.734375 -5.28125 "/></g></g></g><g fill="#ffffff" fill-opacity="1"><g transform="translate(127.829987, 21.574202)"><g><path d="M 1.8125 0 L 1.8125 -15.046875 L 5.21875 -15.046875 L 5.21875 0 Z M 1.8125 0 "/></g></g></g><g fill="#ffffff" fill-opacity="1"><g transform="translate(3.567978, 35.296943)"><g><path d="M 2.140625 -0.328125 C 2.421875 -0.335938 2.601562 -0.414062 2.6875 -0.5625 C 2.769531 -0.707031 2.8125 -0.9375 2.8125 -1.25 L 2.8125 -1.546875 L 2.828125 -2.6875 L 1.09375 -5.421875 C 0.789062 -5.890625 0.613281 -6.265625 0.5625 -6.546875 L -0.0625 -6.53125 L -0.0625 -6.96875 L 2.515625 -6.96875 L 2.515625 -6.640625 C 1.992188 -6.640625 1.734375 -6.492188 1.734375 -6.203125 C 1.734375 -6.023438 1.816406 -5.804688 1.984375 -5.546875 L 2.296875 -5.0625 C 2.710938 -4.375 3.078125 -3.816406 3.390625 -3.390625 L 3.40625 -3.390625 C 3.644531 -3.847656 4.003906 -4.523438 4.484375 -5.421875 L 4.6875 -5.796875 C 4.875 -6.160156 5.035156 -6.414062 5.171875 -6.5625 L 4.375 -6.53125 L 4.375 -6.96875 L 6.40625 -6.96875 L 6.40625 -6.640625 C 6.09375 -6.617188 5.832031 -6.507812 5.625 -6.3125 C 5.414062 -6.125 5.191406 -5.804688 4.953125 -5.359375 L 3.6875 -2.984375 C 3.6875 -2.660156 3.679688 -2.316406 3.671875 -1.953125 C 3.671875 -1.585938 3.675781 -1.332031 3.6875 -1.1875 C 3.6875 -0.832031 3.675781 -0.566406 3.65625 -0.390625 L 4.484375 -0.4375 L 4.484375 0 L 2.140625 0 Z M 2.140625 -0.328125 "/></g></g></g><g fill="#ffffff" fill-opacity="1"><g transform="translate(9.873141, 35.296943)"><g><path d="M 2.90625 0.15625 C 2.445312 0.15625 2.023438 0.0507812 1.640625 -0.15625 C 1.265625 -0.375 0.960938 -0.675781 0.734375 -1.0625 C 0.515625 -1.445312 0.40625 -1.882812 0.40625 -2.375 C 0.40625 -2.882812 0.515625 -3.347656 0.734375 -3.765625 C 0.953125 -4.191406 1.25 -4.523438 1.625 -4.765625 C 2.007812 -5.015625 2.4375 -5.140625 2.90625 -5.140625 C 3.363281 -5.140625 3.785156 -5.023438 4.171875 -4.796875 C 4.554688 -4.578125 4.859375 -4.273438 5.078125 -3.890625 C 5.304688 -3.503906 5.421875 -3.078125 5.421875 -2.609375 C 5.421875 -2.097656 5.304688 -1.628906 5.078125 -1.203125 C 4.859375 -0.785156 4.554688 -0.453125 4.171875 -0.203125 C 3.796875 0.0351562 3.375 0.15625 2.90625 0.15625 Z M 2.984375 -0.234375 C 3.472656 -0.234375 3.832031 -0.429688 4.0625 -0.828125 C 4.289062 -1.234375 4.40625 -1.726562 4.40625 -2.3125 C 4.40625 -2.988281 4.28125 -3.5625 4.03125 -4.03125 C 3.78125 -4.507812 3.40625 -4.75 2.90625 -4.75 C 2.414062 -4.75 2.046875 -4.546875 1.796875 -4.140625 C 1.546875 -3.742188 1.421875 -3.25 1.421875 -2.65625 C 1.421875 -2.226562 1.476562 -1.832031 1.59375 -1.46875 C 1.707031 -1.101562 1.882812 -0.804688 2.125 -0.578125 C 2.363281 -0.347656 2.648438 -0.234375 2.984375 -0.234375 Z M 2.984375 -0.234375 "/></g></g></g><g fill="#ffffff" fill-opacity="1"><g transform="translate(15.690997, 35.296943)"><g><path d="M 2.53125 0.15625 C 1.96875 0.15625 1.554688 -0.00390625 1.296875 -0.328125 C 1.035156 -0.648438 0.90625 -1.210938 0.90625 -2.015625 L 0.90625 -3.78125 C 0.90625 -4.0625 0.921875 -4.273438 0.953125 -4.421875 L 0.265625 -4.40625 L 0.265625 -4.8125 L 0.5625 -4.8125 C 0.820312 -4.8125 1.019531 -4.832031 1.15625 -4.875 C 1.289062 -4.925781 1.40625 -4.992188 1.5 -5.078125 L 1.78125 -5.078125 L 1.78125 -2.046875 C 1.78125 -1.460938 1.859375 -1.03125 2.015625 -0.75 C 2.179688 -0.476562 2.457031 -0.34375 2.84375 -0.34375 C 3.082031 -0.34375 3.316406 -0.414062 3.546875 -0.5625 C 3.785156 -0.707031 3.976562 -0.890625 4.125 -1.109375 L 4.125 -3.671875 C 4.125 -3.984375 4.144531 -4.234375 4.1875 -4.421875 L 3.46875 -4.40625 L 3.46875 -4.8125 L 3.765625 -4.8125 C 4.023438 -4.8125 4.222656 -4.832031 4.359375 -4.875 C 4.492188 -4.925781 4.609375 -4.992188 4.703125 -5.078125 L 4.984375 -5.078125 L 4.96875 -1.3125 C 4.96875 -0.925781 4.957031 -0.613281 4.9375 -0.375 L 5.65625 -0.421875 L 5.65625 0 L 4.234375 0 C 4.203125 -0.207031 4.175781 -0.40625 4.15625 -0.59375 C 3.9375 -0.375 3.679688 -0.191406 3.390625 -0.046875 C 3.097656 0.0859375 2.8125 0.15625 2.53125 0.15625 Z M 2.53125 0.15625 "/></g></g></g><g fill="#ffffff" fill-opacity="1"><g transform="translate(21.628197, 35.296943)"><g><path d="M 0.4375 -0.296875 C 0.632812 -0.296875 0.769531 -0.34375 0.84375 -0.4375 C 0.925781 -0.539062 0.976562 -0.664062 1 -0.8125 C 1.019531 -0.957031 1.03125 -1.191406 1.03125 -1.515625 L 1.03125 -3.78125 C 1.03125 -4.0625 1.039062 -4.273438 1.0625 -4.421875 L 0.359375 -4.40625 L 0.359375 -4.8125 L 0.671875 -4.8125 C 0.921875 -4.8125 1.101562 -4.832031 1.21875 -4.875 C 1.332031 -4.914062 1.4375 -4.984375 1.53125 -5.078125 L 1.828125 -5.078125 C 1.847656 -4.816406 1.863281 -4.488281 1.875 -4.09375 C 2.039062 -4.363281 2.273438 -4.601562 2.578125 -4.8125 C 2.890625 -5.03125 3.210938 -5.140625 3.546875 -5.140625 C 3.742188 -5.140625 3.90625 -5.082031 4.03125 -4.96875 C 4.164062 -4.863281 4.234375 -4.710938 4.234375 -4.515625 C 4.234375 -4.398438 4.191406 -4.289062 4.109375 -4.1875 C 4.023438 -4.082031 3.910156 -4.03125 3.765625 -4.03125 C 3.617188 -4.03125 3.5 -4.082031 3.40625 -4.1875 C 3.3125 -4.300781 3.273438 -4.4375 3.296875 -4.59375 C 3.046875 -4.59375 2.789062 -4.492188 2.53125 -4.296875 C 2.28125 -4.097656 2.0625 -3.832031 1.875 -3.5 L 1.890625 -1.0625 C 1.890625 -0.757812 1.875 -0.53125 1.84375 -0.375 L 2.484375 -0.40625 L 2.484375 0 L 0.4375 0 Z M 0.4375 -0.296875 "/></g></g></g><g fill="#ffffff" fill-opacity="1"><g transform="translate(25.934406, 35.296943)"><g/></g></g><g fill="#ffffff" fill-opacity="1"><g transform="translate(28.549953, 35.296943)"><g><path d="M 0.34375 2.234375 C 0.539062 2.234375 0.679688 2.1875 0.765625 2.09375 C 0.847656 2 0.894531 1.878906 0.90625 1.734375 C 0.914062 1.585938 0.925781 1.351562 0.9375 1.03125 L 0.953125 -3.78125 C 0.953125 -4.0625 0.96875 -4.273438 1 -4.421875 L 0.28125 -4.390625 L 0.28125 -4.8125 C 0.675781 -4.8125 0.945312 -4.832031 1.09375 -4.875 C 1.238281 -4.914062 1.359375 -4.984375 1.453125 -5.078125 L 1.75 -5.078125 C 1.78125 -4.753906 1.796875 -4.570312 1.796875 -4.53125 C 1.992188 -4.71875 2.226562 -4.863281 2.5 -4.96875 C 2.78125 -5.082031 3.054688 -5.140625 3.328125 -5.140625 C 3.722656 -5.140625 4.085938 -5.035156 4.421875 -4.828125 C 4.753906 -4.628906 5.019531 -4.34375 5.21875 -3.96875 C 5.425781 -3.59375 5.53125 -3.160156 5.53125 -2.671875 C 5.53125 -2.117188 5.410156 -1.628906 5.171875 -1.203125 C 4.941406 -0.773438 4.628906 -0.441406 4.234375 -0.203125 C 3.847656 0.0351562 3.429688 0.15625 2.984375 0.15625 C 2.523438 0.15625 2.128906 0.046875 1.796875 -0.171875 L 1.796875 1.484375 C 1.796875 1.785156 1.78125 2.007812 1.75 2.15625 L 2.375 2.125 L 2.375 2.53125 L 0.34375 2.53125 Z M 2.96875 -0.234375 C 3.28125 -0.234375 3.550781 -0.328125 3.78125 -0.515625 C 4.007812 -0.710938 4.1875 -0.984375 4.3125 -1.328125 C 4.4375 -1.671875 4.5 -2.066406 4.5 -2.515625 C 4.5 -3.109375 4.367188 -3.609375 4.109375 -4.015625 C 3.859375 -4.429688 3.476562 -4.640625 2.96875 -4.640625 C 2.75 -4.640625 2.535156 -4.585938 2.328125 -4.484375 C 2.128906 -4.378906 1.953125 -4.25 1.796875 -4.09375 C 1.804688 -4.039062 1.8125 -3.835938 1.8125 -3.484375 L 1.796875 -0.625 C 2.140625 -0.363281 2.53125 -0.234375 2.96875 -0.234375 Z M 2.96875 -0.234375 "/></g></g></g><g fill="#ffffff" fill-opacity="1"><g transform="translate(34.487153, 35.296943)"><g><path d="M 2.84375 0.15625 C 2.382812 0.15625 1.972656 0.0507812 1.609375 -0.15625 C 1.242188 -0.375 0.953125 -0.679688 0.734375 -1.078125 C 0.523438 -1.484375 0.421875 -1.953125 0.421875 -2.484375 C 0.421875 -2.941406 0.523438 -3.375 0.734375 -3.78125 C 0.953125 -4.195312 1.25 -4.523438 1.625 -4.765625 C 2.007812 -5.015625 2.441406 -5.140625 2.921875 -5.140625 C 3.304688 -5.140625 3.648438 -5.054688 3.953125 -4.890625 C 4.253906 -4.722656 4.492188 -4.472656 4.671875 -4.140625 C 4.859375 -3.816406 4.953125 -3.414062 4.953125 -2.9375 L 1.4375 -2.875 C 1.4375 -2.082031 1.566406 -1.460938 1.828125 -1.015625 C 2.097656 -0.566406 2.515625 -0.34375 3.078125 -0.34375 C 3.390625 -0.34375 3.707031 -0.421875 4.03125 -0.578125 C 4.351562 -0.742188 4.597656 -0.941406 4.765625 -1.171875 L 5 -0.96875 C 4.75 -0.582031 4.421875 -0.296875 4.015625 -0.109375 C 3.617188 0.0664062 3.226562 0.15625 2.84375 0.15625 Z M 4.015625 -3.296875 C 4.015625 -3.691406 3.921875 -4.03125 3.734375 -4.3125 C 3.554688 -4.601562 3.289062 -4.75 2.9375 -4.75 C 2.113281 -4.75 1.625 -4.265625 1.46875 -3.296875 Z M 4.015625 -3.296875 "/></g></g></g><g fill="#ffffff" fill-opacity="1"><g transform="translate(39.877372, 35.296943)"><g><path d="M 0.4375 -0.296875 C 0.632812 -0.296875 0.769531 -0.34375 0.84375 -0.4375 C 0.925781 -0.539062 0.976562 -0.664062 1 -0.8125 C 1.019531 -0.957031 1.03125 -1.191406 1.03125 -1.515625 L 1.03125 -3.78125 C 1.03125 -4.0625 1.039062 -4.273438 1.0625 -4.421875 L 0.359375 -4.40625 L 0.359375 -4.8125 L 0.671875 -4.8125 C 0.921875 -4.8125 1.101562 -4.832031 1.21875 -4.875 C 1.332031 -4.914062 1.4375 -4.984375 1.53125 -5.078125 L 1.828125 -5.078125 C 1.847656 -4.816406 1.863281 -4.488281 1.875 -4.09375 C 2.039062 -4.363281 2.273438 -4.601562 2.578125 -4.8125 C 2.890625 -5.03125 3.210938 -5.140625 3.546875 -5.140625 C 3.742188 -5.140625 3.90625 -5.082031 4.03125 -4.96875 C 4.164062 -4.863281 4.234375 -4.710938 4.234375 -4.515625 C 4.234375 -4.398438 4.191406 -4.289062 4.109375 -4.1875 C 4.023438 -4.082031 3.910156 -4.03125 3.765625 -4.03125 C 3.617188 -4.03125 3.5 -4.082031 3.40625 -4.1875 C 3.3125 -4.300781 3.273438 -4.4375 3.296875 -4.59375 C 3.046875 -4.59375 2.789062 -4.492188 2.53125 -4.296875 C 2.28125 -4.097656 2.0625 -3.832031 1.875 -3.5 L 1.890625 -1.0625 C 1.890625 -0.757812 1.875 -0.53125 1.84375 -0.375 L 2.484375 -0.40625 L 2.484375 0 L 0.4375 0 Z M 0.4375 -0.296875 "/></g></g></g><g fill="#ffffff" fill-opacity="1"><g transform="translate(44.183582, 35.296943)"><g><path d="M 2.484375 0.15625 C 2.171875 0.15625 1.882812 0.113281 1.625 0.03125 C 1.363281 -0.0507812 1.140625 -0.15625 0.953125 -0.28125 L 1 0.0625 L 0.578125 0.0625 L 0.515625 -1.640625 L 0.828125 -1.640625 C 0.835938 -1.367188 0.910156 -1.125 1.046875 -0.90625 C 1.179688 -0.695312 1.359375 -0.53125 1.578125 -0.40625 C 1.804688 -0.289062 2.046875 -0.234375 2.296875 -0.234375 C 2.585938 -0.234375 2.84375 -0.300781 3.0625 -0.4375 C 3.28125 -0.570312 3.390625 -0.765625 3.390625 -1.015625 C 3.390625 -1.203125 3.332031 -1.359375 3.21875 -1.484375 C 3.113281 -1.609375 2.976562 -1.710938 2.8125 -1.796875 C 2.65625 -1.878906 2.429688 -1.976562 2.140625 -2.09375 C 1.785156 -2.226562 1.5 -2.351562 1.28125 -2.46875 C 1.070312 -2.582031 0.890625 -2.738281 0.734375 -2.9375 C 0.585938 -3.132812 0.515625 -3.382812 0.515625 -3.6875 C 0.515625 -3.90625 0.566406 -4.125 0.671875 -4.34375 C 0.785156 -4.5625 0.96875 -4.75 1.21875 -4.90625 C 1.46875 -5.0625 1.800781 -5.140625 2.21875 -5.140625 C 2.425781 -5.140625 2.632812 -5.101562 2.84375 -5.03125 C 3.0625 -4.96875 3.265625 -4.859375 3.453125 -4.703125 L 3.4375 -5.09375 L 3.859375 -5.09375 L 3.859375 -3.34375 L 3.53125 -3.34375 C 3.507812 -3.726562 3.390625 -4.0625 3.171875 -4.34375 C 2.960938 -4.625 2.660156 -4.765625 2.265625 -4.765625 C 1.972656 -4.765625 1.738281 -4.6875 1.5625 -4.53125 C 1.382812 -4.382812 1.296875 -4.210938 1.296875 -4.015625 C 1.296875 -3.816406 1.351562 -3.648438 1.46875 -3.515625 C 1.582031 -3.390625 1.722656 -3.28125 1.890625 -3.1875 C 2.066406 -3.09375 2.300781 -2.988281 2.59375 -2.875 C 2.9375 -2.738281 3.210938 -2.609375 3.421875 -2.484375 C 3.640625 -2.367188 3.820312 -2.210938 3.96875 -2.015625 C 4.125 -1.816406 4.203125 -1.578125 4.203125 -1.296875 C 4.203125 -0.984375 4.117188 -0.71875 3.953125 -0.5 C 3.796875 -0.28125 3.582031 -0.113281 3.3125 0 C 3.050781 0.101562 2.773438 0.15625 2.484375 0.15625 Z M 2.484375 0.15625 "/></g></g></g><g fill="#ffffff" fill-opacity="1"><g transform="translate(48.788143, 35.296943)"><g><path d="M 2.90625 0.15625 C 2.445312 0.15625 2.023438 0.0507812 1.640625 -0.15625 C 1.265625 -0.375 0.960938 -0.675781 0.734375 -1.0625 C 0.515625 -1.445312 0.40625 -1.882812 0.40625 -2.375 C 0.40625 -2.882812 0.515625 -3.347656 0.734375 -3.765625 C 0.953125 -4.191406 1.25 -4.523438 1.625 -4.765625 C 2.007812 -5.015625 2.4375 -5.140625 2.90625 -5.140625 C 3.363281 -5.140625 3.785156 -5.023438 4.171875 -4.796875 C 4.554688 -4.578125 4.859375 -4.273438 5.078125 -3.890625 C 5.304688 -3.503906 5.421875 -3.078125 5.421875 -2.609375 C 5.421875 -2.097656 5.304688 -1.628906 5.078125 -1.203125 C 4.859375 -0.785156 4.554688 -0.453125 4.171875 -0.203125 C 3.796875 0.0351562 3.375 0.15625 2.90625 0.15625 Z M 2.984375 -0.234375 C 3.472656 -0.234375 3.832031 -0.429688 4.0625 -0.828125 C 4.289062 -1.234375 4.40625 -1.726562 4.40625 -2.3125 C 4.40625 -2.988281 4.28125 -3.5625 4.03125 -4.03125 C 3.78125 -4.507812 3.40625 -4.75 2.90625 -4.75 C 2.414062 -4.75 2.046875 -4.546875 1.796875 -4.140625 C 1.546875 -3.742188 1.421875 -3.25 1.421875 -2.65625 C 1.421875 -2.226562 1.476562 -1.832031 1.59375 -1.46875 C 1.707031 -1.101562 1.882812 -0.804688 2.125 -0.578125 C 2.363281 -0.347656 2.648438 -0.234375 2.984375 -0.234375 Z M 2.984375 -0.234375 "/></g></g></g><g fill="#ffffff" fill-opacity="1"><g transform="translate(54.605998, 35.296943)"><g><path d="M 0.4375 -0.296875 C 0.632812 -0.296875 0.769531 -0.34375 0.84375 -0.4375 C 0.925781 -0.539062 0.972656 -0.660156 0.984375 -0.796875 C 1.003906 -0.941406 1.019531 -1.179688 1.03125 -1.515625 L 1.03125 -3.78125 C 1.03125 -4.0625 1.046875 -4.273438 1.078125 -4.421875 L 0.375 -4.390625 L 0.375 -4.8125 C 0.757812 -4.8125 1.023438 -4.832031 1.171875 -4.875 C 1.316406 -4.914062 1.441406 -4.984375 1.546875 -5.078125 L 1.828125 -5.078125 C 1.835938 -4.953125 1.851562 -4.75 1.875 -4.46875 C 2.09375 -4.664062 2.347656 -4.828125 2.640625 -4.953125 C 2.929688 -5.078125 3.21875 -5.140625 3.5 -5.140625 C 4.070312 -5.140625 4.488281 -4.957031 4.75 -4.59375 C 5.019531 -4.226562 5.15625 -3.664062 5.15625 -2.90625 L 5.15625 -1.0625 C 5.15625 -0.757812 5.140625 -0.53125 5.109375 -0.375 L 5.75 -0.40625 L 5.75 0 L 3.71875 0 L 3.71875 -0.296875 C 3.90625 -0.296875 4.039062 -0.34375 4.125 -0.4375 C 4.207031 -0.539062 4.253906 -0.664062 4.265625 -0.8125 C 4.285156 -0.957031 4.296875 -1.191406 4.296875 -1.515625 L 4.296875 -2.90625 C 4.296875 -3.476562 4.203125 -3.90625 4.015625 -4.1875 C 3.835938 -4.476562 3.554688 -4.625 3.171875 -4.625 C 2.929688 -4.625 2.691406 -4.5625 2.453125 -4.4375 C 2.222656 -4.320312 2.03125 -4.171875 1.875 -3.984375 C 1.882812 -3.910156 1.890625 -3.78125 1.890625 -3.59375 L 1.875 -1.0625 C 1.875 -0.757812 1.863281 -0.53125 1.84375 -0.375 L 2.46875 -0.40625 L 2.46875 0 L 0.4375 0 Z M 0.4375 -0.296875 "/></g></g></g><g fill="#ffffff" fill-opacity="1"><g transform="translate(60.642652, 35.296943)"><g><path d="M 1.828125 0.15625 C 1.347656 0.15625 0.976562 0.046875 0.71875 -0.171875 C 0.46875 -0.390625 0.34375 -0.675781 0.34375 -1.03125 C 0.34375 -1.414062 0.492188 -1.738281 0.796875 -2 C 1.109375 -2.269531 1.5 -2.46875 1.96875 -2.59375 C 2.4375 -2.71875 2.90625 -2.78125 3.375 -2.78125 L 3.375 -3.390625 C 3.375 -3.828125 3.3125 -4.164062 3.1875 -4.40625 C 3.0625 -4.644531 2.789062 -4.765625 2.375 -4.765625 C 2.164062 -4.765625 1.96875 -4.722656 1.78125 -4.640625 C 1.601562 -4.554688 1.472656 -4.425781 1.390625 -4.25 C 1.472656 -4.15625 1.515625 -4.03125 1.515625 -3.875 C 1.515625 -3.769531 1.476562 -3.671875 1.40625 -3.578125 C 1.332031 -3.492188 1.222656 -3.453125 1.078125 -3.453125 C 0.941406 -3.453125 0.832031 -3.492188 0.75 -3.578125 C 0.675781 -3.671875 0.640625 -3.789062 0.640625 -3.9375 C 0.640625 -4.15625 0.722656 -4.351562 0.890625 -4.53125 C 1.054688 -4.71875 1.289062 -4.863281 1.59375 -4.96875 C 1.894531 -5.082031 2.234375 -5.140625 2.609375 -5.140625 C 3.160156 -5.140625 3.566406 -4.988281 3.828125 -4.6875 C 4.097656 -4.394531 4.234375 -3.929688 4.234375 -3.296875 L 4.21875 -1.0625 C 4.21875 -0.84375 4.207031 -0.613281 4.1875 -0.375 L 4.890625 -0.421875 L 4.890625 0 L 3.46875 0 C 3.445312 -0.101562 3.421875 -0.289062 3.390625 -0.5625 C 2.910156 -0.0820312 2.390625 0.15625 1.828125 0.15625 Z M 2.0625 -0.40625 C 2.3125 -0.40625 2.539062 -0.453125 2.75 -0.546875 C 2.957031 -0.648438 3.164062 -0.800781 3.375 -1 C 3.363281 -1.09375 3.359375 -1.257812 3.359375 -1.5 L 3.375 -2.4375 C 2.832031 -2.414062 2.347656 -2.300781 1.921875 -2.09375 C 1.492188 -1.894531 1.28125 -1.585938 1.28125 -1.171875 C 1.28125 -0.929688 1.351562 -0.742188 1.5 -0.609375 C 1.644531 -0.472656 1.832031 -0.40625 2.0625 -0.40625 Z M 2.0625 -0.40625 "/></g></g></g><g fill="#ffffff" fill-opacity="1"><g transform="translate(65.774302, 35.296943)"><g><path d="M 0.34375 -0.296875 C 0.53125 -0.296875 0.664062 -0.34375 0.75 -0.4375 C 0.832031 -0.539062 0.878906 -0.664062 0.890625 -0.8125 C 0.910156 -0.957031 0.921875 -1.191406 0.921875 -1.515625 L 0.921875 -6.21875 C 0.921875 -6.46875 0.929688 -6.6875 0.953125 -6.875 L 0.25 -6.828125 L 0.25 -7.25 C 0.644531 -7.25 0.925781 -7.269531 1.09375 -7.3125 C 1.269531 -7.363281 1.40625 -7.429688 1.5 -7.515625 L 1.78125 -7.515625 L 1.796875 -1.0625 C 1.796875 -0.800781 1.773438 -0.570312 1.734375 -0.375 L 2.375 -0.40625 L 2.375 0 L 0.34375 0 Z M 0.34375 -0.296875 "/></g></g></g><g fill="#ffffff" fill-opacity="1"><g transform="translate(68.479363, 35.296943)"><g/></g></g><g fill="#ffffff" fill-opacity="1"><g transform="translate(71.09491, 35.296943)"><g><path d="M -0.0625 -0.328125 C 0.101562 -0.328125 0.234375 -0.363281 0.328125 -0.4375 C 0.429688 -0.519531 0.515625 -0.617188 0.578125 -0.734375 C 0.640625 -0.859375 0.71875 -1.046875 0.8125 -1.296875 L 0.90625 -1.578125 L 2.953125 -7.15625 L 3.1875 -7.15625 L 5.421875 -1.5 C 5.492188 -1.3125 5.554688 -1.113281 5.609375 -0.90625 C 5.660156 -0.695312 5.679688 -0.523438 5.671875 -0.390625 L 6.34375 -0.4375 L 6.34375 0 L 4.078125 0 L 4.078125 -0.328125 C 4.460938 -0.335938 4.65625 -0.5 4.65625 -0.8125 C 4.65625 -0.9375 4.625 -1.09375 4.5625 -1.28125 L 4.203125 -2.203125 L 1.625 -2.15625 C 1.519531 -1.875 1.40625 -1.515625 1.28125 -1.078125 C 1.207031 -0.859375 1.125 -0.628906 1.03125 -0.390625 L 1.796875 -0.4375 L 1.796875 0 L -0.0625 0 Z M 4.078125 -2.578125 L 3.359375 -4.484375 L 2.921875 -5.703125 L 2.890625 -5.703125 L 2.484375 -4.578125 L 1.9375 -3.0625 L 1.765625 -2.578125 Z M 4.078125 -2.578125 "/></g></g></g><g fill="#ffffff" fill-opacity="1"><g transform="translate(77.32051, 35.296943)"><g><path d="M 0.546875 -0.328125 C 0.773438 -0.335938 0.9375 -0.390625 1.03125 -0.484375 C 1.132812 -0.585938 1.191406 -0.707031 1.203125 -0.84375 C 1.222656 -0.976562 1.234375 -1.210938 1.234375 -1.546875 L 1.234375 -5.859375 C 1.234375 -6.128906 1.242188 -6.363281 1.265625 -6.5625 L 0.546875 -6.53125 L 0.546875 -6.96875 L 2.78125 -6.96875 L 2.78125 -6.640625 C 2.550781 -6.628906 2.382812 -6.570312 2.28125 -6.46875 C 2.1875 -6.375 2.128906 -6.257812 2.109375 -6.125 C 2.097656 -5.988281 2.09375 -5.753906 2.09375 -5.421875 L 2.09375 -1.1875 C 2.09375 -0.832031 2.082031 -0.566406 2.0625 -0.390625 L 2.78125 -0.4375 L 2.78125 0 L 0.546875 0 Z M 0.546875 -0.328125 "/></g></g></g><g fill="#ffffff" fill-opacity="1"><g transform="translate(80.652103, 35.296943)"><g/></g></g><g fill="#ffffff" fill-opacity="1"><g transform="translate(83.26765, 35.296943)"><g><path d="M 3.75 -1.140625 C 3.238281 -2.265625 2.84375 -3.148438 2.5625 -3.796875 C 2.289062 -4.441406 2.019531 -5.125 1.75 -5.84375 L 1.734375 -5.40625 C 1.679688 -3.457031 1.644531 -2.070312 1.625 -1.25 C 1.625 -1.144531 1.625 -1.070312 1.625 -1.03125 C 1.625 -0.800781 1.613281 -0.585938 1.59375 -0.390625 L 2.34375 -0.4375 L 2.34375 0 L 0.4375 0 L 0.4375 -0.328125 C 0.71875 -0.335938 0.898438 -0.414062 0.984375 -0.5625 C 1.066406 -0.707031 1.113281 -0.9375 1.125 -1.25 L 1.34375 -6.5625 L 0.625 -6.546875 L 0.625 -6.96875 L 2.15625 -6.96875 L 3.5 -3.84375 C 3.988281 -2.6875 4.367188 -1.8125 4.640625 -1.21875 L 4.65625 -1.21875 C 4.738281 -1.414062 4.910156 -1.84375 5.171875 -2.5 C 5.421875 -3.132812 5.707031 -3.832031 6.03125 -4.59375 C 6.40625 -5.488281 6.726562 -6.28125 7 -6.96875 L 8.484375 -6.96875 L 8.484375 -6.640625 C 8.242188 -6.648438 8.066406 -6.582031 7.953125 -6.4375 C 7.835938 -6.300781 7.78125 -6.070312 7.78125 -5.75 L 7.796875 -5.546875 L 8.046875 -1.03125 C 8.066406 -0.875 8.078125 -0.664062 8.078125 -0.40625 L 8.796875 -0.4375 L 8.796875 0 L 6.5625 0 L 6.5625 -0.328125 C 6.820312 -0.335938 7 -0.410156 7.09375 -0.546875 C 7.1875 -0.691406 7.234375 -0.914062 7.234375 -1.21875 C 7.234375 -1.34375 7.226562 -1.441406 7.21875 -1.515625 L 6.96875 -5.75 C 6.957031 -5.71875 6.9375 -5.675781 6.90625 -5.625 C 6.882812 -5.570312 6.863281 -5.507812 6.84375 -5.4375 L 4.59375 0.09375 L 4.296875 0.09375 Z M 3.75 -1.140625 "/></g></g></g><g fill="#ffffff" fill-opacity="1"><g transform="translate(92.397207, 35.296943)"><g><path d="M 2.53125 0.15625 C 1.96875 0.15625 1.554688 -0.00390625 1.296875 -0.328125 C 1.035156 -0.648438 0.90625 -1.210938 0.90625 -2.015625 L 0.90625 -3.78125 C 0.90625 -4.0625 0.921875 -4.273438 0.953125 -4.421875 L 0.265625 -4.40625 L 0.265625 -4.8125 L 0.5625 -4.8125 C 0.820312 -4.8125 1.019531 -4.832031 1.15625 -4.875 C 1.289062 -4.925781 1.40625 -4.992188 1.5 -5.078125 L 1.78125 -5.078125 L 1.78125 -2.046875 C 1.78125 -1.460938 1.859375 -1.03125 2.015625 -0.75 C 2.179688 -0.476562 2.457031 -0.34375 2.84375 -0.34375 C 3.082031 -0.34375 3.316406 -0.414062 3.546875 -0.5625 C 3.785156 -0.707031 3.976562 -0.890625 4.125 -1.109375 L 4.125 -3.671875 C 4.125 -3.984375 4.144531 -4.234375 4.1875 -4.421875 L 3.46875 -4.40625 L 3.46875 -4.8125 L 3.765625 -4.8125 C 4.023438 -4.8125 4.222656 -4.832031 4.359375 -4.875 C 4.492188 -4.925781 4.609375 -4.992188 4.703125 -5.078125 L 4.984375 -5.078125 L 4.96875 -1.3125 C 4.96875 -0.925781 4.957031 -0.613281 4.9375 -0.375 L 5.65625 -0.421875 L 5.65625 0 L 4.234375 0 C 4.203125 -0.207031 4.175781 -0.40625 4.15625 -0.59375 C 3.9375 -0.375 3.679688 -0.191406 3.390625 -0.046875 C 3.097656 0.0859375 2.8125 0.15625 2.53125 0.15625 Z M 2.53125 0.15625 "/></g></g></g><g fill="#ffffff" fill-opacity="1"><g transform="translate(98.334408, 35.296943)"><g><path d="M 2.484375 0.15625 C 2.171875 0.15625 1.882812 0.113281 1.625 0.03125 C 1.363281 -0.0507812 1.140625 -0.15625 0.953125 -0.28125 L 1 0.0625 L 0.578125 0.0625 L 0.515625 -1.640625 L 0.828125 -1.640625 C 0.835938 -1.367188 0.910156 -1.125 1.046875 -0.90625 C 1.179688 -0.695312 1.359375 -0.53125 1.578125 -0.40625 C 1.804688 -0.289062 2.046875 -0.234375 2.296875 -0.234375 C 2.585938 -0.234375 2.84375 -0.300781 3.0625 -0.4375 C 3.28125 -0.570312 3.390625 -0.765625 3.390625 -1.015625 C 3.390625 -1.203125 3.332031 -1.359375 3.21875 -1.484375 C 3.113281 -1.609375 2.976562 -1.710938 2.8125 -1.796875 C 2.65625 -1.878906 2.429688 -1.976562 2.140625 -2.09375 C 1.785156 -2.226562 1.5 -2.351562 1.28125 -2.46875 C 1.070312 -2.582031 0.890625 -2.738281 0.734375 -2.9375 C 0.585938 -3.132812 0.515625 -3.382812 0.515625 -3.6875 C 0.515625 -3.90625 0.566406 -4.125 0.671875 -4.34375 C 0.785156 -4.5625 0.96875 -4.75 1.21875 -4.90625 C 1.46875 -5.0625 1.800781 -5.140625 2.21875 -5.140625 C 2.425781 -5.140625 2.632812 -5.101562 2.84375 -5.03125 C 3.0625 -4.96875 3.265625 -4.859375 3.453125 -4.703125 L 3.4375 -5.09375 L 3.859375 -5.09375 L 3.859375 -3.34375 L 3.53125 -3.34375 C 3.507812 -3.726562 3.390625 -4.0625 3.171875 -4.34375 C 2.960938 -4.625 2.660156 -4.765625 2.265625 -4.765625 C 1.972656 -4.765625 1.738281 -4.6875 1.5625 -4.53125 C 1.382812 -4.382812 1.296875 -4.210938 1.296875 -4.015625 C 1.296875 -3.816406 1.351562 -3.648438 1.46875 -3.515625 C 1.582031 -3.390625 1.722656 -3.28125 1.890625 -3.1875 C 2.066406 -3.09375 2.300781 -2.988281 2.59375 -2.875 C 2.9375 -2.738281 3.210938 -2.609375 3.421875 -2.484375 C 3.640625 -2.367188 3.820312 -2.210938 3.96875 -2.015625 C 4.125 -1.816406 4.203125 -1.578125 4.203125 -1.296875 C 4.203125 -0.984375 4.117188 -0.71875 3.953125 -0.5 C 3.796875 -0.28125 3.582031 -0.113281 3.3125 0 C 3.050781 0.101562 2.773438 0.15625 2.484375 0.15625 Z M 2.484375 0.15625 "/></g></g></g><g fill="#ffffff" fill-opacity="1"><g transform="translate(102.938968, 35.296943)"><g><path d="M 1.421875 -6.0625 C 1.285156 -6.0625 1.160156 -6.117188 1.046875 -6.234375 C 0.941406 -6.347656 0.890625 -6.488281 0.890625 -6.65625 C 0.890625 -6.8125 0.941406 -6.945312 1.046875 -7.0625 C 1.160156 -7.1875 1.289062 -7.25 1.4375 -7.25 C 1.582031 -7.25 1.707031 -7.1875 1.8125 -7.0625 C 1.914062 -6.945312 1.96875 -6.8125 1.96875 -6.65625 C 1.96875 -6.488281 1.910156 -6.347656 1.796875 -6.234375 C 1.691406 -6.117188 1.566406 -6.0625 1.421875 -6.0625 Z M 0.4375 -0.296875 C 0.632812 -0.296875 0.769531 -0.34375 0.84375 -0.4375 C 0.925781 -0.539062 0.976562 -0.664062 1 -0.8125 C 1.019531 -0.957031 1.03125 -1.191406 1.03125 -1.515625 L 1.03125 -3.78125 C 1.03125 -3.976562 1.039062 -4.191406 1.0625 -4.421875 L 0.359375 -4.390625 L 0.359375 -4.8125 C 0.753906 -4.8125 1.035156 -4.832031 1.203125 -4.875 C 1.367188 -4.925781 1.5 -4.992188 1.59375 -5.078125 L 1.875 -5.078125 L 1.875 -1.0625 C 1.875 -0.757812 1.863281 -0.53125 1.84375 -0.375 L 2.46875 -0.40625 L 2.46875 0 L 0.4375 0 Z M 0.4375 -0.296875 "/></g></g></g><g fill="#ffffff" fill-opacity="1"><g transform="translate(105.733532, 35.296943)"><g><path d="M 2.859375 0.15625 C 2.410156 0.15625 2 0.0546875 1.625 -0.140625 C 1.25 -0.347656 0.953125 -0.644531 0.734375 -1.03125 C 0.515625 -1.414062 0.40625 -1.875 0.40625 -2.40625 C 0.40625 -2.863281 0.515625 -3.300781 0.734375 -3.71875 C 0.960938 -4.144531 1.273438 -4.488281 1.671875 -4.75 C 2.066406 -5.007812 2.507812 -5.140625 3 -5.140625 C 3.363281 -5.140625 3.679688 -5.082031 3.953125 -4.96875 C 4.234375 -4.851562 4.453125 -4.703125 4.609375 -4.515625 C 4.765625 -4.328125 4.84375 -4.125 4.84375 -3.90625 C 4.84375 -3.757812 4.800781 -3.632812 4.71875 -3.53125 C 4.632812 -3.4375 4.515625 -3.390625 4.359375 -3.390625 C 4.210938 -3.390625 4.101562 -3.4375 4.03125 -3.53125 C 3.957031 -3.625 3.921875 -3.722656 3.921875 -3.828125 C 3.921875 -3.992188 3.972656 -4.128906 4.078125 -4.234375 C 4.003906 -4.429688 3.859375 -4.566406 3.640625 -4.640625 C 3.429688 -4.722656 3.226562 -4.765625 3.03125 -4.765625 C 2.71875 -4.765625 2.441406 -4.679688 2.203125 -4.515625 C 1.960938 -4.347656 1.769531 -4.101562 1.625 -3.78125 C 1.488281 -3.46875 1.421875 -3.085938 1.421875 -2.640625 C 1.421875 -2.203125 1.488281 -1.8125 1.625 -1.46875 C 1.769531 -1.125 1.972656 -0.851562 2.234375 -0.65625 C 2.492188 -0.457031 2.796875 -0.359375 3.140625 -0.359375 C 3.429688 -0.359375 3.722656 -0.4375 4.015625 -0.59375 C 4.304688 -0.757812 4.535156 -0.96875 4.703125 -1.21875 L 4.953125 -1.015625 C 4.710938 -0.628906 4.394531 -0.335938 4 -0.140625 C 3.613281 0.0546875 3.234375 0.15625 2.859375 0.15625 Z M 2.859375 0.15625 "/></g></g></g><g fill="#ffffff" fill-opacity="1"><g transform="translate(111.024298, 35.296943)"><g/></g></g><g fill="#ffffff" fill-opacity="1"><g transform="translate(113.639844, 35.296943)"><g><path d="M 0.546875 -0.328125 C 0.773438 -0.335938 0.9375 -0.390625 1.03125 -0.484375 C 1.132812 -0.585938 1.191406 -0.707031 1.203125 -0.84375 C 1.222656 -0.976562 1.234375 -1.210938 1.234375 -1.546875 L 1.234375 -5.859375 C 1.234375 -6.128906 1.242188 -6.363281 1.265625 -6.5625 L 0.546875 -6.53125 L 0.546875 -6.96875 C 1.472656 -6.976562 2.210938 -6.984375 2.765625 -6.984375 C 3.753906 -6.984375 4.5 -6.8125 5 -6.46875 C 5.507812 -6.125 5.765625 -5.617188 5.765625 -4.953125 C 5.765625 -4.566406 5.664062 -4.195312 5.46875 -3.84375 C 5.269531 -3.488281 4.921875 -3.195312 4.421875 -2.96875 C 3.929688 -2.738281 3.273438 -2.625 2.453125 -2.625 C 2.304688 -2.625 2.1875 -2.625 2.09375 -2.625 L 2.09375 -1.1875 C 2.09375 -0.832031 2.082031 -0.566406 2.0625 -0.390625 L 2.984375 -0.453125 L 2.984375 0 L 0.546875 0 Z M 2.75 -3 C 3.125 -3 3.46875 -3.070312 3.78125 -3.21875 C 4.101562 -3.375 4.351562 -3.59375 4.53125 -3.875 C 4.71875 -4.15625 4.8125 -4.484375 4.8125 -4.859375 C 4.8125 -5.460938 4.628906 -5.898438 4.265625 -6.171875 C 3.898438 -6.453125 3.394531 -6.59375 2.75 -6.59375 C 2.519531 -6.59375 2.359375 -6.546875 2.265625 -6.453125 C 2.179688 -6.359375 2.128906 -6.25 2.109375 -6.125 C 2.097656 -6 2.09375 -5.765625 2.09375 -5.421875 L 2.09375 -3.03125 C 2.257812 -3.007812 2.476562 -3 2.75 -3 Z M 2.75 -3 "/></g></g></g><g fill="#ffffff" fill-opacity="1"><g transform="translate(119.666547, 35.296943)"><g><path d="M 1.828125 0.15625 C 1.347656 0.15625 0.976562 0.046875 0.71875 -0.171875 C 0.46875 -0.390625 0.34375 -0.675781 0.34375 -1.03125 C 0.34375 -1.414062 0.492188 -1.738281 0.796875 -2 C 1.109375 -2.269531 1.5 -2.46875 1.96875 -2.59375 C 2.4375 -2.71875 2.90625 -2.78125 3.375 -2.78125 L 3.375 -3.390625 C 3.375 -3.828125 3.3125 -4.164062 3.1875 -4.40625 C 3.0625 -4.644531 2.789062 -4.765625 2.375 -4.765625 C 2.164062 -4.765625 1.96875 -4.722656 1.78125 -4.640625 C 1.601562 -4.554688 1.472656 -4.425781 1.390625 -4.25 C 1.472656 -4.15625 1.515625 -4.03125 1.515625 -3.875 C 1.515625 -3.769531 1.476562 -3.671875 1.40625 -3.578125 C 1.332031 -3.492188 1.222656 -3.453125 1.078125 -3.453125 C 0.941406 -3.453125 0.832031 -3.492188 0.75 -3.578125 C 0.675781 -3.671875 0.640625 -3.789062 0.640625 -3.9375 C 0.640625 -4.15625 0.722656 -4.351562 0.890625 -4.53125 C 1.054688 -4.71875 1.289062 -4.863281 1.59375 -4.96875 C 1.894531 -5.082031 2.234375 -5.140625 2.609375 -5.140625 C 3.160156 -5.140625 3.566406 -4.988281 3.828125 -4.6875 C 4.097656 -4.394531 4.234375 -3.929688 4.234375 -3.296875 L 4.21875 -1.0625 C 4.21875 -0.84375 4.207031 -0.613281 4.1875 -0.375 L 4.890625 -0.421875 L 4.890625 0 L 3.46875 0 C 3.445312 -0.101562 3.421875 -0.289062 3.390625 -0.5625 C 2.910156 -0.0820312 2.390625 0.15625 1.828125 0.15625 Z M 2.0625 -0.40625 C 2.3125 -0.40625 2.539062 -0.453125 2.75 -0.546875 C 2.957031 -0.648438 3.164062 -0.800781 3.375 -1 C 3.363281 -1.09375 3.359375 -1.257812 3.359375 -1.5 L 3.375 -2.4375 C 2.832031 -2.414062 2.347656 -2.300781 1.921875 -2.09375 C 1.492188 -1.894531 1.28125 -1.585938 1.28125 -1.171875 C 1.28125 -0.929688 1.351562 -0.742188 1.5 -0.609375 C 1.644531 -0.472656 1.832031 -0.40625 2.0625 -0.40625 Z M 2.0625 -0.40625 "/></g></g></g><g fill="#ffffff" fill-opacity="1"><g transform="translate(124.798197, 35.296943)"><g><path d="M 0.4375 -0.296875 C 0.632812 -0.296875 0.769531 -0.34375 0.84375 -0.4375 C 0.925781 -0.539062 0.976562 -0.664062 1 -0.8125 C 1.019531 -0.957031 1.03125 -1.191406 1.03125 -1.515625 L 1.03125 -3.78125 C 1.03125 -4.0625 1.039062 -4.273438 1.0625 -4.421875 L 0.359375 -4.40625 L 0.359375 -4.8125 L 0.671875 -4.8125 C 0.921875 -4.8125 1.101562 -4.832031 1.21875 -4.875 C 1.332031 -4.914062 1.4375 -4.984375 1.53125 -5.078125 L 1.828125 -5.078125 C 1.847656 -4.816406 1.863281 -4.488281 1.875 -4.09375 C 2.039062 -4.363281 2.273438 -4.601562 2.578125 -4.8125 C 2.890625 -5.03125 3.210938 -5.140625 3.546875 -5.140625 C 3.742188 -5.140625 3.90625 -5.082031 4.03125 -4.96875 C 4.164062 -4.863281 4.234375 -4.710938 4.234375 -4.515625 C 4.234375 -4.398438 4.191406 -4.289062 4.109375 -4.1875 C 4.023438 -4.082031 3.910156 -4.03125 3.765625 -4.03125 C 3.617188 -4.03125 3.5 -4.082031 3.40625 -4.1875 C 3.3125 -4.300781 3.273438 -4.4375 3.296875 -4.59375 C 3.046875 -4.59375 2.789062 -4.492188 2.53125 -4.296875 C 2.28125 -4.097656 2.0625 -3.832031 1.875 -3.5 L 1.890625 -1.0625 C 1.890625 -0.757812 1.875 -0.53125 1.84375 -0.375 L 2.484375 -0.40625 L 2.484375 0 L 0.4375 0 Z M 0.4375 -0.296875 "/></g></g></g><g fill="#ffffff" fill-opacity="1"><g transform="translate(129.104407, 35.296943)"><g><path d="M 2.3125 0.15625 C 1.40625 0.15625 0.953125 -0.453125 0.953125 -1.671875 L 0.96875 -4.5625 L 0.203125 -4.546875 L 0.203125 -4.96875 C 0.523438 -4.976562 0.796875 -5.125 1.015625 -5.40625 C 1.242188 -5.6875 1.410156 -6.007812 1.515625 -6.375 L 1.84375 -6.375 L 1.84375 -4.96875 L 3.515625 -4.96875 L 3.515625 -4.59375 L 1.84375 -4.5625 C 1.84375 -3.550781 1.835938 -2.847656 1.828125 -2.453125 C 1.828125 -2.066406 1.828125 -1.847656 1.828125 -1.796875 C 1.828125 -1.328125 1.882812 -0.976562 2 -0.75 C 2.113281 -0.519531 2.3125 -0.40625 2.59375 -0.40625 C 2.757812 -0.40625 2.925781 -0.457031 3.09375 -0.5625 C 3.269531 -0.675781 3.421875 -0.820312 3.546875 -1 L 3.8125 -0.78125 C 3.550781 -0.394531 3.296875 -0.140625 3.046875 -0.015625 C 2.796875 0.0976562 2.550781 0.15625 2.3125 0.15625 Z M 2.3125 0.15625 "/></g></g></g><g fill="#ffffff" fill-opacity="1"><g transform="translate(132.953139, 35.296943)"><g><path d="M 0.4375 -0.296875 C 0.632812 -0.296875 0.769531 -0.34375 0.84375 -0.4375 C 0.925781 -0.539062 0.972656 -0.660156 0.984375 -0.796875 C 1.003906 -0.941406 1.019531 -1.179688 1.03125 -1.515625 L 1.03125 -3.78125 C 1.03125 -4.0625 1.046875 -4.273438 1.078125 -4.421875 L 0.375 -4.390625 L 0.375 -4.8125 C 0.757812 -4.8125 1.023438 -4.832031 1.171875 -4.875 C 1.316406 -4.914062 1.441406 -4.984375 1.546875 -5.078125 L 1.828125 -5.078125 C 1.835938 -4.953125 1.851562 -4.75 1.875 -4.46875 C 2.09375 -4.664062 2.347656 -4.828125 2.640625 -4.953125 C 2.929688 -5.078125 3.21875 -5.140625 3.5 -5.140625 C 4.070312 -5.140625 4.488281 -4.957031 4.75 -4.59375 C 5.019531 -4.226562 5.15625 -3.664062 5.15625 -2.90625 L 5.15625 -1.0625 C 5.15625 -0.757812 5.140625 -0.53125 5.109375 -0.375 L 5.75 -0.40625 L 5.75 0 L 3.71875 0 L 3.71875 -0.296875 C 3.90625 -0.296875 4.039062 -0.34375 4.125 -0.4375 C 4.207031 -0.539062 4.253906 -0.664062 4.265625 -0.8125 C 4.285156 -0.957031 4.296875 -1.191406 4.296875 -1.515625 L 4.296875 -2.90625 C 4.296875 -3.476562 4.203125 -3.90625 4.015625 -4.1875 C 3.835938 -4.476562 3.554688 -4.625 3.171875 -4.625 C 2.929688 -4.625 2.691406 -4.5625 2.453125 -4.4375 C 2.222656 -4.320312 2.03125 -4.171875 1.875 -3.984375 C 1.882812 -3.910156 1.890625 -3.78125 1.890625 -3.59375 L 1.875 -1.0625 C 1.875 -0.757812 1.863281 -0.53125 1.84375 -0.375 L 2.46875 -0.40625 L 2.46875 0 L 0.4375 0 Z M 0.4375 -0.296875 "/></g></g></g><g fill="#ffffff" fill-opacity="1"><g transform="translate(138.989793, 35.296943)"><g><path d="M 2.84375 0.15625 C 2.382812 0.15625 1.972656 0.0507812 1.609375 -0.15625 C 1.242188 -0.375 0.953125 -0.679688 0.734375 -1.078125 C 0.523438 -1.484375 0.421875 -1.953125 0.421875 -2.484375 C 0.421875 -2.941406 0.523438 -3.375 0.734375 -3.78125 C 0.953125 -4.195312 1.25 -4.523438 1.625 -4.765625 C 2.007812 -5.015625 2.441406 -5.140625 2.921875 -5.140625 C 3.304688 -5.140625 3.648438 -5.054688 3.953125 -4.890625 C 4.253906 -4.722656 4.492188 -4.472656 4.671875 -4.140625 C 4.859375 -3.816406 4.953125 -3.414062 4.953125 -2.9375 L 1.4375 -2.875 C 1.4375 -2.082031 1.566406 -1.460938 1.828125 -1.015625 C 2.097656 -0.566406 2.515625 -0.34375 3.078125 -0.34375 C 3.390625 -0.34375 3.707031 -0.421875 4.03125 -0.578125 C 4.351562 -0.742188 4.597656 -0.941406 4.765625 -1.171875 L 5 -0.96875 C 4.75 -0.582031 4.421875 -0.296875 4.015625 -0.109375 C 3.617188 0.0664062 3.226562 0.15625 2.84375 0.15625 Z M 4.015625 -3.296875 C 4.015625 -3.691406 3.921875 -4.03125 3.734375 -4.3125 C 3.554688 -4.601562 3.289062 -4.75 2.9375 -4.75 C 2.113281 -4.75 1.625 -4.265625 1.46875 -3.296875 Z M 4.015625 -3.296875 "/></g></g></g><g fill="#ffffff" fill-opacity="1"><g transform="translate(144.380013, 35.296943)"><g><path d="M 0.4375 -0.296875 C 0.632812 -0.296875 0.769531 -0.34375 0.84375 -0.4375 C 0.925781 -0.539062 0.976562 -0.664062 1 -0.8125 C 1.019531 -0.957031 1.03125 -1.191406 1.03125 -1.515625 L 1.03125 -3.78125 C 1.03125 -4.0625 1.039062 -4.273438 1.0625 -4.421875 L 0.359375 -4.40625 L 0.359375 -4.8125 L 0.671875 -4.8125 C 0.921875 -4.8125 1.101562 -4.832031 1.21875 -4.875 C 1.332031 -4.914062 1.4375 -4.984375 1.53125 -5.078125 L 1.828125 -5.078125 C 1.847656 -4.816406 1.863281 -4.488281 1.875 -4.09375 C 2.039062 -4.363281 2.273438 -4.601562 2.578125 -4.8125 C 2.890625 -5.03125 3.210938 -5.140625 3.546875 -5.140625 C 3.742188 -5.140625 3.90625 -5.082031 4.03125 -4.96875 C 4.164062 -4.863281 4.234375 -4.710938 4.234375 -4.515625 C 4.234375 -4.398438 4.191406 -4.289062 4.109375 -4.1875 C 4.023438 -4.082031 3.910156 -4.03125 3.765625 -4.03125 C 3.617188 -4.03125 3.5 -4.082031 3.40625 -4.1875 C 3.3125 -4.300781 3.273438 -4.4375 3.296875 -4.59375 C 3.046875 -4.59375 2.789062 -4.492188 2.53125 -4.296875 C 2.28125 -4.097656 2.0625 -3.832031 1.875 -3.5 L 1.890625 -1.0625 C 1.890625 -0.757812 1.875 -0.53125 1.84375 -0.375 L 2.484375 -0.40625 L 2.484375 0 L 0.4375 0 Z M 0.4375 -0.296875 "/></g></g></g><g clip-path="url(#3886ee0894)"><path fill="#f15107" d="M 158.144531 12.601562 C 158.972656 11.785156 157.128906 10.910156 155.917969 9.898438 C 154.886719 9.03125 154.316406 8.519531 154.308594 7.867188 C 154.257812 4.398438 152.667969 2.4375 151.101562 1.503906 C 151.171875 1.632812 151.234375 1.769531 151.289062 1.914062 C 152.019531 3.867188 151.289062 6.257812 149.117188 9.015625 C 149.179688 9.71875 149.25 10.480469 149.328125 11.292969 C 150.835938 11.339844 152.234375 11.898438 153.289062 12.878906 C 154.425781 13.941406 155.054688 15.398438 155.054688 16.980469 C 155.054688 19.222656 153.808594 21.171875 151.972656 22.183594 C 153.199219 22.496094 153.980469 22.878906 154.695312 22.746094 C 156.296875 22.449219 156.042969 21.054688 155.929688 20.300781 C 155.816406 19.546875 156.25 18.945312 156.976562 18.574219 C 157.703125 18.199219 157.625 17.402344 157.152344 17.207031 C 156.675781 17.007812 155.800781 16.75 156.144531 16.308594 C 156.515625 15.839844 157.566406 15.695312 157.714844 15.183594 C 157.867188 14.667969 156.746094 14.414062 156.851562 13.953125 C 156.988281 13.375 157.628906 13.113281 158.144531 12.601562 Z M 158.144531 12.601562 " fill-opacity="1" fill-rule="nonzero"/></g><path fill="#f15107" d="M 152.789062 13.414062 C 151.824219 12.515625 150.523438 12.019531 149.121094 12.019531 C 147.816406 12.019531 145.761719 13.1875 145.292969 15.378906 C 145.898438 14.121094 147.203125 12.75 149.121094 12.75 C 151.671875 12.75 153.59375 14.570312 153.59375 16.980469 C 153.59375 19.445312 151.585938 21.453125 149.121094 21.453125 L 149.121094 22.183594 C 151.988281 22.183594 154.324219 19.851562 154.324219 16.980469 C 154.324219 15.601562 153.777344 14.335938 152.789062 13.414062 Z M 152.789062 13.414062 " fill-opacity="1" fill-rule="nonzero"/><g clip-path="url(#ed7671bb2f)"><path fill="#f15107" d="M 148.363281 8.789062 C 150.507812 6.144531 151.257812 3.917969 150.601562 2.171875 C 150.257812 1.246094 149.5 0.703125 148.726562 0.824219 C 148.082031 0.921875 147.367188 1.507812 147.292969 2.859375 C 147.25 3.652344 147.355469 5.5625 147.613281 8.554688 C 147.394531 8.820312 147.171875 9.085938 146.953125 9.339844 C 145.003906 11.660156 143.160156 13.851562 143.160156 16.742188 C 143.160156 18.769531 144.660156 21.9375 148.648438 22.167969 C 148.542969 24.636719 148.042969 25.398438 147.835938 25.613281 C 147.507812 25.9375 146.976562 25.9375 146.652344 25.613281 C 146.492188 25.453125 146.40625 25.242188 146.40625 25.019531 C 146.40625 24.300781 147.125 23.441406 148.351562 23.910156 C 148.054688 23.613281 147.660156 23.453125 147.242188 23.453125 C 146.824219 23.453125 146.429688 23.613281 146.132812 23.910156 C 145.839844 24.207031 145.675781 24.601562 145.675781 25.019531 C 145.675781 25.4375 145.835938 25.832031 146.132812 26.128906 C 146.441406 26.433594 146.839844 26.585938 147.242188 26.585938 C 147.644531 26.585938 148.046875 26.433594 148.355469 26.125 C 149.375 25.089844 149.65625 21.828125 149.152344 16.945312 C 148.816406 13.679688 148.554688 10.957031 148.363281 8.789062 Z M 148.023438 2.898438 C 148.074219 1.984375 148.476562 1.601562 148.835938 1.546875 C 148.871094 1.542969 148.902344 1.539062 148.9375 1.539062 C 149.328125 1.539062 149.714844 1.882812 149.917969 2.425781 C 150.429688 3.789062 149.875 5.566406 148.273438 7.714844 C 148.070312 5.210938 147.984375 3.597656 148.023438 2.898438 Z M 148.667969 21.4375 C 145.199219 21.21875 143.890625 18.488281 143.890625 16.742188 C 143.890625 14.117188 145.652344 12.023438 147.515625 9.8125 C 147.574219 9.738281 147.640625 9.664062 147.703125 9.585938 C 147.882812 11.632812 148.125 14.113281 148.425781 17.019531 C 148.613281 18.847656 148.679688 20.296875 148.667969 21.4375 Z M 148.667969 21.4375 " fill-opacity="1" fill-rule="nonzero"/></g><path fill="#f15107" d="M 145.65625 8.277344 C 143.890625 10.667969 142.472656 12.941406 142 15.179688 C 141.519531 17.4375 142.195312 19.953125 143.289062 21.410156 C 141.300781 19.75 140.867188 16.796875 141.320312 14.859375 C 141.871094 12.515625 143.578125 9.976562 145.65625 8.277344 Z M 145.65625 8.277344 " fill-opacity="1" fill-rule="nonzero"/><g clip-path="url(#d80ebf412b)"><path fill="#f15107" d="M 143.777344 7.476562 C 141.875 10.175781 140.316406 12.730469 139.851562 15.253906 C 139.347656 17.996094 140.53125 20.902344 141.738281 22.523438 C 139.417969 20.785156 138.632812 17.074219 139.109375 14.898438 C 139.691406 12.261719 141.527344 9.398438 143.777344 7.476562 Z M 143.777344 7.476562 " fill-opacity="1" fill-rule="nonzero"/></g></svg>