<svg xmlns="http://www.w3.org/2000/svg" xmlns:xlink="http://www.w3.org/1999/xlink" width="380" zoomAndPan="magnify" viewBox="0 0 285 67.499998" height="90" preserveAspectRatio="xMidYMid meet" version="1.0"><defs><g/><clipPath id="f926c110ee"><path d="M 161 26.820312 L 168 26.820312 L 168 49.15625 L 161 49.15625 Z M 161 26.820312 " clip-rule="nonzero"/></clipPath><clipPath id="4a50aa88b5"><path d="M 157.164062 32 L 162 32 L 162 46 L 157.164062 46 Z M 157.164062 32 " clip-rule="nonzero"/></clipPath></defs><path fill="#f15107" d="M 174.046875 37.113281 C 174.761719 36.40625 173.164062 35.648438 172.121094 34.773438 C 171.226562 34.023438 170.734375 33.582031 170.722656 33.019531 C 170.679688 30.015625 169.304688 28.320312 167.953125 27.511719 C 168.011719 27.625 168.066406 27.742188 168.113281 27.867188 C 168.746094 29.558594 168.113281 31.625 166.234375 34.011719 C 166.289062 34.617188 166.347656 35.277344 166.414062 35.984375 C 167.71875 36.023438 168.933594 36.503906 169.84375 37.355469 C 170.828125 38.273438 171.371094 39.53125 171.371094 40.902344 C 171.371094 42.839844 170.292969 44.527344 168.703125 45.402344 C 169.765625 45.671875 170.441406 46.003906 171.058594 45.890625 C 172.445312 45.632812 172.226562 44.425781 172.128906 43.773438 C 172.03125 43.121094 172.40625 42.601562 173.035156 42.28125 C 173.660156 41.957031 173.597656 41.269531 173.183594 41.097656 C 172.773438 40.925781 172.019531 40.699219 172.316406 40.320312 C 172.632812 39.914062 173.542969 39.792969 173.675781 39.347656 C 173.804688 38.902344 172.832031 38.679688 172.925781 38.28125 C 173.042969 37.78125 173.601562 37.554688 174.046875 37.113281 Z M 174.046875 37.113281 " fill-opacity="1" fill-rule="nonzero"/><path fill="#f15107" d="M 169.414062 37.816406 C 168.578125 37.039062 167.449219 36.609375 166.238281 36.609375 C 165.109375 36.609375 163.332031 37.621094 162.925781 39.515625 C 163.449219 38.425781 164.578125 37.242188 166.238281 37.242188 C 168.445312 37.242188 170.105469 38.816406 170.105469 40.902344 C 170.105469 43.035156 168.371094 44.769531 166.238281 44.769531 L 166.238281 45.402344 C 168.71875 45.402344 170.738281 43.382812 170.738281 40.902344 C 170.738281 39.710938 170.269531 38.613281 169.414062 37.816406 Z M 169.414062 37.816406 " fill-opacity="1" fill-rule="nonzero"/><g clip-path="url(#f926c110ee)"><path fill="#f15107" d="M 165.582031 33.816406 C 167.4375 31.527344 168.085938 29.601562 167.519531 28.089844 C 167.21875 27.289062 166.566406 26.820312 165.894531 26.925781 C 165.339844 27.007812 164.71875 27.515625 164.65625 28.683594 C 164.617188 29.371094 164.710938 31.023438 164.933594 33.613281 C 164.742188 33.839844 164.550781 34.070312 164.363281 34.292969 C 162.675781 36.296875 161.082031 38.191406 161.082031 40.695312 C 161.082031 42.449219 162.378906 45.191406 165.828125 45.390625 C 165.738281 47.523438 165.304688 48.1875 165.125 48.371094 C 164.84375 48.652344 164.382812 48.652344 164.101562 48.371094 C 163.964844 48.234375 163.890625 48.050781 163.890625 47.855469 C 163.890625 47.234375 164.511719 46.492188 165.570312 46.898438 C 165.316406 46.640625 164.976562 46.5 164.613281 46.5 C 164.25 46.5 163.910156 46.640625 163.652344 46.898438 C 163.398438 47.152344 163.257812 47.496094 163.257812 47.855469 C 163.257812 48.21875 163.398438 48.558594 163.652344 48.816406 C 163.917969 49.082031 164.265625 49.214844 164.613281 49.214844 C 164.960938 49.210938 165.308594 49.082031 165.574219 48.8125 C 166.457031 47.917969 166.703125 45.09375 166.265625 40.871094 C 165.972656 38.042969 165.746094 35.691406 165.582031 33.816406 Z M 165.289062 28.71875 C 165.332031 27.929688 165.679688 27.597656 165.992188 27.550781 C 166.019531 27.542969 166.050781 27.542969 166.078125 27.542969 C 166.417969 27.542969 166.75 27.839844 166.929688 28.3125 C 167.371094 29.488281 166.890625 31.027344 165.503906 32.886719 C 165.328125 30.71875 165.253906 29.324219 165.289062 28.71875 Z M 165.847656 44.757812 C 162.84375 44.570312 161.714844 42.207031 161.714844 40.695312 C 161.714844 38.425781 163.234375 36.613281 164.847656 34.699219 C 164.902344 34.636719 164.957031 34.570312 165.011719 34.503906 C 165.167969 36.273438 165.378906 38.421875 165.636719 40.9375 C 165.800781 42.519531 165.855469 43.769531 165.847656 44.757812 Z M 165.847656 44.757812 " fill-opacity="1" fill-rule="nonzero"/></g><path fill="#f15107" d="M 163.242188 33.371094 C 161.714844 35.441406 160.488281 37.40625 160.074219 39.34375 C 159.660156 41.296875 160.246094 43.472656 161.191406 44.734375 C 159.472656 43.296875 159.097656 40.742188 159.492188 39.066406 C 159.964844 37.039062 161.441406 34.84375 163.242188 33.371094 Z M 163.242188 33.371094 " fill-opacity="1" fill-rule="nonzero"/><g clip-path="url(#4a50aa88b5)"><path fill="#f15107" d="M 161.617188 32.679688 C 159.96875 35.011719 158.621094 37.222656 158.21875 39.40625 C 157.78125 41.78125 158.808594 44.292969 159.851562 45.699219 C 157.84375 44.191406 157.164062 40.980469 157.578125 39.101562 C 158.078125 36.820312 159.667969 34.34375 161.617188 32.679688 Z M 161.617188 32.679688 " fill-opacity="1" fill-rule="nonzero"/></g><g fill="#ffffff" fill-opacity="1"><g transform="translate(71.875318, 45.524772)"><g><path d="M 3.359375 0 L 3.359375 -7.359375 L 0.40625 -7.359375 L 0.40625 -9.34375 L 8.453125 -9.34375 L 8.453125 -7.359375 L 5.484375 -7.359375 L 5.484375 0 Z M 3.359375 0 "/></g></g></g><g fill="#ffffff" fill-opacity="1"><g transform="translate(80.163565, 45.524772)"><g><path d="M 3.796875 0.1875 C 2.890625 0.1875 2.175781 -0.0976562 1.65625 -0.671875 C 1.132812 -1.242188 0.875 -2.015625 0.875 -2.984375 L 0.875 -7 L 2.90625 -7 L 2.90625 -3.1875 C 2.90625 -2.675781 3.023438 -2.273438 3.265625 -1.984375 C 3.515625 -1.703125 3.851562 -1.5625 4.28125 -1.5625 C 4.75 -1.5625 5.117188 -1.71875 5.390625 -2.03125 C 5.660156 -2.351562 5.796875 -2.789062 5.796875 -3.34375 L 5.796875 -7 L 7.828125 -7 L 7.828125 0 L 6.328125 0 L 6.109375 -0.78125 C 5.835938 -0.457031 5.5 -0.210938 5.09375 -0.046875 C 4.695312 0.109375 4.265625 0.1875 3.796875 0.1875 Z M 3.796875 0.1875 "/></g></g></g><g fill="#ffffff" fill-opacity="1"><g transform="translate(88.451812, 45.524772)"><g><path d="M 1.015625 0 L 1.015625 -7 L 2.515625 -7 L 2.734375 -6.21875 C 3.015625 -6.550781 3.359375 -6.796875 3.765625 -6.953125 C 4.171875 -7.109375 4.609375 -7.1875 5.078125 -7.1875 C 5.984375 -7.1875 6.695312 -6.898438 7.21875 -6.328125 C 7.738281 -5.765625 8 -5 8 -4.03125 L 8 0 L 5.984375 0 L 5.984375 -3.8125 C 5.984375 -4.332031 5.859375 -4.734375 5.609375 -5.015625 C 5.367188 -5.304688 5.03125 -5.453125 4.59375 -5.453125 C 4.125 -5.453125 3.75 -5.289062 3.46875 -4.96875 C 3.1875 -4.65625 3.046875 -4.222656 3.046875 -3.671875 L 3.046875 0 Z M 1.015625 0 "/></g></g></g><g fill="#ffffff" fill-opacity="1"><g transform="translate(96.780096, 45.524772)"><g><path d="M 4.328125 0.1875 C 3.578125 0.1875 2.914062 0.03125 2.34375 -0.28125 C 1.769531 -0.59375 1.320312 -1.023438 1 -1.578125 C 0.675781 -2.140625 0.515625 -2.785156 0.515625 -3.515625 C 0.515625 -4.242188 0.675781 -4.882812 1 -5.4375 C 1.332031 -5.988281 1.785156 -6.414062 2.359375 -6.71875 C 2.929688 -7.03125 3.59375 -7.1875 4.34375 -7.1875 C 5.144531 -7.1875 5.835938 -7.007812 6.421875 -6.65625 C 7.003906 -6.300781 7.445312 -5.800781 7.75 -5.15625 C 8.0625 -4.519531 8.195312 -3.773438 8.15625 -2.921875 L 2.53125 -2.921875 C 2.632812 -2.441406 2.847656 -2.070312 3.171875 -1.8125 C 3.503906 -1.5625 3.898438 -1.4375 4.359375 -1.4375 C 4.703125 -1.4375 5.015625 -1.5 5.296875 -1.625 C 5.578125 -1.757812 5.800781 -1.941406 5.96875 -2.171875 L 8.015625 -2.171875 C 7.710938 -1.429688 7.238281 -0.851562 6.59375 -0.4375 C 5.945312 -0.0195312 5.191406 0.1875 4.328125 0.1875 Z M 2.546875 -4.203125 L 6.1875 -4.203125 C 6.070312 -4.628906 5.859375 -4.960938 5.546875 -5.203125 C 5.234375 -5.453125 4.835938 -5.578125 4.359375 -5.578125 C 3.921875 -5.578125 3.535156 -5.453125 3.203125 -5.203125 C 2.878906 -4.960938 2.660156 -4.628906 2.546875 -4.203125 Z M 2.546875 -4.203125 "/></g></g></g><g fill="#ffffff" fill-opacity="1"><g transform="translate(104.881487, 45.524772)"><g><path d="M 5.40625 0.1875 C 4.457031 0.1875 3.617188 -0.015625 2.890625 -0.421875 C 2.160156 -0.835938 1.59375 -1.410156 1.1875 -2.140625 C 0.78125 -2.878906 0.578125 -3.722656 0.578125 -4.671875 C 0.578125 -5.617188 0.78125 -6.457031 1.1875 -7.1875 C 1.59375 -7.914062 2.15625 -8.488281 2.875 -8.90625 C 3.601562 -9.320312 4.441406 -9.53125 5.390625 -9.53125 C 6.179688 -9.53125 6.90625 -9.378906 7.5625 -9.078125 C 8.21875 -8.773438 8.769531 -8.347656 9.21875 -7.796875 C 9.675781 -7.242188 9.992188 -6.59375 10.171875 -5.84375 L 7.984375 -5.84375 C 7.804688 -6.363281 7.488281 -6.769531 7.03125 -7.0625 C 6.582031 -7.363281 6.054688 -7.515625 5.453125 -7.515625 C 4.929688 -7.515625 4.460938 -7.394531 4.046875 -7.15625 C 3.628906 -6.914062 3.304688 -6.582031 3.078125 -6.15625 C 2.847656 -5.726562 2.734375 -5.234375 2.734375 -4.671875 C 2.734375 -4.109375 2.847656 -3.613281 3.078125 -3.1875 C 3.304688 -2.757812 3.625 -2.425781 4.03125 -2.1875 C 4.445312 -1.945312 4.914062 -1.828125 5.4375 -1.828125 C 6.050781 -1.828125 6.585938 -1.984375 7.046875 -2.296875 C 7.515625 -2.617188 7.847656 -3.046875 8.046875 -3.578125 L 10.234375 -3.578125 C 10.085938 -2.816406 9.785156 -2.15625 9.328125 -1.59375 C 8.867188 -1.03125 8.300781 -0.59375 7.625 -0.28125 C 6.957031 0.03125 6.21875 0.1875 5.40625 0.1875 Z M 5.40625 0.1875 "/></g></g></g><g fill="#ffffff" fill-opacity="1"><g transform="translate(115.091676, 45.524772)"><g><path d="M 1.015625 0 L 1.015625 -7 L 2.515625 -7 L 2.78125 -6.078125 C 3.019531 -6.398438 3.304688 -6.632812 3.640625 -6.78125 C 3.984375 -6.925781 4.410156 -7 4.921875 -7 L 5.6875 -7 L 5.6875 -5.15625 L 4.90625 -5.15625 C 4.332031 -5.15625 3.878906 -5 3.546875 -4.6875 C 3.210938 -4.382812 3.046875 -3.851562 3.046875 -3.09375 L 3.046875 0 Z M 1.015625 0 "/></g></g></g><g fill="#ffffff" fill-opacity="1"><g transform="translate(120.670519, 45.524772)"><g><path d="M 4.328125 0.1875 C 3.578125 0.1875 2.914062 0.03125 2.34375 -0.28125 C 1.769531 -0.59375 1.320312 -1.023438 1 -1.578125 C 0.675781 -2.140625 0.515625 -2.785156 0.515625 -3.515625 C 0.515625 -4.242188 0.675781 -4.882812 1 -5.4375 C 1.332031 -5.988281 1.785156 -6.414062 2.359375 -6.71875 C 2.929688 -7.03125 3.59375 -7.1875 4.34375 -7.1875 C 5.144531 -7.1875 5.835938 -7.007812 6.421875 -6.65625 C 7.003906 -6.300781 7.445312 -5.800781 7.75 -5.15625 C 8.0625 -4.519531 8.195312 -3.773438 8.15625 -2.921875 L 2.53125 -2.921875 C 2.632812 -2.441406 2.847656 -2.070312 3.171875 -1.8125 C 3.503906 -1.5625 3.898438 -1.4375 4.359375 -1.4375 C 4.703125 -1.4375 5.015625 -1.5 5.296875 -1.625 C 5.578125 -1.757812 5.800781 -1.941406 5.96875 -2.171875 L 8.015625 -2.171875 C 7.710938 -1.429688 7.238281 -0.851562 6.59375 -0.4375 C 5.945312 -0.0195312 5.191406 0.1875 4.328125 0.1875 Z M 2.546875 -4.203125 L 6.1875 -4.203125 C 6.070312 -4.628906 5.859375 -4.960938 5.546875 -5.203125 C 5.234375 -5.453125 4.835938 -5.578125 4.359375 -5.578125 C 3.921875 -5.578125 3.535156 -5.453125 3.203125 -5.203125 C 2.878906 -4.960938 2.660156 -4.628906 2.546875 -4.203125 Z M 2.546875 -4.203125 "/></g></g></g><g fill="#ffffff" fill-opacity="1"><g transform="translate(128.77191, 45.524772)"><g><path d="M 2.703125 0 L 0.125 -7 L 2.265625 -7 L 3.078125 -4.6875 L 3.78125 -2.71875 L 4.5 -4.6875 L 5.359375 -7 L 7 -7 L 7.875 -4.6875 L 8.59375 -2.703125 L 9.28125 -4.6875 L 10.109375 -7 L 12.25 -7 L 9.65625 0 L 7.78125 0 L 6.1875 -4.265625 L 4.59375 0 Z M 2.703125 0 "/></g></g></g><g fill="#ffffff" fill-opacity="1"><g transform="translate(140.58372, 45.524772)"><g/></g></g><g fill="#ffffff" fill-opacity="1"><g transform="translate(143.159522, 45.524772)"><g><path d="M 0.125 0 L 3.828125 -9.34375 L 5.90625 -9.34375 L 9.625 0 L 7.359375 0 L 6.71875 -1.609375 L 3.015625 -1.609375 L 2.390625 0 Z M 3.5625 -3.28125 L 6.1875 -3.28125 L 4.875 -6.703125 Z M 3.5625 -3.28125 "/></g></g></g><g fill="#ffffff" fill-opacity="1"><g transform="translate(152.342006, 45.524772)"><g><path d="M 1.125 0 L 1.125 -9.34375 L 3.25 -9.34375 L 3.25 0 Z M 1.125 0 "/></g></g></g></svg>